<?xml version="1.0" encoding="UTF-8" standalone="no"?>
<!-- Created with matplotlib (https://matplotlib.org/) -->

<svg
   xmlns:dc="http://purl.org/dc/elements/1.1/"
   xmlns:cc="http://creativecommons.org/ns#"
   xmlns:rdf="http://www.w3.org/1999/02/22-rdf-syntax-ns#"
   xmlns:svg="http://www.w3.org/2000/svg"
   xmlns="http://www.w3.org/2000/svg"
   xmlns:xlink="http://www.w3.org/1999/xlink"
   xmlns:sodipodi="http://sodipodi.sourceforge.net/DTD/sodipodi-0.dtd"
   xmlns:inkscape="http://www.inkscape.org/namespaces/inkscape"
   height="423.34125pt"
   version="1.1"
   viewBox="0 0 708.862969 423.34125"
   width="708.862969pt"
   id="svg584"
   sodipodi:docname="solar_flux_for_127I_v2_upd.svg"
   inkscape:version="0.92.3 (2405546, 2018-03-11)">
  <sodipodi:namedview
     pagecolor="#ffffff"
     bordercolor="#666666"
     borderopacity="1"
     objecttolerance="10"
     gridtolerance="10"
     guidetolerance="10"
     inkscape:pageopacity="0"
     inkscape:pageshadow="2"
     inkscape:window-width="1920"
     inkscape:window-height="1023"
     id="namedview586"
     showgrid="false"
     inkscape:zoom="1.1825722"
     inkscape:cx="472.57532"
     inkscape:cy="316.05207"
     inkscape:window-x="0"
     inkscape:window-y="0"
     inkscape:window-maximized="1"
     inkscape:current-layer="svg584" />
  <metadata
     id="metadata2">
    <rdf:RDF>
      <cc:Work>
        <dc:type
           rdf:resource="http://purl.org/dc/dcmitype/StillImage" />
        <dc:date>2021-02-18T16:06:47.924495</dc:date>
        <dc:format>image/svg+xml</dc:format>
        <dc:creator>
          <cc:Agent>
            <dc:title>Matplotlib v3.3.1, https://matplotlib.org/</dc:title>
          </cc:Agent>
        </dc:creator>
        <dc:title></dc:title>
      </cc:Work>
    </rdf:RDF>
  </metadata>
  <defs
     id="defs6">
    <style
       type="text/css"
       id="style4">*{stroke-linecap:butt;stroke-linejoin:round;}</style>
    <marker
       inkscape:stockid="Arrow1Mstart"
       orient="auto"
       refY="0"
       refX="0"
       id="Arrow1Mstart"
       style="overflow:visible"
       inkscape:isstock="true">
      <path
         inkscape:connector-curvature="0"
         id="path9258"
         d="M 0,0 5,-5 -12.5,0 5,5 Z"
         style="fill:#000000;fill-opacity:1;fill-rule:evenodd;stroke:#000000;stroke-width:1.00000003pt;stroke-opacity:1"
         transform="matrix(0.4,0,0,0.4,4,0)" />
    </marker>
    <marker
       inkscape:stockid="Arrow1Mstart"
       orient="auto"
       refY="0"
       refX="0"
       id="Arrow1Mstart-3"
       style="overflow:visible"
       inkscape:isstock="true">
      <path
         inkscape:connector-curvature="0"
         id="path9258-6"
         d="M 0,0 5,-5 -12.5,0 5,5 Z"
         style="fill:#000000;fill-opacity:1;fill-rule:evenodd;stroke:#000000;stroke-width:1.00000003pt;stroke-opacity:1"
         transform="matrix(0.4,0,0,0.4,4,0)" />
    </marker>
  </defs>
  <g
     id="figure_1">
    <g
       id="patch_1">
      <path
         d="M 0 423.34125  L 708.862969 423.34125  L 708.862969 0  L 0 0  z "
         style="fill:none;"
         id="path8" />
    </g>
    <g
       id="axes_1">
      <g
         id="patch_2">
        <path
           d="M 72.96 370.3  L 691.482969 370.3  L 691.482969 7.2  L 72.96 7.2  z "
           style="fill:#ffffff;"
           id="path11" />
      </g>
      <g
         id="matplotlib.axis_1">
        <g
           id="xtick_1">
          <g
             id="line2d_1">
            <defs
               id="defs15">
              <path
                 d="M 0 0  L 0 3.5  "
                 id="mcc170c7ff5"
                 style="stroke:#000000;stroke-width:0.8;" />
            </defs>
            <g
               id="g19">
              <use
                 style="stroke:#000000;stroke-width:0.8;"
                 x="72.96"
                 xlink:href="#mcc170c7ff5"
                 y="370.3"
                 id="use17" />
            </g>
          </g>
          <g
             id="text_1">
            <!-- 0 -->
            <g
               transform="translate(67.87 389.4575)scale(0.16 -0.16)"
               id="g27">
              <defs
                 id="defs23">
                <path
                   d="M 31.78125 66.40625  Q 24.171875 66.40625 20.328125 58.90625  Q 16.5 51.421875 16.5 36.375  Q 16.5 21.390625 20.328125 13.890625  Q 24.171875 6.390625 31.78125 6.390625  Q 39.453125 6.390625 43.28125 13.890625  Q 47.125 21.390625 47.125 36.375  Q 47.125 51.421875 43.28125 58.90625  Q 39.453125 66.40625 31.78125 66.40625  z M 31.78125 74.21875  Q 44.046875 74.21875 50.515625 64.515625  Q 56.984375 54.828125 56.984375 36.375  Q 56.984375 17.96875 50.515625 8.265625  Q 44.046875 -1.421875 31.78125 -1.421875  Q 19.53125 -1.421875 13.0625 8.265625  Q 6.59375 17.96875 6.59375 36.375  Q 6.59375 54.828125 13.0625 64.515625  Q 19.53125 74.21875 31.78125 74.21875  z "
                   id="DejaVuSans-48" />
              </defs>
              <use
                 xlink:href="#DejaVuSans-48"
                 id="use25" />
            </g>
          </g>
        </g>
        <g
           id="xtick_2">
          <g
             id="line2d_2">
            <g
               id="g33">
              <use
                 style="stroke:#000000;stroke-width:0.8;"
                 x="168.11738"
                 xlink:href="#mcc170c7ff5"
                 y="370.3"
                 id="use31" />
            </g>
          </g>
          <g
             id="text_2">
            <!-- 1 -->
            <g
               transform="translate(163.02738 389.4575)scale(0.16 -0.16)"
               id="g41">
              <defs
                 id="defs37">
                <path
                   d="M 12.40625 8.296875  L 28.515625 8.296875  L 28.515625 63.921875  L 10.984375 60.40625  L 10.984375 69.390625  L 28.421875 72.90625  L 38.28125 72.90625  L 38.28125 8.296875  L 54.390625 8.296875  L 54.390625 0  L 12.40625 0  z "
                   id="DejaVuSans-49" />
              </defs>
              <use
                 xlink:href="#DejaVuSans-49"
                 id="use39" />
            </g>
          </g>
        </g>
        <g
           id="xtick_3">
          <g
             id="line2d_3">
            <g
               id="g47">
              <use
                 style="stroke:#000000;stroke-width:0.8;"
                 x="263.27476"
                 xlink:href="#mcc170c7ff5"
                 y="370.3"
                 id="use45" />
            </g>
          </g>
          <g
             id="text_3">
            <!-- 2 -->
            <g
               transform="translate(258.18476 389.4575)scale(0.16 -0.16)"
               id="g55">
              <defs
                 id="defs51">
                <path
                   d="M 19.1875 8.296875  L 53.609375 8.296875  L 53.609375 0  L 7.328125 0  L 7.328125 8.296875  Q 12.9375 14.109375 22.625 23.890625  Q 32.328125 33.6875 34.8125 36.53125  Q 39.546875 41.84375 41.421875 45.53125  Q 43.3125 49.21875 43.3125 52.78125  Q 43.3125 58.59375 39.234375 62.25  Q 35.15625 65.921875 28.609375 65.921875  Q 23.96875 65.921875 18.8125 64.3125  Q 13.671875 62.703125 7.8125 59.421875  L 7.8125 69.390625  Q 13.765625 71.78125 18.9375 73  Q 24.125 74.21875 28.421875 74.21875  Q 39.75 74.21875 46.484375 68.546875  Q 53.21875 62.890625 53.21875 53.421875  Q 53.21875 48.921875 51.53125 44.890625  Q 49.859375 40.875 45.40625 35.40625  Q 44.1875 33.984375 37.640625 27.21875  Q 31.109375 20.453125 19.1875 8.296875  z "
                   id="DejaVuSans-50" />
              </defs>
              <use
                 xlink:href="#DejaVuSans-50"
                 id="use53" />
            </g>
          </g>
        </g>
        <g
           id="xtick_4">
          <g
             id="line2d_4">
            <g
               id="g61">
              <use
                 style="stroke:#000000;stroke-width:0.8;"
                 x="310.85345"
                 xlink:href="#mcc170c7ff5"
                 y="370.3"
                 id="use59" />
            </g>
          </g>
          <g
             id="text_4">
            <!-- 4 -->
            <g
               transform="translate(305.76345 389.4575)scale(0.16 -0.16)"
               id="g69">
              <defs
                 id="defs65">
                <path
                   d="M 37.796875 64.3125  L 12.890625 25.390625  L 37.796875 25.390625  z M 35.203125 72.90625  L 47.609375 72.90625  L 47.609375 25.390625  L 58.015625 25.390625  L 58.015625 17.1875  L 47.609375 17.1875  L 47.609375 0  L 37.796875 0  L 37.796875 17.1875  L 4.890625 17.1875  L 4.890625 26.703125  z "
                   id="DejaVuSans-52" />
              </defs>
              <use
                 xlink:href="#DejaVuSans-52"
                 id="use67" />
            </g>
          </g>
        </g>
        <g
           id="xtick_5">
          <g
             id="line2d_5">
            <g
               id="g75">
              <use
                 style="stroke:#000000;stroke-width:0.8;"
                 x="358.432139"
                 xlink:href="#mcc170c7ff5"
                 y="370.3"
                 id="use73" />
            </g>
          </g>
          <g
             id="text_5">
            <!-- 6 -->
            <g
               transform="translate(353.342139 389.4575)scale(0.16 -0.16)"
               id="g83">
              <defs
                 id="defs79">
                <path
                   d="M 33.015625 40.375  Q 26.375 40.375 22.484375 35.828125  Q 18.609375 31.296875 18.609375 23.390625  Q 18.609375 15.53125 22.484375 10.953125  Q 26.375 6.390625 33.015625 6.390625  Q 39.65625 6.390625 43.53125 10.953125  Q 47.40625 15.53125 47.40625 23.390625  Q 47.40625 31.296875 43.53125 35.828125  Q 39.65625 40.375 33.015625 40.375  z M 52.59375 71.296875  L 52.59375 62.3125  Q 48.875 64.0625 45.09375 64.984375  Q 41.3125 65.921875 37.59375 65.921875  Q 27.828125 65.921875 22.671875 59.328125  Q 17.53125 52.734375 16.796875 39.40625  Q 19.671875 43.65625 24.015625 45.921875  Q 28.375 48.1875 33.59375 48.1875  Q 44.578125 48.1875 50.953125 41.515625  Q 57.328125 34.859375 57.328125 23.390625  Q 57.328125 12.15625 50.6875 5.359375  Q 44.046875 -1.421875 33.015625 -1.421875  Q 20.359375 -1.421875 13.671875 8.265625  Q 6.984375 17.96875 6.984375 36.375  Q 6.984375 53.65625 15.1875 63.9375  Q 23.390625 74.21875 37.203125 74.21875  Q 40.921875 74.21875 44.703125 73.484375  Q 48.484375 72.75 52.59375 71.296875  z "
                   id="DejaVuSans-54" />
              </defs>
              <use
                 xlink:href="#DejaVuSans-54"
                 id="use81" />
            </g>
          </g>
        </g>
        <g
           id="xtick_6">
          <g
             id="line2d_6">
            <g
               id="g89">
              <use
                 style="stroke:#000000;stroke-width:0.8;"
                 x="406.010829"
                 xlink:href="#mcc170c7ff5"
                 y="370.3"
                 id="use87" />
            </g>
          </g>
          <g
             id="text_6">
            <!-- 8 -->
            <g
               transform="translate(400.920829 389.4575)scale(0.16 -0.16)"
               id="g97">
              <defs
                 id="defs93">
                <path
                   d="M 31.78125 34.625  Q 24.75 34.625 20.71875 30.859375  Q 16.703125 27.09375 16.703125 20.515625  Q 16.703125 13.921875 20.71875 10.15625  Q 24.75 6.390625 31.78125 6.390625  Q 38.8125 6.390625 42.859375 10.171875  Q 46.921875 13.96875 46.921875 20.515625  Q 46.921875 27.09375 42.890625 30.859375  Q 38.875 34.625 31.78125 34.625  z M 21.921875 38.8125  Q 15.578125 40.375 12.03125 44.71875  Q 8.5 49.078125 8.5 55.328125  Q 8.5 64.0625 14.71875 69.140625  Q 20.953125 74.21875 31.78125 74.21875  Q 42.671875 74.21875 48.875 69.140625  Q 55.078125 64.0625 55.078125 55.328125  Q 55.078125 49.078125 51.53125 44.71875  Q 48 40.375 41.703125 38.8125  Q 48.828125 37.15625 52.796875 32.3125  Q 56.78125 27.484375 56.78125 20.515625  Q 56.78125 9.90625 50.3125 4.234375  Q 43.84375 -1.421875 31.78125 -1.421875  Q 19.734375 -1.421875 13.25 4.234375  Q 6.78125 9.90625 6.78125 20.515625  Q 6.78125 27.484375 10.78125 32.3125  Q 14.796875 37.15625 21.921875 38.8125  z M 18.3125 54.390625  Q 18.3125 48.734375 21.84375 45.5625  Q 25.390625 42.390625 31.78125 42.390625  Q 38.140625 42.390625 41.71875 45.5625  Q 45.3125 48.734375 45.3125 54.390625  Q 45.3125 60.0625 41.71875 63.234375  Q 38.140625 66.40625 31.78125 66.40625  Q 25.390625 66.40625 21.84375 63.234375  Q 18.3125 60.0625 18.3125 54.390625  z "
                   id="DejaVuSans-56" />
              </defs>
              <use
                 xlink:href="#DejaVuSans-56"
                 id="use95" />
            </g>
          </g>
        </g>
        <g
           id="xtick_7">
          <g
             id="line2d_7">
            <g
               id="g103">
              <use
                 style="stroke:#000000;stroke-width:0.8;"
                 x="453.589519"
                 xlink:href="#mcc170c7ff5"
                 y="370.3"
                 id="use101" />
            </g>
          </g>
          <g
             id="text_7">
            <!-- 10 -->
            <g
               transform="translate(443.409519 389.4575)scale(0.16 -0.16)"
               id="g110">
              <use
                 xlink:href="#DejaVuSans-49"
                 id="use106" />
              <use
                 x="63.623047"
                 xlink:href="#DejaVuSans-48"
                 id="use108" />
            </g>
          </g>
        </g>
        <g
           id="xtick_8">
          <g
             id="line2d_8">
            <g
               id="g116">
              <use
                 style="stroke:#000000;stroke-width:0.8;"
                 x="501.168209"
                 xlink:href="#mcc170c7ff5"
                 y="370.3"
                 id="use114" />
            </g>
          </g>
          <g
             id="text_8">
            <!-- 12 -->
            <g
               transform="translate(490.988209 389.4575)scale(0.16 -0.16)"
               id="g123">
              <use
                 xlink:href="#DejaVuSans-49"
                 id="use119" />
              <use
                 x="63.623047"
                 xlink:href="#DejaVuSans-50"
                 id="use121" />
            </g>
          </g>
        </g>
        <g
           id="xtick_9">
          <g
             id="line2d_9">
            <g
               id="g129">
              <use
                 style="stroke:#000000;stroke-width:0.8;"
                 x="548.746899"
                 xlink:href="#mcc170c7ff5"
                 y="370.3"
                 id="use127" />
            </g>
          </g>
          <g
             id="text_9">
            <!-- 14 -->
            <g
               transform="translate(538.566899 389.4575)scale(0.16 -0.16)"
               id="g136">
              <use
                 xlink:href="#DejaVuSans-49"
                 id="use132" />
              <use
                 x="63.623047"
                 xlink:href="#DejaVuSans-52"
                 id="use134" />
            </g>
          </g>
        </g>
        <g
           id="xtick_10">
          <g
             id="line2d_10">
            <g
               id="g142">
              <use
                 style="stroke:#000000;stroke-width:0.8;"
                 x="596.325589"
                 xlink:href="#mcc170c7ff5"
                 y="370.3"
                 id="use140" />
            </g>
          </g>
          <g
             id="text_10">
            <!-- 16 -->
            <g
               transform="translate(586.145589 389.4575)scale(0.16 -0.16)"
               id="g149">
              <use
                 xlink:href="#DejaVuSans-49"
                 id="use145" />
              <use
                 x="63.623047"
                 xlink:href="#DejaVuSans-54"
                 id="use147" />
            </g>
          </g>
        </g>
        <g
           id="xtick_11">
          <g
             id="line2d_11">
            <g
               id="g155">
              <use
                 style="stroke:#000000;stroke-width:0.8;"
                 x="643.904279"
                 xlink:href="#mcc170c7ff5"
                 y="370.3"
                 id="use153" />
            </g>
          </g>
          <g
             id="text_11">
            <!-- 18 -->
            <g
               transform="translate(633.724279 389.4575)scale(0.16 -0.16)"
               id="g162">
              <use
                 xlink:href="#DejaVuSans-49"
                 id="use158" />
              <use
                 x="63.623047"
                 xlink:href="#DejaVuSans-56"
                 id="use160" />
            </g>
          </g>
        </g>
        <g
           id="xtick_12">
          <g
             id="line2d_12">
            <g
               id="g168">
              <use
                 style="stroke:#000000;stroke-width:0.8;"
                 x="691.482969"
                 xlink:href="#mcc170c7ff5"
                 y="370.3"
                 id="use166" />
            </g>
          </g>
          <g
             id="text_12">
            <!-- 20 -->
            <g
               transform="translate(681.302969 389.4575)scale(0.16 -0.16)"
               id="g175">
              <use
                 xlink:href="#DejaVuSans-50"
                 id="use171" />
              <use
                 x="63.623047"
                 xlink:href="#DejaVuSans-48"
                 id="use173" />
            </g>
          </g>
        </g>
        <g
           id="text_13">
          <!-- $E_{\nu}$, MeV -->
          <g
             transform="translate(614.482969 411.981875)scale(0.2 -0.2)"
             id="g202">
            <defs
               id="defs186">
              <path
                 d="M 16.890625 72.90625  L 62.984375 72.90625  L 61.375 64.59375  L 25.09375 64.59375  L 20.90625 43.015625  L 55.71875 43.015625  L 54.109375 34.71875  L 19.28125 34.71875  L 14.203125 8.296875  L 51.3125 8.296875  L 49.703125 0  L 2.6875 0  z "
                 id="DejaVuSans-Oblique-69" />
              <path
                 d="M 14.984375 0  L 8.9375 54.6875  L 18.609375 54.6875  L 23.78125 8.796875  Q 30.8125 14.84375 37.359375 23.25  Q 42.28125 29.546875 43.5625 35.015625  Q 44.140625 37.59375 43.890625 42.484375  Q 43.65625 48.296875 39.75 54.6875  L 48.828125 54.6875  L 48.828125 54.6875  Q 51.375 50.34375 52.390625 44.28125  Q 53.375 38.71875 52.640625 34.90625  Q 50.78125 25.34375 42.484375 16.796875  Q 31.640625 5.671875 24.5625 0  z "
                 id="DejaVuSans-Oblique-957" />
              <path
                 d="M 11.71875 12.40625  L 22.015625 12.40625  L 22.015625 4  L 14.015625 -11.625  L 7.71875 -11.625  L 11.71875 4  z "
                 id="DejaVuSans-44" />
              <path
                 id="DejaVuSans-32" />
              <path
                 d="M 9.8125 72.90625  L 24.515625 72.90625  L 43.109375 23.296875  L 61.8125 72.90625  L 76.515625 72.90625  L 76.515625 0  L 66.890625 0  L 66.890625 64.015625  L 48.09375 14.015625  L 38.1875 14.015625  L 19.390625 64.015625  L 19.390625 0  L 9.8125 0  z "
                 id="DejaVuSans-77" />
              <path
                 d="M 56.203125 29.59375  L 56.203125 25.203125  L 14.890625 25.203125  Q 15.484375 15.921875 20.484375 11.0625  Q 25.484375 6.203125 34.421875 6.203125  Q 39.59375 6.203125 44.453125 7.46875  Q 49.3125 8.734375 54.109375 11.28125  L 54.109375 2.78125  Q 49.265625 0.734375 44.1875 -0.34375  Q 39.109375 -1.421875 33.890625 -1.421875  Q 20.796875 -1.421875 13.15625 6.1875  Q 5.515625 13.8125 5.515625 26.8125  Q 5.515625 40.234375 12.765625 48.109375  Q 20.015625 56 32.328125 56  Q 43.359375 56 49.78125 48.890625  Q 56.203125 41.796875 56.203125 29.59375  z M 47.21875 32.234375  Q 47.125 39.59375 43.09375 43.984375  Q 39.0625 48.390625 32.421875 48.390625  Q 24.90625 48.390625 20.390625 44.140625  Q 15.875 39.890625 15.1875 32.171875  z "
                 id="DejaVuSans-101" />
              <path
                 d="M 28.609375 0  L 0.78125 72.90625  L 11.078125 72.90625  L 34.1875 11.53125  L 57.328125 72.90625  L 67.578125 72.90625  L 39.796875 0  z "
                 id="DejaVuSans-86" />
            </defs>
            <use
               transform="translate(0 0.09375)"
               xlink:href="#DejaVuSans-Oblique-69"
               id="use188" />
            <use
               transform="translate(63.183594 -16.3125)scale(0.7)"
               xlink:href="#DejaVuSans-Oblique-957"
               id="use190" />
            <use
               transform="translate(105.019531 0.09375)"
               xlink:href="#DejaVuSans-44"
               id="use192" />
            <use
               transform="translate(136.806641 0.09375)"
               xlink:href="#DejaVuSans-32"
               id="use194" />
            <use
               transform="translate(168.59375 0.09375)"
               xlink:href="#DejaVuSans-77"
               id="use196" />
            <use
               transform="translate(254.873047 0.09375)"
               xlink:href="#DejaVuSans-101"
               id="use198" />
            <use
               transform="translate(316.396484 0.09375)"
               xlink:href="#DejaVuSans-86"
               id="use200" />
          </g>
        </g>
      </g>
      <g
         id="matplotlib.axis_2">
        <g
           id="ytick_1">
          <g
             id="line2d_13">
            <defs
               id="defs207">
              <path
                 d="M 0 0  L -3.5 0  "
                 id="mc12e642a89"
                 style="stroke:#000000;stroke-width:0.8;" />
            </defs>
            <g
               id="g211">
              <use
                 style="stroke:#000000;stroke-width:0.8;"
                 x="72.96"
                 xlink:href="#mc12e642a89"
                 y="370.3"
                 id="use209" />
            </g>
          </g>
          <g
             id="text_14">
            <!-- $10^{  1 }$ -->
            <g
               transform="translate(37.8 376.37875)scale(0.16 -0.16)"
               id="g220">
              <use
                 transform="translate(0 0.684375)"
                 xlink:href="#DejaVuSans-49"
                 id="use214" />
              <use
                 transform="translate(63.623047 0.684375)"
                 xlink:href="#DejaVuSans-48"
                 id="use216" />
              <use
                 transform="translate(128.203125 38.965625)scale(0.7)"
                 xlink:href="#DejaVuSans-49"
                 id="use218" />
            </g>
          </g>
        </g>
        <g
           id="ytick_2">
          <g
             id="line2d_14">
            <g
               id="g226">
              <use
                 style="stroke:#000000;stroke-width:0.8;"
                 x="72.96"
                 xlink:href="#mc12e642a89"
                 y="304.281818"
                 id="use224" />
            </g>
          </g>
          <g
             id="text_15">
            <!-- $10^{  3 }$ -->
            <g
               transform="translate(37.8 310.360568)scale(0.16 -0.16)"
               id="g238">
              <defs
                 id="defs230">
                <path
                   d="M 40.578125 39.3125  Q 47.65625 37.796875 51.625 33  Q 55.609375 28.21875 55.609375 21.1875  Q 55.609375 10.40625 48.1875 4.484375  Q 40.765625 -1.421875 27.09375 -1.421875  Q 22.515625 -1.421875 17.65625 -0.515625  Q 12.796875 0.390625 7.625 2.203125  L 7.625 11.71875  Q 11.71875 9.328125 16.59375 8.109375  Q 21.484375 6.890625 26.8125 6.890625  Q 36.078125 6.890625 40.9375 10.546875  Q 45.796875 14.203125 45.796875 21.1875  Q 45.796875 27.640625 41.28125 31.265625  Q 36.765625 34.90625 28.71875 34.90625  L 20.21875 34.90625  L 20.21875 43.015625  L 29.109375 43.015625  Q 36.375 43.015625 40.234375 45.921875  Q 44.09375 48.828125 44.09375 54.296875  Q 44.09375 59.90625 40.109375 62.90625  Q 36.140625 65.921875 28.71875 65.921875  Q 24.65625 65.921875 20.015625 65.03125  Q 15.375 64.15625 9.8125 62.3125  L 9.8125 71.09375  Q 15.4375 72.65625 20.34375 73.4375  Q 25.25 74.21875 29.59375 74.21875  Q 40.828125 74.21875 47.359375 69.109375  Q 53.90625 64.015625 53.90625 55.328125  Q 53.90625 49.265625 50.4375 45.09375  Q 46.96875 40.921875 40.578125 39.3125  z "
                   id="DejaVuSans-51" />
              </defs>
              <use
                 transform="translate(0 0.765625)"
                 xlink:href="#DejaVuSans-49"
                 id="use232" />
              <use
                 transform="translate(63.623047 0.765625)"
                 xlink:href="#DejaVuSans-48"
                 id="use234" />
              <use
                 transform="translate(128.203125 39.046875)scale(0.7)"
                 xlink:href="#DejaVuSans-51"
                 id="use236" />
            </g>
          </g>
        </g>
        <g
           id="ytick_3">
          <g
             id="line2d_15">
            <g
               id="g244">
              <use
                 style="stroke:#000000;stroke-width:0.8;"
                 x="72.96"
                 xlink:href="#mc12e642a89"
                 y="238.263636"
                 id="use242" />
            </g>
          </g>
          <g
             id="text_16">
            <!-- $10^{  5 }$ -->
            <g
               transform="translate(37.8 244.342386)scale(0.16 -0.16)"
               id="g256">
              <defs
                 id="defs248">
                <path
                   d="M 10.796875 72.90625  L 49.515625 72.90625  L 49.515625 64.59375  L 19.828125 64.59375  L 19.828125 46.734375  Q 21.96875 47.46875 24.109375 47.828125  Q 26.265625 48.1875 28.421875 48.1875  Q 40.625 48.1875 47.75 41.5  Q 54.890625 34.8125 54.890625 23.390625  Q 54.890625 11.625 47.5625 5.09375  Q 40.234375 -1.421875 26.90625 -1.421875  Q 22.3125 -1.421875 17.546875 -0.640625  Q 12.796875 0.140625 7.71875 1.703125  L 7.71875 11.625  Q 12.109375 9.234375 16.796875 8.0625  Q 21.484375 6.890625 26.703125 6.890625  Q 35.15625 6.890625 40.078125 11.328125  Q 45.015625 15.765625 45.015625 23.390625  Q 45.015625 31 40.078125 35.4375  Q 35.15625 39.890625 26.703125 39.890625  Q 22.75 39.890625 18.8125 39.015625  Q 14.890625 38.140625 10.796875 36.28125  z "
                   id="DejaVuSans-53" />
              </defs>
              <use
                 transform="translate(0 0.684375)"
                 xlink:href="#DejaVuSans-49"
                 id="use250" />
              <use
                 transform="translate(63.623047 0.684375)"
                 xlink:href="#DejaVuSans-48"
                 id="use252" />
              <use
                 transform="translate(128.203125 38.965625)scale(0.7)"
                 xlink:href="#DejaVuSans-53"
                 id="use254" />
            </g>
          </g>
        </g>
        <g
           id="ytick_4">
          <g
             id="line2d_16">
            <g
               id="g262">
              <use
                 style="stroke:#000000;stroke-width:0.8;"
                 x="72.96"
                 xlink:href="#mc12e642a89"
                 y="172.245455"
                 id="use260" />
            </g>
          </g>
          <g
             id="text_17">
            <!-- $10^{  7 }$ -->
            <g
               transform="translate(37.8 178.324205)scale(0.16 -0.16)"
               id="g274">
              <defs
                 id="defs266">
                <path
                   d="M 8.203125 72.90625  L 55.078125 72.90625  L 55.078125 68.703125  L 28.609375 0  L 18.3125 0  L 43.21875 64.59375  L 8.203125 64.59375  z "
                   id="DejaVuSans-55" />
              </defs>
              <use
                 transform="translate(0 0.684375)"
                 xlink:href="#DejaVuSans-49"
                 id="use268" />
              <use
                 transform="translate(63.623047 0.684375)"
                 xlink:href="#DejaVuSans-48"
                 id="use270" />
              <use
                 transform="translate(128.203125 38.965625)scale(0.7)"
                 xlink:href="#DejaVuSans-55"
                 id="use272" />
            </g>
          </g>
        </g>
        <g
           id="ytick_5">
          <g
             id="line2d_17">
            <g
               id="g280">
              <use
                 style="stroke:#000000;stroke-width:0.8;"
                 x="72.96"
                 xlink:href="#mc12e642a89"
                 y="106.227273"
                 id="use278" />
            </g>
          </g>
          <g
             id="text_18">
            <!-- $10^{  9 }$ -->
            <g
               transform="translate(37.8 112.306023)scale(0.16 -0.16)"
               id="g292">
              <defs
                 id="defs284">
                <path
                   d="M 10.984375 1.515625  L 10.984375 10.5  Q 14.703125 8.734375 18.5 7.8125  Q 22.3125 6.890625 25.984375 6.890625  Q 35.75 6.890625 40.890625 13.453125  Q 46.046875 20.015625 46.78125 33.40625  Q 43.953125 29.203125 39.59375 26.953125  Q 35.25 24.703125 29.984375 24.703125  Q 19.046875 24.703125 12.671875 31.3125  Q 6.296875 37.9375 6.296875 49.421875  Q 6.296875 60.640625 12.9375 67.421875  Q 19.578125 74.21875 30.609375 74.21875  Q 43.265625 74.21875 49.921875 64.515625  Q 56.59375 54.828125 56.59375 36.375  Q 56.59375 19.140625 48.40625 8.859375  Q 40.234375 -1.421875 26.421875 -1.421875  Q 22.703125 -1.421875 18.890625 -0.6875  Q 15.09375 0.046875 10.984375 1.515625  z M 30.609375 32.421875  Q 37.25 32.421875 41.125 36.953125  Q 45.015625 41.5 45.015625 49.421875  Q 45.015625 57.28125 41.125 61.84375  Q 37.25 66.40625 30.609375 66.40625  Q 23.96875 66.40625 20.09375 61.84375  Q 16.21875 57.28125 16.21875 49.421875  Q 16.21875 41.5 20.09375 36.953125  Q 23.96875 32.421875 30.609375 32.421875  z "
                   id="DejaVuSans-57" />
              </defs>
              <use
                 transform="translate(0 0.765625)"
                 xlink:href="#DejaVuSans-49"
                 id="use286" />
              <use
                 transform="translate(63.623047 0.765625)"
                 xlink:href="#DejaVuSans-48"
                 id="use288" />
              <use
                 transform="translate(128.203125 39.046875)scale(0.7)"
                 xlink:href="#DejaVuSans-57"
                 id="use290" />
            </g>
          </g>
        </g>
        <g
           id="ytick_6">
          <g
             id="line2d_18">
            <g
               id="g298">
              <use
                 style="stroke:#000000;stroke-width:0.8;"
                 x="72.96"
                 xlink:href="#mc12e642a89"
                 y="40.209091"
                 id="use296" />
            </g>
          </g>
          <g
             id="text_19">
            <!-- $10^{ 11 }$ -->
            <g
               transform="translate(30.6 46.287841)scale(0.16 -0.16)"
               id="g309">
              <use
                 transform="translate(0 0.684375)"
                 xlink:href="#DejaVuSans-49"
                 id="use301" />
              <use
                 transform="translate(63.623047 0.684375)"
                 xlink:href="#DejaVuSans-48"
                 id="use303" />
              <use
                 transform="translate(128.203125 38.965625)scale(0.7)"
                 xlink:href="#DejaVuSans-49"
                 id="use305" />
              <use
                 transform="translate(172.739258 38.965625)scale(0.7)"
                 xlink:href="#DejaVuSans-49"
                 id="use307" />
            </g>
          </g>
        </g>
        <g
           id="text_20">
          <!-- $\rho_{solar}(E_{\nu})$ -->
          <g
             transform="translate(22.4 230.75)rotate(-90)scale(0.2 -0.2)"
             id="g343">
            <defs
               id="defs321">
              <path
                 d="M 18.796875 44.921875  Q 22.703125 49.90625 30.953125 54.296875  Q 34.1875 56 43.0625 56  Q 53.03125 56 57.71875 48.09375  Q 62.40625 40.1875 59.90625 27.296875  Q 57.375 14.40625 49.609375 6.484375  Q 41.84375 -1.421875 31.890625 -1.421875  Q 25.875 -1.421875 22.015625 0.984375  Q 18.171875 3.328125 16.3125 8.203125  L 10.640625 -20.796875  L 1.609375 -20.796875  L 10.890625 26.8125  Q 13.09375 38.09375 18.796875 44.921875  z M 50.59375 27.296875  Q 52.484375 37.203125 49.515625 42.875  Q 46.53125 48.484375 39.40625 48.484375  Q 32.28125 48.484375 27.09375 42.875  Q 21.921875 37.203125 20.015625 27.296875  Q 18.0625 17.390625 21.046875 11.71875  Q 24.03125 6.109375 31.15625 6.109375  Q 38.28125 6.109375 43.453125 11.71875  Q 48.640625 17.390625 50.59375 27.296875  z "
                 id="DejaVuSans-Oblique-961" />
              <path
                 d="M 50 53.078125  L 48.296875 44.578125  Q 44.734375 46.53125 40.765625 47.5  Q 36.8125 48.484375 32.625 48.484375  Q 25.53125 48.484375 21.453125 46.0625  Q 17.390625 43.65625 17.390625 39.5  Q 17.390625 34.671875 26.859375 32.078125  Q 27.59375 31.890625 27.9375 31.78125  L 30.8125 30.90625  Q 39.796875 28.421875 42.796875 25.6875  Q 45.796875 22.953125 45.796875 18.21875  Q 45.796875 9.515625 38.890625 4.046875  Q 31.984375 -1.421875 20.796875 -1.421875  Q 16.453125 -1.421875 11.671875 -0.578125  Q 6.890625 0.25 1.125 2  L 2.875 11.28125  Q 7.8125 8.734375 12.59375 7.421875  Q 17.390625 6.109375 21.78125 6.109375  Q 28.375 6.109375 32.5 8.9375  Q 36.625 11.765625 36.625 16.109375  Q 36.625 20.796875 25.78125 23.6875  L 24.859375 23.921875  L 21.78125 24.703125  Q 14.9375 26.515625 11.765625 29.46875  Q 8.59375 32.421875 8.59375 37.015625  Q 8.59375 45.75 15.15625 50.875  Q 21.734375 56 33.015625 56  Q 37.453125 56 41.671875 55.265625  Q 45.90625 54.546875 50 53.078125  z "
                 id="DejaVuSans-Oblique-115" />
              <path
                 d="M 25.390625 -1.421875  Q 15.765625 -1.421875 10.171875 4.515625  Q 4.59375 10.453125 4.59375 20.703125  Q 4.59375 26.65625 6.515625 32.828125  Q 8.453125 39.015625 11.53125 43.21875  Q 16.359375 49.75 22.3125 52.875  Q 28.265625 56 35.796875 56  Q 45.125 56 50.859375 50.1875  Q 56.59375 44.390625 56.59375 35.015625  Q 56.59375 28.515625 54.6875 22.0625  Q 52.78125 15.625 49.703125 11.375  Q 44.921875 4.828125 38.96875 1.703125  Q 33.015625 -1.421875 25.390625 -1.421875  z M 13.921875 21  Q 13.921875 13.578125 17.015625 9.890625  Q 20.125 6.203125 26.421875 6.203125  Q 35.453125 6.203125 41.375 14.078125  Q 47.3125 21.96875 47.3125 34.078125  Q 47.3125 41.15625 44.140625 44.765625  Q 40.96875 48.390625 34.8125 48.390625  Q 29.734375 48.390625 25.78125 46.015625  Q 21.828125 43.65625 18.703125 38.8125  Q 16.40625 35.203125 15.15625 30.5625  Q 13.921875 25.921875 13.921875 21  z "
                 id="DejaVuSans-Oblique-111" />
              <path
                 d="M 18.3125 75.984375  L 27.296875 75.984375  L 12.5 0  L 3.515625 0  z "
                 id="DejaVuSans-Oblique-108" />
              <path
                 d="M 53.71875 31.203125  L 47.609375 0  L 38.625 0  L 40.28125 8.296875  Q 36.328125 3.421875 31.265625 1  Q 26.21875 -1.421875 20.015625 -1.421875  Q 13.03125 -1.421875 8.5625 2.84375  Q 4.109375 7.125 4.109375 13.8125  Q 4.109375 23.390625 11.75 28.953125  Q 19.390625 34.515625 32.8125 34.515625  L 45.3125 34.515625  L 45.796875 36.921875  Q 45.90625 37.3125 45.953125 37.765625  Q 46 38.234375 46 39.203125  Q 46 43.5625 42.453125 45.96875  Q 38.921875 48.390625 32.515625 48.390625  Q 28.125 48.390625 23.5 47.265625  Q 18.890625 46.140625 14.015625 43.890625  L 15.578125 52.203125  Q 20.65625 54.109375 25.515625 55.046875  Q 30.375 56 34.90625 56  Q 44.578125 56 49.625 51.796875  Q 54.6875 47.609375 54.6875 39.59375  Q 54.6875 37.984375 54.4375 35.8125  Q 54.203125 33.640625 53.71875 31.203125  z M 44 27.484375  L 35.015625 27.484375  Q 23.96875 27.484375 18.671875 24.53125  Q 13.375 21.578125 13.375 15.375  Q 13.375 11.078125 16.078125 8.640625  Q 18.796875 6.203125 23.578125 6.203125  Q 30.90625 6.203125 36.375 11.453125  Q 41.84375 16.703125 43.609375 25.484375  z "
                 id="DejaVuSans-Oblique-97" />
              <path
                 d="M 44.578125 46.390625  Q 43.21875 47.125 41.453125 47.515625  Q 39.703125 47.90625 37.703125 47.90625  Q 30.515625 47.90625 25.140625 42.453125  Q 19.78125 37.015625 18.015625 27.875  L 12.5 0  L 3.515625 0  L 14.203125 54.6875  L 23.1875 54.6875  L 21.484375 46.1875  Q 25.046875 50.921875 30 53.453125  Q 34.96875 56 40.578125 56  Q 42.046875 56 43.453125 55.828125  Q 44.875 55.671875 46.296875 55.28125  z "
                 id="DejaVuSans-Oblique-114" />
              <path
                 d="M 31 75.875  Q 24.46875 64.65625 21.28125 53.65625  Q 18.109375 42.671875 18.109375 31.390625  Q 18.109375 20.125 21.3125 9.0625  Q 24.515625 -2 31 -13.1875  L 23.1875 -13.1875  Q 15.875 -1.703125 12.234375 9.375  Q 8.59375 20.453125 8.59375 31.390625  Q 8.59375 42.28125 12.203125 53.3125  Q 15.828125 64.359375 23.1875 75.875  z "
                 id="DejaVuSans-40" />
              <path
                 d="M 8.015625 75.875  L 15.828125 75.875  Q 23.140625 64.359375 26.78125 53.3125  Q 30.421875 42.28125 30.421875 31.390625  Q 30.421875 20.453125 26.78125 9.375  Q 23.140625 -1.703125 15.828125 -13.1875  L 8.015625 -13.1875  Q 14.5 -2 17.703125 9.0625  Q 20.90625 20.125 20.90625 31.390625  Q 20.90625 42.671875 17.703125 53.65625  Q 14.5 64.65625 8.015625 75.875  z "
                 id="DejaVuSans-41" />
            </defs>
            <use
               transform="translate(0 0.125)"
               xlink:href="#DejaVuSans-Oblique-961"
               id="use323" />
            <use
               transform="translate(63.476562 -16.28125)scale(0.7)"
               xlink:href="#DejaVuSans-Oblique-115"
               id="use325" />
            <use
               transform="translate(99.946289 -16.28125)scale(0.7)"
               xlink:href="#DejaVuSans-Oblique-111"
               id="use327" />
            <use
               transform="translate(142.773438 -16.28125)scale(0.7)"
               xlink:href="#DejaVuSans-Oblique-108"
               id="use329" />
            <use
               transform="translate(162.22168 -16.28125)scale(0.7)"
               xlink:href="#DejaVuSans-Oblique-97"
               id="use331" />
            <use
               transform="translate(205.117188 -16.28125)scale(0.7)"
               xlink:href="#DejaVuSans-Oblique-114"
               id="use333" />
            <use
               transform="translate(236.630859 0.125)"
               xlink:href="#DejaVuSans-40"
               id="use335" />
            <use
               transform="translate(275.644531 0.125)"
               xlink:href="#DejaVuSans-Oblique-69"
               id="use337" />
            <use
               transform="translate(338.828125 -16.28125)scale(0.7)"
               xlink:href="#DejaVuSans-Oblique-957"
               id="use339" />
            <use
               transform="translate(380.664062 0.125)"
               xlink:href="#DejaVuSans-41"
               id="use341" />
          </g>
        </g>
      </g>
      <g
         id="LineCollection_1">
        <path
           clip-path="url(#p2e81895377)"
           d="M 210.176942 424.34125  L 210.176942 134.209464  "
           style="fill:none;stroke:#0000ff;stroke-width:1.5;"
           id="path347" />
      </g>
      <g
         id="LineCollection_2">
        <path
           clip-path="url(#p2e81895377)"
           d="M 109.500434 424.34125  L 109.500434 116.206496  "
           style="fill:none;stroke:#000000;stroke-width:1.5;"
           id="path350" />
      </g>
      <g
         id="LineCollection_3">
        <path
           clip-path="url(#p2e81895377)"
           d="M 154.985661 424.34125  L 154.985661 85.179428  "
           style="fill:none;stroke:#000000;stroke-width:1.5;"
           id="path353" />
      </g>
      <g
         id="line2d_19">
        <path
           clip-path="url(#p2e81895377)"
           d="M 73.054378 424.34125  L 73.150315 141.873977  L 73.626102 117.68771  L 74.101889 103.46783  L 74.672833 92.367041  L 75.434092 82.310048  L 76.100194 75.744736  L 77.051767 68.587464  L 78.098499 62.527323  L 79.335544 56.890467  L 80.477433 52.680848  L 81.809636 48.616058  L 83.236997 45.005584  L 84.664358 41.975924  L 86.186876 39.242521  L 87.804551 36.786698  L 89.517384 34.600352  L 91.230217 32.769215  L 93.038207 31.171016  L 94.75104 29.938604  L 96.55903 28.909794  L 98.36702 28.149913  L 100.175011 27.662505  L 101.602371 27.477463  L 102.934575 27.479645  L 104.266778 27.67267  L 105.598981 28.092581  L 106.931185 28.807983  L 107.882758 29.554634  L 108.739175 30.45971  L 109.500434 31.50989  L 110.35685 33.109092  L 111.118109 35.170176  L 111.689054 37.377301  L 112.069683 39.485562  L 112.450313 42.570563  L 112.735785 45.990823  L 112.9261 52.07618  L 113.116414 64.736331  L 113.211572 82.443571  L 113.212548 424.34125  L 113.212548 424.34125  "
           style="fill:none;stroke:#ee82ee;stroke-linecap:square;stroke-width:1.5;"
           id="path356" />
      </g>
      <g
         id="line2d_20">
        <path
           clip-path="url(#p2e81895377)"
           d="M 73.05506 424.34125  L 73.150315 380.545668  L 73.435787 367.41003  L 73.816416 358.983717  L 74.387361 351.660691  L 74.958305 345.562016  L 75.434092 338.440843  L 76.005036 332.919894  L 77.242082 324.037231  L 78.003341 319.503202  L 79.621017 311.899901  L 80.858063 307.340964  L 81.904794 303.879418  L 83.903099 298.399789  L 85.996561 293.686828  L 88.660968 288.697676  L 90.373801 285.96221  L 92.086633 283.505041  L 93.894624 281.157907  L 95.797771 278.915812  L 97.891234 276.683773  L 100.175011 274.496288  L 102.649103 272.405525  L 108.834332 267.683096  L 112.9261 264.863141  L 116.637237 262.543499  L 121.585421 259.746546  L 127.199706 256.907075  L 132.338205 254.558835  L 137.857333 252.258242  L 143.471618 250.127547  L 149.561691 248.013963  L 156.793652 245.733421  L 164.311085 243.581944  L 172.304305 241.496106  L 181.153941 239.39278  L 191.430938 237.179635  L 202.088564 235.107437  L 214.268709 232.973302  L 227.30527 230.919334  L 241.10309 228.964294  L 256.518586 227.006163  L 263.655389 226.039288  L 268.199154 224.095731  L 273.07597 222.247842  L 278.357204 220.480841  L 284.090436 218.796769  L 290.418402 217.176882  L 297.198366 215.680794  L 304.406537 214.322729  L 312.138074 213.096138  L 320.416766 212.012482  L 329.290192 211.084361  L 338.306354 210.361945  L 347.726934 209.822837  L 357.599512 209.477073  L 367.947877 209.340904  L 378.462768 209.429478  L 389.144184 209.749356  L 399.421181 210.275539  L 409.888493 211.037747  L 419.903807 211.989684  L 429.657438 213.139946  L 438.959072 214.459042  L 447.999023 215.969288  L 456.491819 217.616581  L 464.366092 219.365558  L 471.883525 221.261468  L 479.139276 223.329353  L 485.681346 225.423637  L 492.199626 227.760704  L 498.194541 230.167232  L 503.428197 232.501353  L 508.495327 235.003896  L 513.633826 237.826714  L 517.535278 240.183638  L 522.031465 243.179848  L 526.170811 246.242468  L 529.525108 248.983883  L 534.401924 253.424767  L 538.660217 257.831363  L 545.321233 265.849517  L 551.173412 274.17921  L 552.434248 276.187187  L 553.243085 277.433048  L 554.575289 279.576552  L 555.455494 281.04973  L 556.835276 283.318806  L 557.929586 285.217901  L 559.190421 287.403913  L 560.522625 289.737759  L 561.640724 291.823199  L 562.996717 294.217549  L 564.043448 296.284411  L 568.611002 305.140851  L 569.063 306.005183  L 570.347624 308.409216  L 577.579585 324.069628  L 578.48358 326.217451  L 579.482733 328.442382  L 582.48019 336.233516  L 582.813241 337.011973  L 584.121655 340.137077  L 585.953435 345.175123  L 586.619536 347.04502  L 587.690057 350.304463  L 588.760577 353.33253  L 591.472563 362.256906  L 592.233822 364.796329  L 593.708761 370.361056  L 594.136969 372.008654  L 594.517599 372.958383  L 595.20749 375.357679  L 595.469173 376.255822  L 596.182853 379.423871  L 597.110637 382.797255  L 597.919475 386.568177  L 598.633155 390.991407  L 598.799681 391.519159  L 599.18031 391.519159  L 599.822623 395.643273  L 600.131884 395.643273  L 600.797986 401.455886  L 601.559245 401.455886  L 601.939874 408.778911  L 602.130189 411.392612  L 604.413966 411.392612  L 604.675649 422.839752  L 604.696804 424.34125  L 604.696804 424.34125  "
           style="fill:none;stroke:#1f77b4;stroke-linecap:square;stroke-width:1.5;"
           id="path359" />
      </g>
      <g
         id="line2d_21">
        <path
           clip-path="url(#p2e81895377)"
           d="M 80.873765 424.34125  L 82.095108 420.366887  L 83.14184 417.234292  L 85.235302 411.964289  L 88.090023 405.999372  L 90.088328 402.486055  L 92.372105 398.95552  L 95.607456 394.582196  L 98.652493 391.017055  L 101.316899 388.239523  L 105.123194 384.69469  L 107.977916 382.293572  L 111.784211 379.398684  L 116.16145 376.408302  L 119.967746 374.047387  L 124.249828 371.617239  L 129.673798 368.822983  L 135.573556 366.083391  L 140.807212 363.866408  L 147.658543 361.218388  L 155.175976 358.592849  L 162.217622 356.352254  L 171.352731 353.708754  L 179.916895 351.456889  L 190.384207 348.953861  L 201.612778 346.523933  L 213.317135 344.224557  L 226.258539 341.916071  L 240.627303 339.594183  L 256.899215 337.218397  L 263.584021 336.188535  L 267.889893 334.022477  L 272.980812 331.714805  L 278.380994 329.519957  L 284.304541 327.363068  L 290.775242 325.258633  L 297.76931 323.232155  L 305.310532 321.29124  L 313.279963 319.474472  L 321.606233 317.79519  L 330.931657 316.143847  L 340.97076 314.598892  L 351.771123 313.17179  L 362.666643 311.948043  L 374.466158 310.83988  L 387.217247 309.870502  L 400.491701 309.089793  L 414.146785 308.511653  L 428.277656 308.140044  L 442.575053 307.989556  L 456.872449 308.062745  L 470.598901 308.344512  L 484.301564 308.839849  L 497.338125 309.518549  L 509.756163 310.3678  L 524.791029 311.687424  L 539.064636 313.272784  L 553.07656 315.195734  L 562.092722 316.662653  L 570.728254 318.258768  L 578.554948 319.895702  L 586.11996 321.671624  L 592.804766 323.437284  L 602.701133 326.431351  L 611.336666 329.526693  L 618.854099 332.689511  L 623.207549 334.773149  L 627.370684 336.979739  L 630.962875 339.087827  L 634.293383 341.240398  L 639.431882 345.022359  L 642.143867 347.311178  L 646.116688 351.140765  L 648.281518 353.543268  L 651.160029 357.220431  L 652.968019 359.889505  L 654.680852 362.755432  L 656.750525 366.896048  L 658.296833 370.783459  L 659.248406 373.766083  L 660.152401 377.204831  L 660.866082 380.780648  L 661.484605 385.279889  L 661.889024 389.760445  L 662.150706 394.675227  L 662.3886 407.39531  L 662.5034 424.34125  L 662.5034 424.34125  "
           style="fill:none;stroke:#ff7f0e;stroke-linecap:square;stroke-width:1.5;"
           id="path362" />
      </g>
      <g
         id="line2d_22">
        <path
           clip-path="url(#p2e81895377)"
           d="M 73.054697 424.34125  L 73.150315 254.12092  L 73.435787 240.985282  L 73.530944 238.348062  L 73.816416 225.31176  L 74.482518 209.993604  L 75.338934 197.674032  L 76.005036 190.727995  L 76.861453 183.850512  L 78.098499 176.22788  L 79.050072 171.51869  L 80.382276 166.12904  L 81.524164 162.25104  L 82.76121 158.624738  L 84.188571 155.01195  L 85.996561 151.102097  L 87.899709 147.586862  L 89.707699 144.689084  L 91.706004 141.882215  L 93.989781 139.079059  L 96.368715 136.529002  L 98.842807 134.204059  L 101.507214 132.006232  L 104.361935 129.944257  L 107.406971 128.026488  L 110.547165 126.30599  L 113.972831 124.684928  L 117.493654 123.260196  L 121.395106 121.932734  L 125.391716 120.8149  L 129.483484 119.902682  L 133.95588 119.153324  L 138.33312 118.65632  L 142.520045 118.394897  L 146.897284 118.347639  L 151.084209 118.525677  L 155.175976 118.928056  L 159.077429 119.54708  L 162.693409 120.358377  L 165.92876 121.318604  L 168.878639 122.43083  L 171.447888 123.642869  L 173.636508 124.898717  L 175.634813 126.287109  L 177.442803 127.818017  L 179.060478 129.495539  L 180.487839 131.333799  L 181.629728 133.167137  L 182.676459 135.278821  L 183.628033 137.745192  L 184.484449 140.793043  L 185.055393 143.57209  L 185.53118 146.741701  L 186.006967 151.419648  L 186.387597 157.737462  L 186.673069 165.686423  L 186.863384 175.623149  L 186.958541 185.559876  L 186.959225 424.34125  L 186.959225 424.34125  "
           style="fill:none;stroke:#2ca02c;stroke-linecap:square;stroke-width:1.5;"
           id="path365" />
      </g>
      <g
         id="line2d_23">
        <path
           clip-path="url(#p2e81895377)"
           d="M 73.054771 424.34125  L 73.150315 279.926858  L 73.816416 244.256911  L 74.482518 228.193936  L 75.243777 216.809033  L 76.005036 208.658131  L 76.861453 201.6885  L 77.908184 195.034805  L 78.954915 189.676516  L 80.096803 184.841357  L 81.524164 179.825143  L 82.856368 175.873407  L 84.283728 172.217824  L 85.996561 168.431924  L 87.804551 164.978599  L 89.612541 161.954101  L 91.706004 158.878184  L 93.894624 156.048135  L 96.368715 153.231018  L 98.842807 150.741687  L 101.602371 148.279713  L 104.55225 145.949973  L 107.692444 143.755041  L 111.118109 141.638824  L 114.73409 139.670248  L 118.635542 137.803153  L 122.822467 136.052167  L 127.294864 134.430022  L 131.957575 132.974659  L 136.905759 131.660676  L 142.139415 130.499598  L 147.658543 129.504154  L 153.367986 128.700232  L 159.267743 128.093844  L 165.262658 127.700066  L 171.447888 127.523413  L 177.442803 127.575086  L 183.342561 127.847777  L 189.052003 128.334747  L 194.380817 129.006173  L 199.70963 129.916949  L 204.752971 131.035732  L 208.749581 132.135682  L 212.841348 133.50775  L 216.076699 134.808539  L 219.502365 136.462162  L 221.976457 137.88902  L 224.260234 139.433264  L 226.544011 141.289417  L 228.256844 142.962176  L 229.779362 144.72973  L 231.016408 146.459572  L 232.348611 148.748162  L 233.300185 150.794331  L 234.156601 153.098649  L 234.91786 155.752812  L 235.583962 158.833293  L 236.154906 162.548935  L 236.630693 167.239291  L 237.011323 173.158465  L 237.296795 181.176389  L 237.582267 196.29362  L 237.677424 206.230347  L 237.678049 424.34125  L 237.678049 424.34125  "
           style="fill:none;stroke:#d62728;stroke-linecap:square;stroke-width:1.5;"
           id="path368" />
      </g>
      <g
         id="line2d_24">
        <path
           clip-path="url(#p2e81895377)"
           d="M 73.054923 424.34125  L 73.150315 332.840713  L 73.816416 297.227413  L 74.482518 281.168019  L 75.243777 269.779795  L 76.005036 261.639831  L 76.861453 254.663214  L 77.908184 248.009664  L 78.954915 242.655818  L 80.096803 237.817083  L 81.524164 232.798809  L 82.951525 228.585965  L 84.474043 224.741739  L 86.186876 221.018518  L 87.994866 217.612827  L 89.993171 214.334953  L 92.086633 211.328888  L 94.37041 208.446071  L 96.844502 205.696172  L 99.413752 203.172039  L 102.173316 200.769624  L 105.123194 198.492667  L 108.358545 196.282056  L 111.784211 194.214327  L 115.495349 192.240654  L 119.396801 190.417999  L 123.583726 188.707182  L 128.056123 187.121146  L 132.813992 185.671095  L 137.762176 184.390586  L 142.995832 183.260362  L 148.51496 182.293349  L 154.224402 181.51539  L 160.12416 180.933309  L 166.214232 180.558185  L 172.11399 180.408746  L 178.108905 180.473966  L 184.10382 180.765814  L 189.622948 181.248342  L 195.33239 181.986117  L 200.185417 182.82895  L 204.752971 183.834276  L 209.035053 184.997272  L 212.841348 186.2543  L 216.742801 187.818121  L 219.69268 189.240198  L 222.357086 190.755499  L 224.640863 192.29655  L 226.734326 193.963581  L 228.542316 195.679741  L 230.064834 197.406404  L 231.397037 199.216798  L 232.634083 201.248551  L 233.871129 203.826945  L 234.727546 206.128094  L 235.488805 208.709433  L 236.154906 211.724061  L 236.725851 215.24447  L 237.201638 219.401254  L 237.582267 224.451178  L 237.962897 233.41586  L 238.248369 247.00656  L 238.438683 262.755899  L 238.439147 424.34125  L 238.439147 424.34125  "
           style="fill:none;stroke:#9467bd;stroke-linecap:square;stroke-width:1.5;"
           id="path371" />
      </g>
      <g
         id="line2d_25">
        <path
           clip-path="url(#p2e81895377)"
           d="M 135.954185 370.3  L 135.954185 7.2  "
           style="fill:none;stroke:#000000;stroke-dasharray:5.55,2.4;stroke-dashoffset:0;stroke-width:1.5;"
           id="path374" />
      </g>
      <g
         id="line2d_26">
        <path
           clip-path="url(#p2e81895377)"
           d="M 388.073663 370.3  L 388.073663 7.2  "
           style="fill:none;stroke:#000000;stroke-dasharray:5.55,2.4;stroke-dashoffset:0;stroke-width:1.5;"
           id="path377" />
      </g>
      <g
         id="patch_3">
        <path
           d="M 72.96 370.3  L 72.96 7.2  "
           style="fill:none;stroke:#000000;stroke-linecap:square;stroke-linejoin:miter;stroke-width:0.8;"
           id="path380" />
      </g>
      <g
         id="patch_4">
        <path
           d="M 691.482969 370.3  L 691.482969 7.2  "
           style="fill:none;stroke:#000000;stroke-linecap:square;stroke-linejoin:miter;stroke-width:0.8;"
           id="path383" />
      </g>
      <g
         id="patch_5">
        <path
           d="M 72.96 370.3  L 691.482969 370.3  "
           style="fill:none;stroke:#000000;stroke-linecap:square;stroke-linejoin:miter;stroke-width:0.8;"
           id="path386" />
      </g>
      <g
         id="patch_6">
        <path
           d="M 72.96 7.2  L 691.482969 7.2  "
           style="fill:none;stroke:#000000;stroke-linecap:square;stroke-linejoin:miter;stroke-width:0.8;"
           id="path389" />
      </g>
      <g
         id="text_21">
        <!-- $Q_{\beta}=0.662$ MeV -->
        <g
           transform="translate(140.712054 40.209091)scale(0.2 -0.2)"
           id="g422">
          <defs
             id="defs396">
            <path
               d="M 36.078125 -1.3125  Q 35.546875 -1.375 34.953125 -1.390625  Q 34.375 -1.421875 33.203125 -1.421875  Q 19.53125 -1.421875 11.8125 6.421875  Q 4.109375 14.265625 4.109375 28.078125  Q 4.109375 36.234375 7.0625 44.4375  Q 10.015625 52.640625 15.28125 59.1875  Q 21.390625 66.703125 29.03125 70.453125  Q 36.671875 74.21875 45.90625 74.21875  Q 59.28125 74.21875 66.984375 66.328125  Q 74.703125 58.453125 74.703125 44.828125  Q 74.703125 30.125 66.640625 17.921875  Q 58.59375 5.71875 45.609375 0.6875  L 55.515625 -12.890625  L 44.484375 -12.890625  z M 45.609375 66.21875  Q 37.5 66.21875 31.296875 62.28125  Q 25.09375 58.34375 20.515625 50.296875  Q 17.578125 45.171875 16.03125 39.40625  Q 14.5 33.640625 14.5 27.78125  Q 14.5 17.625 19.359375 12.109375  Q 24.21875 6.59375 33.109375 6.59375  Q 41.109375 6.59375 47.375 10.5625  Q 53.65625 14.546875 58.109375 22.40625  Q 61.078125 27.6875 62.640625 33.46875  Q 64.203125 39.265625 64.203125 45.015625  Q 64.203125 55.125 59.3125 60.671875  Q 54.4375 66.21875 45.609375 66.21875  z "
               id="DejaVuSans-Oblique-81" />
            <path
               d="M 13.625 3.375  L 8.9375 -20.796875  L -0.09375 -20.796875  L 14.5 54.34375  Q 18.84375 76.609375 39.65625 76.609375  Q 60.75 76.609375 57.171875 57.8125  Q 54.734375 44.4375 45.21875 39.546875  Q 58.015625 35.15625 55.515625 22.125  Q 51.125 -1.078125 27.484375 -1.03125  Q 17.140625 -0.984375 13.625 3.375  z M 15.921875 15.09375  Q 19.671875 6.59375 29.296875 6.640625  Q 43.359375 6.640625 46.34375 21.96875  Q 49.03125 35.75 26.171875 34.671875  L 27.78125 42.96875  Q 45.453125 42.671875 48.53125 58.59375  Q 50.640625 69.34375 39.203125 69.28125  Q 26.421875 69.28125 23.484375 54.046875  z "
               id="DejaVuSans-Oblique-946" />
            <path
               d="M 10.59375 45.40625  L 73.1875 45.40625  L 73.1875 37.203125  L 10.59375 37.203125  z M 10.59375 25.484375  L 73.1875 25.484375  L 73.1875 17.1875  L 10.59375 17.1875  z "
               id="DejaVuSans-61" />
            <path
               d="M 10.6875 12.40625  L 21 12.40625  L 21 0  L 10.6875 0  z "
               id="DejaVuSans-46" />
          </defs>
          <use
             transform="translate(0 0.78125)"
             xlink:href="#DejaVuSans-Oblique-81"
             id="use398" />
          <use
             transform="translate(78.710938 -15.625)scale(0.7)"
             xlink:href="#DejaVuSans-Oblique-946"
             id="use400" />
          <use
             transform="translate(145.600586 0.78125)"
             xlink:href="#DejaVuSans-61"
             id="use402" />
          <use
             transform="translate(248.87207 0.78125)"
             xlink:href="#DejaVuSans-48"
             id="use404" />
          <use
             transform="translate(312.495117 0.78125)"
             xlink:href="#DejaVuSans-46"
             id="use406" />
          <use
             transform="translate(344.282227 0.78125)"
             xlink:href="#DejaVuSans-54"
             id="use408" />
          <use
             transform="translate(407.905273 0.78125)"
             xlink:href="#DejaVuSans-54"
             id="use410" />
          <use
             transform="translate(471.52832 0.78125)"
             xlink:href="#DejaVuSans-50"
             id="use412" />
          <use
             transform="translate(535.151367 0.78125)"
             xlink:href="#DejaVuSans-32"
             id="use414" />
          <use
             transform="translate(566.938477 0.78125)"
             xlink:href="#DejaVuSans-77"
             id="use416" />
          <use
             transform="translate(653.217773 0.78125)"
             xlink:href="#DejaVuSans-101"
             id="use418" />
          <use
             transform="translate(714.741211 0.78125)"
             xlink:href="#DejaVuSans-86"
             id="use420" />
        </g>
      </g>
      <g
         id="text_22">
        <!-- $S_n = 7.246$ MeV -->
        <g
           transform="translate(389.26313 40.209091)scale(0.2 -0.2)"
           id="g453">
          <defs
             id="defs427">
            <path
               d="M 60.296875 70.515625  L 58.40625 60.890625  Q 53.46875 63.53125 48.609375 64.875  Q 43.75 66.21875 39.203125 66.21875  Q 30.375 66.21875 25.140625 62.359375  Q 19.921875 58.5 19.921875 52.09375  Q 19.921875 48.578125 21.84375 46.703125  Q 23.78125 44.828125 31.78125 42.671875  L 37.703125 41.21875  Q 47.703125 38.625 51.609375 34.640625  Q 55.515625 30.671875 55.515625 23.484375  Q 55.515625 12.453125 46.84375 5.515625  Q 38.1875 -1.421875 24.03125 -1.421875  Q 18.21875 -1.421875 12.359375 -0.265625  Q 6.5 0.875 0.59375 3.21875  L 2.59375 13.375  Q 8.015625 10.015625 13.453125 8.296875  Q 18.890625 6.59375 24.3125 6.59375  Q 33.546875 6.59375 39.109375 10.6875  Q 44.671875 14.796875 44.671875 21.390625  Q 44.671875 25.78125 42.453125 28.046875  Q 40.234375 30.328125 32.90625 32.171875  L 27 33.6875  Q 16.890625 36.328125 13.203125 39.765625  Q 9.515625 43.21875 9.515625 49.421875  Q 9.515625 60.296875 17.890625 67.25  Q 26.265625 74.21875 39.703125 74.21875  Q 44.921875 74.21875 50.046875 73.28125  Q 55.171875 72.359375 60.296875 70.515625  z "
               id="DejaVuSans-Oblique-83" />
            <path
               d="M 55.71875 33.015625  L 49.3125 0  L 40.28125 0  L 46.6875 32.671875  Q 47.125 34.96875 47.359375 36.71875  Q 47.609375 38.484375 47.609375 39.5  Q 47.609375 43.609375 45.015625 45.890625  Q 42.4375 48.1875 37.796875 48.1875  Q 30.5625 48.1875 25.34375 43.375  Q 20.125 38.578125 18.5 30.328125  L 12.5 0  L 3.515625 0  L 14.109375 54.6875  L 23.09375 54.6875  L 21.296875 46.09375  Q 25.046875 50.828125 30.3125 53.40625  Q 35.59375 56 41.40625 56  Q 48.640625 56 52.609375 52.09375  Q 56.59375 48.1875 56.59375 41.109375  Q 56.59375 39.359375 56.375 37.359375  Q 56.15625 35.359375 55.71875 33.015625  z "
               id="DejaVuSans-Oblique-110" />
          </defs>
          <use
             transform="translate(0 0.78125)"
             xlink:href="#DejaVuSans-Oblique-83"
             id="use429" />
          <use
             transform="translate(63.476562 -15.625)scale(0.7)"
             xlink:href="#DejaVuSans-Oblique-110"
             id="use431" />
          <use
             transform="translate(130.058594 0.78125)"
             xlink:href="#DejaVuSans-61"
             id="use433" />
          <use
             transform="translate(233.330078 0.78125)"
             xlink:href="#DejaVuSans-55"
             id="use435" />
          <use
             transform="translate(296.953125 0.78125)"
             xlink:href="#DejaVuSans-46"
             id="use437" />
          <use
             transform="translate(323.240234 0.78125)"
             xlink:href="#DejaVuSans-50"
             id="use439" />
          <use
             transform="translate(386.863281 0.78125)"
             xlink:href="#DejaVuSans-52"
             id="use441" />
          <use
             transform="translate(450.486328 0.78125)"
             xlink:href="#DejaVuSans-54"
             id="use443" />
          <use
             transform="translate(514.109375 0.78125)"
             xlink:href="#DejaVuSans-32"
             id="use445" />
          <use
             transform="translate(545.896484 0.78125)"
             xlink:href="#DejaVuSans-77"
             id="use447" />
          <use
             transform="translate(632.175781 0.78125)"
             xlink:href="#DejaVuSans-101"
             id="use449" />
          <use
             transform="translate(693.699219 0.78125)"
             xlink:href="#DejaVuSans-86"
             id="use451" />
        </g>
      </g>
      <g
         id="legend_1">
        <g
           id="patch_7">
          <path
             d="M 598.842969 207.98  L 680.282969 207.98  Q 683.482969 207.98 683.482969 204.78  L 683.482969 18.4  Q 683.482969 15.2 680.282969 15.2  L 598.842969 15.2  Q 595.642969 15.2 595.642969 18.4  L 595.642969 204.78  Q 595.642969 207.98 598.842969 207.98  z "
             style="fill:#ffffff;opacity:0.8;stroke:#cccccc;stroke-linejoin:miter;"
             id="path456" />
        </g>
        <g
           id="line2d_27">
          <path
             d="M 602.042969 28.1575  L 634.042969 28.1575  "
             style="fill:none;stroke:#ee82ee;stroke-linecap:square;stroke-width:1.5;"
             id="path459" />
        </g>
        <g
           id="line2d_28" />
        <g
           id="text_23">
          <!-- $pp$ -->
          <g
             transform="translate(646.842969 33.7575)scale(0.16 -0.16)"
             id="g470">
            <defs
               id="defs464">
              <path
                 d="M 49.609375 33.6875  Q 49.609375 40.875 46.484375 44.671875  Q 43.359375 48.484375 37.5 48.484375  Q 33.5 48.484375 29.859375 46.4375  Q 26.21875 44.390625 23.390625 40.484375  Q 20.609375 36.625 18.9375 31.15625  Q 17.28125 25.6875 17.28125 20.3125  Q 17.28125 13.484375 20.40625 9.796875  Q 23.53125 6.109375 29.296875 6.109375  Q 33.546875 6.109375 37.1875 8.109375  Q 40.828125 10.109375 43.40625 13.921875  Q 46.1875 17.921875 47.890625 23.34375  Q 49.609375 28.765625 49.609375 33.6875  z M 21.78125 46.390625  Q 25.390625 51.125 30.296875 53.5625  Q 35.203125 56 41.21875 56  Q 49.609375 56 54.25 50.5  Q 58.890625 45.015625 58.890625 35.109375  Q 58.890625 27 56 19.65625  Q 53.125 12.3125 47.703125 6.5  Q 44.09375 2.640625 39.546875 0.609375  Q 35.015625 -1.421875 29.984375 -1.421875  Q 24.171875 -1.421875 20.21875 1  Q 16.265625 3.421875 14.3125 8.203125  L 8.6875 -20.796875  L -0.296875 -20.796875  L 14.40625 54.6875  L 23.390625 54.6875  z "
                 id="DejaVuSans-Oblique-112" />
            </defs>
            <use
               xlink:href="#DejaVuSans-Oblique-112"
               id="use466" />
            <use
               transform="translate(63.476562 0)"
               xlink:href="#DejaVuSans-Oblique-112"
               id="use468" />
          </g>
        </g>
        <g
           id="line2d_29">
          <path
             d="M 602.042969 51.675  L 634.042969 51.675  "
             style="fill:none;stroke:#1f77b4;stroke-linecap:square;stroke-width:1.5;"
             id="path473" />
        </g>
        <g
           id="line2d_30" />
        <g
           id="text_24">
          <!-- $^8$B -->
          <g
             transform="translate(646.842969 57.275)scale(0.16 -0.16)"
             id="g484">
            <defs
               id="defs478">
              <path
                 d="M 19.671875 34.8125  L 19.671875 8.109375  L 35.5 8.109375  Q 43.453125 8.109375 47.28125 11.40625  Q 51.125 14.703125 51.125 21.484375  Q 51.125 28.328125 47.28125 31.5625  Q 43.453125 34.8125 35.5 34.8125  z M 19.671875 64.796875  L 19.671875 42.828125  L 34.28125 42.828125  Q 41.5 42.828125 45.03125 45.53125  Q 48.578125 48.25 48.578125 53.8125  Q 48.578125 59.328125 45.03125 62.0625  Q 41.5 64.796875 34.28125 64.796875  z M 9.8125 72.90625  L 35.015625 72.90625  Q 46.296875 72.90625 52.390625 68.21875  Q 58.5 63.53125 58.5 54.890625  Q 58.5 48.1875 55.375 44.234375  Q 52.25 40.28125 46.1875 39.3125  Q 53.46875 37.75 57.5 32.78125  Q 61.53125 27.828125 61.53125 20.40625  Q 61.53125 10.640625 54.890625 5.3125  Q 48.25 0 35.984375 0  L 9.8125 0  z "
                 id="DejaVuSans-66" />
            </defs>
            <use
               transform="translate(0.957031 39.046875)scale(0.7)"
               xlink:href="#DejaVuSans-56"
               id="use480" />
            <use
               transform="translate(48.227539 0.765625)"
               xlink:href="#DejaVuSans-66"
               id="use482" />
          </g>
        </g>
        <g
           id="line2d_31">
          <path
             d="M 602.042969 75.1625  L 634.042969 75.1625  "
             style="fill:none;stroke:#ff7f0e;stroke-linecap:square;stroke-width:1.5;"
             id="path487" />
        </g>
        <g
           id="line2d_32" />
        <g
           id="text_25">
          <!-- $hep$ -->
          <g
             transform="translate(646.842969 80.7625)scale(0.16 -0.16)"
             id="g501">
            <defs
               id="defs493">
              <path
                 d="M 55.71875 33.015625  L 49.3125 0  L 40.28125 0  L 46.6875 32.671875  Q 47.125 34.96875 47.359375 36.71875  Q 47.609375 38.484375 47.609375 39.5  Q 47.609375 43.609375 45.015625 45.890625  Q 42.4375 48.1875 37.796875 48.1875  Q 30.5625 48.1875 25.265625 43.296875  Q 19.96875 38.421875 18.40625 30.328125  L 12.5 0  L 3.515625 0  L 18.3125 75.984375  L 27.296875 75.984375  L 21.484375 46.09375  Q 24.90625 50.6875 30.21875 53.34375  Q 35.546875 56 41.40625 56  Q 48.640625 56 52.609375 52.09375  Q 56.59375 48.1875 56.59375 41.109375  Q 56.59375 39.359375 56.375 37.359375  Q 56.15625 35.359375 55.71875 33.015625  z "
                 id="DejaVuSans-Oblique-104" />
              <path
                 d="M 48.09375 32.234375  Q 48.25 33.015625 48.3125 33.84375  Q 48.390625 34.671875 48.390625 35.5  Q 48.390625 41.453125 44.890625 44.921875  Q 41.40625 48.390625 35.40625 48.390625  Q 28.71875 48.390625 23.578125 44.15625  Q 18.453125 39.9375 15.828125 32.171875  z M 55.90625 25.203125  L 14.109375 25.203125  Q 13.8125 23.34375 13.71875 22.265625  Q 13.625 21.1875 13.625 20.40625  Q 13.625 13.625 17.796875 9.90625  Q 21.96875 6.203125 29.59375 6.203125  Q 35.453125 6.203125 40.671875 7.515625  Q 45.90625 8.84375 50.390625 11.375  L 48.6875 2.484375  Q 43.84375 0.53125 38.6875 -0.4375  Q 33.546875 -1.421875 28.21875 -1.421875  Q 16.84375 -1.421875 10.71875 4.015625  Q 4.59375 9.46875 4.59375 19.484375  Q 4.59375 28.03125 7.640625 35.375  Q 10.6875 42.71875 16.609375 48.484375  Q 20.40625 52.09375 25.65625 54.046875  Q 30.90625 56 36.8125 56  Q 46.09375 56 51.578125 50.4375  Q 57.078125 44.875 57.078125 35.5  Q 57.078125 33.25 56.78125 30.6875  Q 56.5 28.125 55.90625 25.203125  z "
                 id="DejaVuSans-Oblique-101" />
            </defs>
            <use
               transform="translate(0 0.015625)"
               xlink:href="#DejaVuSans-Oblique-104"
               id="use495" />
            <use
               transform="translate(63.378906 0.015625)"
               xlink:href="#DejaVuSans-Oblique-101"
               id="use497" />
            <use
               transform="translate(124.902344 0.015625)"
               xlink:href="#DejaVuSans-Oblique-112"
               id="use499" />
          </g>
        </g>
        <g
           id="line2d_33">
          <path
             d="M 602.042969 98.68  L 634.042969 98.68  "
             style="fill:none;stroke:#2ca02c;stroke-linecap:square;stroke-width:1.5;"
             id="path504" />
        </g>
        <g
           id="line2d_34" />
        <g
           id="text_26">
          <!-- $^{13}$N -->
          <g
             transform="translate(646.842969 104.28)scale(0.16 -0.16)"
             id="g517">
            <defs
               id="defs509">
              <path
                 d="M 9.8125 72.90625  L 23.09375 72.90625  L 55.421875 11.921875  L 55.421875 72.90625  L 64.984375 72.90625  L 64.984375 0  L 51.703125 0  L 19.390625 60.984375  L 19.390625 0  L 9.8125 0  z "
                 id="DejaVuSans-78" />
            </defs>
            <use
               transform="translate(0.957031 39.046875)scale(0.7)"
               xlink:href="#DejaVuSans-49"
               id="use511" />
            <use
               transform="translate(45.493164 39.046875)scale(0.7)"
               xlink:href="#DejaVuSans-51"
               id="use513" />
            <use
               transform="translate(92.763672 0.765625)"
               xlink:href="#DejaVuSans-78"
               id="use515" />
          </g>
        </g>
        <g
           id="line2d_35">
          <path
             d="M 602.042969 122.165  L 634.042969 122.165  "
             style="fill:none;stroke:#d62728;stroke-linecap:square;stroke-width:1.5;"
             id="path520" />
        </g>
        <g
           id="line2d_36" />
        <g
           id="text_27">
          <!-- $^{15}$O -->
          <g
             transform="translate(646.842969 127.765)scale(0.16 -0.16)"
             id="g533">
            <defs
               id="defs525">
              <path
                 d="M 39.40625 66.21875  Q 28.65625 66.21875 22.328125 58.203125  Q 16.015625 50.203125 16.015625 36.375  Q 16.015625 22.609375 22.328125 14.59375  Q 28.65625 6.59375 39.40625 6.59375  Q 50.140625 6.59375 56.421875 14.59375  Q 62.703125 22.609375 62.703125 36.375  Q 62.703125 50.203125 56.421875 58.203125  Q 50.140625 66.21875 39.40625 66.21875  z M 39.40625 74.21875  Q 54.734375 74.21875 63.90625 63.9375  Q 73.09375 53.65625 73.09375 36.375  Q 73.09375 19.140625 63.90625 8.859375  Q 54.734375 -1.421875 39.40625 -1.421875  Q 24.03125 -1.421875 14.8125 8.828125  Q 5.609375 19.09375 5.609375 36.375  Q 5.609375 53.65625 14.8125 63.9375  Q 24.03125 74.21875 39.40625 74.21875  z "
                 id="DejaVuSans-79" />
            </defs>
            <use
               transform="translate(0.957031 38.965625)scale(0.7)"
               xlink:href="#DejaVuSans-49"
               id="use527" />
            <use
               transform="translate(45.493164 38.965625)scale(0.7)"
               xlink:href="#DejaVuSans-53"
               id="use529" />
            <use
               transform="translate(92.763672 0.684375)"
               xlink:href="#DejaVuSans-79"
               id="use531" />
          </g>
        </g>
        <g
           id="line2d_37">
          <path
             d="M 602.042969 145.65  L 634.042969 145.65  "
             style="fill:none;stroke:#9467bd;stroke-linecap:square;stroke-width:1.5;"
             id="path536" />
        </g>
        <g
           id="line2d_38" />
        <g
           id="text_28">
          <!-- $^{17}$F -->
          <g
             transform="translate(646.842969 151.25)scale(0.16 -0.16)"
             id="g549">
            <defs
               id="defs541">
              <path
                 d="M 9.8125 72.90625  L 51.703125 72.90625  L 51.703125 64.59375  L 19.671875 64.59375  L 19.671875 43.109375  L 48.578125 43.109375  L 48.578125 34.8125  L 19.671875 34.8125  L 19.671875 0  L 9.8125 0  z "
                 id="DejaVuSans-70" />
            </defs>
            <use
               transform="translate(0.957031 38.965625)scale(0.7)"
               xlink:href="#DejaVuSans-49"
               id="use543" />
            <use
               transform="translate(45.493164 38.965625)scale(0.7)"
               xlink:href="#DejaVuSans-55"
               id="use545" />
            <use
               transform="translate(92.763672 0.684375)"
               xlink:href="#DejaVuSans-70"
               id="use547" />
          </g>
        </g>
        <g
           id="line2d_39">
          <path
             d="M 602.042969 169.135  L 634.042969 169.135  "
             style="fill:none;stroke:#0000ff;stroke-width:1.5;"
             id="path552" />
        </g>
        <g
           id="text_29">
          <!-- $pep$ -->
          <g
             transform="translate(646.842969 174.735)scale(0.16 -0.16)"
             id="g561">
            <use
               xlink:href="#DejaVuSans-Oblique-112"
               id="use555" />
            <use
               transform="translate(63.476562 0)"
               xlink:href="#DejaVuSans-Oblique-101"
               id="use557" />
            <use
               transform="translate(125 0)"
               xlink:href="#DejaVuSans-Oblique-112"
               id="use559" />
          </g>
        </g>
        <g
           id="line2d_40">
          <path
             d="M 602.042969 192.6525  L 634.042969 192.6525  "
             style="fill:none;stroke:#000000;stroke-width:1.5;"
             id="path564" />
        </g>
        <g
           id="text_30">
          <!-- $^7$Be -->
          <g
             transform="translate(646.842969 198.2525)scale(0.16 -0.16)"
             id="g573">
            <use
               transform="translate(0.957031 38.965625)scale(0.7)"
               xlink:href="#DejaVuSans-55"
               id="use567" />
            <use
               transform="translate(48.227539 0.684375)"
               xlink:href="#DejaVuSans-66"
               id="use569" />
            <use
               transform="translate(116.831055 0.684375)"
               xlink:href="#DejaVuSans-101"
               id="use571" />
          </g>
        </g>
      </g>
    </g>
  </g>
  <defs
     id="defs582">
    <clipPath
       id="p2e81895377">
      <rect
         height="363.1"
         width="618.522969"
         x="72.96"
         y="7.2"
         id="rect579" />
    </clipPath>
  </defs>
  <path
     style="fill:none;stroke:#000000;stroke-width:1.3499999;stroke-linecap:butt;stroke-linejoin:miter;stroke-miterlimit:4;stroke-dasharray:none;stroke-opacity:1;marker-start:url(#Arrow1Mstart)"
     d="m 135.93435,372.33559 v 24.97577"
     id="path4742"
     inkscape:connector-curvature="0"
     sodipodi:nodetypes="cc" />
  <g
     transform="translate(-0.01984144,2.0355759)"
     aria-label="Q"
     style="font-style:normal;font-weight:normal;font-size:20px;line-height:1.25;font-family:sans-serif;letter-spacing:0px;word-spacing:0px;fill:#000000;fill-opacity:1;stroke:none;stroke-width:0.75;stroke-linecap:butt;stroke-linejoin:round"
     id="text9916">
    <path
       inkscape:connector-curvature="0"
       d="m 144.47504,398.28543 q -2.14844,0 -3.73047,1.60156 -1.58203,1.60157 -2.13867,4.36524 -0.54688,2.7539 0.39062,4.35547 0.94727,1.60156 3.0957,1.60156 2.14844,0 3.72071,-1.60156 1.58203,-1.60157 2.1289,-4.35547 0.55664,-2.76367 -0.38086,-4.36524 -0.9375,-1.60156 -3.08593,-1.60156 z m 0.16601,12.97852 2.03125,2.84179 h -2.38281 l -1.68945,-2.33398 q -0.32227,0.0195 -0.49805,0.0293 -0.17578,0.01 -0.33203,0.01 -3.07617,0 -4.51172,-2.05078 -1.42578,-2.06055 -0.73242,-5.50781 0.69336,-3.45703 2.93945,-5.50781 2.25586,-2.06055 5.33203,-2.06055 3.06641,0 4.49219,2.06055 1.42578,2.05078 0.73242,5.50781 -0.50781,2.53906 -1.89453,4.3457 -1.37695,1.80664 -3.48633,2.66602 z"
       style="font-style:italic;font-variant:normal;font-weight:normal;font-stretch:normal;font-family:sans-serif;-inkscape-font-specification:'sans-serif Italic';stroke-width:0.75;stroke-linecap:butt;stroke-linejoin:round"
       id="path441" />
    <path
       inkscape:connector-curvature="0"
       d="m 152.17181,415.08963 -0.62841,3.14209 h -1.17432 l 1.95508,-9.76904 q 0.57763,-2.89453 3.28174,-2.89453 2.75488,0 2.26611,2.44384 -0.34912,1.73926 -1.56787,2.37403 1.66308,0.57129 1.32666,2.26611 -0.60303,3.00879 -3.6626,3.00879 -1.3457,0 -1.79639,-0.57129 z m 0.30469,-1.52344 q 0.48242,1.09815 1.73291,1.09815 1.82813,0 2.22803,-1.99317 0.35547,-1.79004 -2.61524,-1.65039 l 0.21582,-1.0791 q 2.3042,0 2.71045,-2.03125 0.2793,-1.39014 -1.20605,-1.39014 -1.65674,0 -2.05664,1.98047 z"
       style="font-style:italic;font-variant:normal;font-weight:normal;font-stretch:normal;font-size:12.99999905px;font-family:sans-serif;-inkscape-font-specification:'sans-serif Italic';baseline-shift:sub;stroke-width:0.75;stroke-linecap:butt;stroke-linejoin:round"
       id="path443" />
  </g>
  <path
     style="fill:none;stroke:#000000;stroke-width:1.3499999;stroke-linecap:butt;stroke-linejoin:miter;stroke-miterlimit:4;stroke-dasharray:none;stroke-opacity:1;marker-start:url(#Arrow1Mstart-3)"
     d="m 387.86969,372.22712 v 24.97577"
     id="path4742-7"
     inkscape:connector-curvature="0"
     sodipodi:nodetypes="cc" />
  <g
     transform="translate(-0.2477757,0.63627403)"
     aria-label="Sn"
     style="font-style:normal;font-weight:normal;font-size:20px;line-height:1.25;font-family:sans-serif;letter-spacing:0px;word-spacing:0px;fill:#000000;fill-opacity:1;stroke:none;stroke-width:0.75;stroke-linecap:butt;stroke-linejoin:round"
     id="text9916-5">
    <path
       inkscape:connector-curvature="0"
       d="m 399.63635,398.71689 -0.39062,1.92383 q -1.01563,-0.53711 -1.96289,-0.80078 -0.9375,-0.26368 -1.86524,-0.26368 -1.61133,0 -2.60742,0.625 -0.99609,0.625 -1.23047,1.77735 -0.19531,0.96679 0.28321,1.46484 0.48828,0.48828 2.05078,0.79102 l 1.14257,0.24414 q 2.11915,0.41992 2.95899,1.48437 0.83984,1.05469 0.47851,2.83203 -0.41992,2.11914 -2.06054,3.21289 -1.64063,1.09375 -4.38477,1.09375 -1.03515,0 -2.1582,-0.23437 -1.11328,-0.23438 -2.27539,-0.69336 l 0.41015,-2.03125 q 1.06446,0.67383 2.14844,1.01562 1.08399,0.3418 2.19727,0.3418 1.68945,0 2.73437,-0.66406 1.05469,-0.66406 1.29883,-1.89453 0.21484,-1.07422 -0.32226,-1.67969 -0.53711,-0.60547 -1.98243,-0.9082 l -1.15234,-0.23438 q -2.11914,-0.43945 -2.91992,-1.37695 -0.79102,-0.9375 -0.45899,-2.60742 0.38086,-1.9336 1.96289,-3.04688 1.5918,-1.11328 3.98438,-1.11328 1.02539,0 2.05078,0.18555 1.02539,0.18554 2.07031,0.55664 z"
       style="font-style:italic;font-variant:normal;font-weight:normal;font-stretch:normal;font-family:sans-serif;-inkscape-font-specification:'sans-serif Italic';stroke-width:0.75;stroke-linecap:butt;stroke-linejoin:round"
       id="path436" />
    <path
       inkscape:connector-curvature="0"
       d="m 406.79797,412.52744 -0.85693,4.29101 h -1.16797 l 0.85059,-4.25293 q 0.20312,-1.00928 -0.0952,-1.51074 -0.29199,-0.50147 -1.0791,-0.50147 -0.9458,0 -1.6123,0.60303 -0.66651,0.60303 -0.86963,1.64404 l -0.80616,4.01807 h -1.17431 l 1.42187,-7.10937 h 1.17432 l -0.22217,1.10449 q 0.5459,-0.64112 1.17432,-0.9585 0.63476,-0.31738 1.37744,-0.31738 1.2251,0 1.70117,0.76172 0.48242,0.75537 0.18408,2.22803 z"
       style="font-style:italic;font-variant:normal;font-weight:normal;font-stretch:normal;font-size:64.99999762%;font-family:sans-serif;-inkscape-font-specification:'sans-serif Italic';baseline-shift:sub;stroke-linecap:butt;stroke-linejoin:round"
       id="path438" />
  </g>
  <text
     xml:space="preserve"
     style="font-style:normal;font-weight:normal;font-size:20px;line-height:1.25;font-family:sans-serif;letter-spacing:0px;word-spacing:0px;fill:#000000;fill-opacity:1;stroke:none;stroke-width:0.75;stroke-linecap:butt;stroke-linejoin:round"
     x="415.12183"
     y="300.91016"
     id="text635"><tspan
       sodipodi:role="line"
       id="tspan633"
       style="font-style:italic;font-variant:normal;font-weight:normal;font-stretch:normal;font-size:16px;font-family:sans-serif;-inkscape-font-specification:'sans-serif Italic';stroke-width:0.75;stroke-linecap:butt;stroke-linejoin:round"
       x="415.12183"
       y="300.91016">hep</tspan></text>
  <text
     xml:space="preserve"
     style="font-style:normal;font-weight:normal;font-size:20px;line-height:1.25;font-family:sans-serif;letter-spacing:0px;word-spacing:0px;fill:#000000;fill-opacity:1;stroke:none;stroke-width:0.75;stroke-linecap:butt;stroke-linejoin:round"
     x="419.56131"
     y="207.04698"
     id="text1475"><tspan
       sodipodi:role="line"
       id="tspan1473"
       style="font-size:16px;stroke-width:0.75;stroke-linecap:butt;stroke-linejoin:round"
       x="419.56131"
       y="207.04698"><tspan
   style="font-size:10.39999962px;baseline-shift:super;stroke-width:0.75;stroke-linecap:butt;stroke-linejoin:round"
   id="tspan1489">8</tspan>B</tspan></text>
  <text
     xml:space="preserve"
     style="font-style:italic;font-variant:normal;font-weight:normal;font-stretch:normal;font-size:16px;line-height:1.25;font-family:sans-serif;-inkscape-font-specification:'sans-serif Italic';letter-spacing:0px;word-spacing:0px;fill:#000000;fill-opacity:1;stroke:none;stroke-width:0.75;stroke-linecap:butt;stroke-linejoin:round"
     x="90.27301"
     y="20.915436"
     id="text1493"><tspan
       sodipodi:role="line"
       id="tspan1491"
       style="font-style:italic;font-variant:normal;font-weight:normal;font-stretch:normal;font-size:16px;font-family:sans-serif;-inkscape-font-specification:'sans-serif Italic';stroke-width:0.75;stroke-linecap:butt;stroke-linejoin:round"
       x="90.27301"
       y="20.915436">pp</tspan></text>
</svg>
