<?xml version="1.0" encoding="utf-8" standalone="no"?>
<!DOCTYPE svg PUBLIC "-//W3C//DTD SVG 1.1//EN"
  "http://www.w3.org/Graphics/SVG/1.1/DTD/svg11.dtd">
<!-- Created with matplotlib (http://matplotlib.org/) -->
<svg height="504pt" version="1.1" viewBox="0 0 576 504" width="576pt" xmlns="http://www.w3.org/2000/svg" xmlns:xlink="http://www.w3.org/1999/xlink">
 <defs>
  <style type="text/css">
*{stroke-linecap:butt;stroke-linejoin:round;}
  </style>
 </defs>
 <g id="figure_1">
  <g id="patch_1">
   <path d="M 0 504 
L 576 504 
L 576 0 
L 0 0 
z
" style="fill:#ffffff;"/>
  </g>
  <g id="axes_1">
   <g id="patch_2">
    <path d="M 30.150898 475.7 
L 518.8175 475.7 
L 518.8175 35.4104 
L 30.150898 35.4104 
z
" style="fill:#ffffff;"/>
   </g>
   <g id="patch_3">
    <path clip-path="url(#pdefaf358b2)" d="M 502.841477 327.766571 
L 505.537633 321.845294 
L 505.922798 323.849419 
L 518.721209 310.090369 
L 518.913791 311.092431 
L 506.11538 324.851481 
L 506.500545 326.855606 
z
" style="stroke:#000000;stroke-linejoin:miter;"/>
   </g>
   <g id="patch_4">
    <path clip-path="url(#pdefaf358b2)" d="M 495.860525 294.744851 
L 498.556681 288.823574 
L 498.941846 290.827699 
L 511.740257 277.068649 
L 511.93284 278.070711 
L 499.134429 291.829761 
L 499.519594 293.833886 
z
" style="stroke:#000000;stroke-linejoin:miter;"/>
   </g>
   <g id="matplotlib.axis_1">
    <g id="xtick_1">
     <g id="line2d_1">
      <defs>
       <path d="M 0 0 
L 0 -3.5 
" id="m6a8afd8dc8" style="stroke:#000000;stroke-width:0.8;"/>
      </defs>
      <g>
       <use style="stroke:#000000;stroke-width:0.8;" x="30.150898" xlink:href="#m6a8afd8dc8" y="475.7"/>
      </g>
     </g>
     <g id="text_1">
      <!-- 0 -->
      <defs>
       <path d="M 31.78125 66.40625 
Q 24.171875 66.40625 20.328125 58.90625 
Q 16.5 51.421875 16.5 36.375 
Q 16.5 21.390625 20.328125 13.890625 
Q 24.171875 6.390625 31.78125 6.390625 
Q 39.453125 6.390625 43.28125 13.890625 
Q 47.125 21.390625 47.125 36.375 
Q 47.125 51.421875 43.28125 58.90625 
Q 39.453125 66.40625 31.78125 66.40625 
z
M 31.78125 74.21875 
Q 44.046875 74.21875 50.515625 64.515625 
Q 56.984375 54.828125 56.984375 36.375 
Q 56.984375 17.96875 50.515625 8.265625 
Q 44.046875 -1.421875 31.78125 -1.421875 
Q 19.53125 -1.421875 13.0625 8.265625 
Q 6.59375 17.96875 6.59375 36.375 
Q 6.59375 54.828125 13.0625 64.515625 
Q 19.53125 74.21875 31.78125 74.21875 
z
" id="DejaVuSans-30"/>
      </defs>
      <g transform="translate(25.697148 489.837812)scale(0.14 -0.14)">
       <use xlink:href="#DejaVuSans-30"/>
      </g>
     </g>
    </g>
    <g id="xtick_2">
     <g id="line2d_2">
      <g>
       <use style="stroke:#000000;stroke-width:0.8;" x="76.690575" xlink:href="#m6a8afd8dc8" y="475.7"/>
      </g>
     </g>
     <g id="text_2">
      <!-- 2 -->
      <defs>
       <path d="M 19.1875 8.296875 
L 53.609375 8.296875 
L 53.609375 0 
L 7.328125 0 
L 7.328125 8.296875 
Q 12.9375 14.109375 22.625 23.890625 
Q 32.328125 33.6875 34.8125 36.53125 
Q 39.546875 41.84375 41.421875 45.53125 
Q 43.3125 49.21875 43.3125 52.78125 
Q 43.3125 58.59375 39.234375 62.25 
Q 35.15625 65.921875 28.609375 65.921875 
Q 23.96875 65.921875 18.8125 64.3125 
Q 13.671875 62.703125 7.8125 59.421875 
L 7.8125 69.390625 
Q 13.765625 71.78125 18.9375 73 
Q 24.125 74.21875 28.421875 74.21875 
Q 39.75 74.21875 46.484375 68.546875 
Q 53.21875 62.890625 53.21875 53.421875 
Q 53.21875 48.921875 51.53125 44.890625 
Q 49.859375 40.875 45.40625 35.40625 
Q 44.1875 33.984375 37.640625 27.21875 
Q 31.109375 20.453125 19.1875 8.296875 
z
" id="DejaVuSans-32"/>
      </defs>
      <g transform="translate(72.236825 489.837812)scale(0.14 -0.14)">
       <use xlink:href="#DejaVuSans-32"/>
      </g>
     </g>
    </g>
    <g id="xtick_3">
     <g id="line2d_3">
      <g>
       <use style="stroke:#000000;stroke-width:0.8;" x="123.230251" xlink:href="#m6a8afd8dc8" y="475.7"/>
      </g>
     </g>
     <g id="text_3">
      <!-- 4 -->
      <defs>
       <path d="M 37.796875 64.3125 
L 12.890625 25.390625 
L 37.796875 25.390625 
z
M 35.203125 72.90625 
L 47.609375 72.90625 
L 47.609375 25.390625 
L 58.015625 25.390625 
L 58.015625 17.1875 
L 47.609375 17.1875 
L 47.609375 0 
L 37.796875 0 
L 37.796875 17.1875 
L 4.890625 17.1875 
L 4.890625 26.703125 
z
" id="DejaVuSans-34"/>
      </defs>
      <g transform="translate(118.776501 489.837812)scale(0.14 -0.14)">
       <use xlink:href="#DejaVuSans-34"/>
      </g>
     </g>
    </g>
    <g id="xtick_4">
     <g id="line2d_4">
      <g>
       <use style="stroke:#000000;stroke-width:0.8;" x="169.769927" xlink:href="#m6a8afd8dc8" y="475.7"/>
      </g>
     </g>
     <g id="text_4">
      <!-- 6 -->
      <defs>
       <path d="M 33.015625 40.375 
Q 26.375 40.375 22.484375 35.828125 
Q 18.609375 31.296875 18.609375 23.390625 
Q 18.609375 15.53125 22.484375 10.953125 
Q 26.375 6.390625 33.015625 6.390625 
Q 39.65625 6.390625 43.53125 10.953125 
Q 47.40625 15.53125 47.40625 23.390625 
Q 47.40625 31.296875 43.53125 35.828125 
Q 39.65625 40.375 33.015625 40.375 
z
M 52.59375 71.296875 
L 52.59375 62.3125 
Q 48.875 64.0625 45.09375 64.984375 
Q 41.3125 65.921875 37.59375 65.921875 
Q 27.828125 65.921875 22.671875 59.328125 
Q 17.53125 52.734375 16.796875 39.40625 
Q 19.671875 43.65625 24.015625 45.921875 
Q 28.375 48.1875 33.59375 48.1875 
Q 44.578125 48.1875 50.953125 41.515625 
Q 57.328125 34.859375 57.328125 23.390625 
Q 57.328125 12.15625 50.6875 5.359375 
Q 44.046875 -1.421875 33.015625 -1.421875 
Q 20.359375 -1.421875 13.671875 8.265625 
Q 6.984375 17.96875 6.984375 36.375 
Q 6.984375 53.65625 15.1875 63.9375 
Q 23.390625 74.21875 37.203125 74.21875 
Q 40.921875 74.21875 44.703125 73.484375 
Q 48.484375 72.75 52.59375 71.296875 
z
" id="DejaVuSans-36"/>
      </defs>
      <g transform="translate(165.316177 489.837812)scale(0.14 -0.14)">
       <use xlink:href="#DejaVuSans-36"/>
      </g>
     </g>
    </g>
    <g id="xtick_5">
     <g id="line2d_5">
      <g>
       <use style="stroke:#000000;stroke-width:0.8;" x="216.309604" xlink:href="#m6a8afd8dc8" y="475.7"/>
      </g>
     </g>
     <g id="text_5">
      <!-- 8 -->
      <defs>
       <path d="M 31.78125 34.625 
Q 24.75 34.625 20.71875 30.859375 
Q 16.703125 27.09375 16.703125 20.515625 
Q 16.703125 13.921875 20.71875 10.15625 
Q 24.75 6.390625 31.78125 6.390625 
Q 38.8125 6.390625 42.859375 10.171875 
Q 46.921875 13.96875 46.921875 20.515625 
Q 46.921875 27.09375 42.890625 30.859375 
Q 38.875 34.625 31.78125 34.625 
z
M 21.921875 38.8125 
Q 15.578125 40.375 12.03125 44.71875 
Q 8.5 49.078125 8.5 55.328125 
Q 8.5 64.0625 14.71875 69.140625 
Q 20.953125 74.21875 31.78125 74.21875 
Q 42.671875 74.21875 48.875 69.140625 
Q 55.078125 64.0625 55.078125 55.328125 
Q 55.078125 49.078125 51.53125 44.71875 
Q 48 40.375 41.703125 38.8125 
Q 48.828125 37.15625 52.796875 32.3125 
Q 56.78125 27.484375 56.78125 20.515625 
Q 56.78125 9.90625 50.3125 4.234375 
Q 43.84375 -1.421875 31.78125 -1.421875 
Q 19.734375 -1.421875 13.25 4.234375 
Q 6.78125 9.90625 6.78125 20.515625 
Q 6.78125 27.484375 10.78125 32.3125 
Q 14.796875 37.15625 21.921875 38.8125 
z
M 18.3125 54.390625 
Q 18.3125 48.734375 21.84375 45.5625 
Q 25.390625 42.390625 31.78125 42.390625 
Q 38.140625 42.390625 41.71875 45.5625 
Q 45.3125 48.734375 45.3125 54.390625 
Q 45.3125 60.0625 41.71875 63.234375 
Q 38.140625 66.40625 31.78125 66.40625 
Q 25.390625 66.40625 21.84375 63.234375 
Q 18.3125 60.0625 18.3125 54.390625 
z
" id="DejaVuSans-38"/>
      </defs>
      <g transform="translate(211.855854 489.837812)scale(0.14 -0.14)">
       <use xlink:href="#DejaVuSans-38"/>
      </g>
     </g>
    </g>
    <g id="xtick_6">
     <g id="line2d_6">
      <g>
       <use style="stroke:#000000;stroke-width:0.8;" x="262.84928" xlink:href="#m6a8afd8dc8" y="475.7"/>
      </g>
     </g>
     <g id="text_6">
      <!-- 10 -->
      <defs>
       <path d="M 12.40625 8.296875 
L 28.515625 8.296875 
L 28.515625 63.921875 
L 10.984375 60.40625 
L 10.984375 69.390625 
L 28.421875 72.90625 
L 38.28125 72.90625 
L 38.28125 8.296875 
L 54.390625 8.296875 
L 54.390625 0 
L 12.40625 0 
z
" id="DejaVuSans-31"/>
      </defs>
      <g transform="translate(253.94178 489.837812)scale(0.14 -0.14)">
       <use xlink:href="#DejaVuSans-31"/>
       <use x="63.623047" xlink:href="#DejaVuSans-30"/>
      </g>
     </g>
    </g>
    <g id="xtick_7">
     <g id="line2d_7">
      <g>
       <use style="stroke:#000000;stroke-width:0.8;" x="309.388956" xlink:href="#m6a8afd8dc8" y="475.7"/>
      </g>
     </g>
     <g id="text_7">
      <!-- 12 -->
      <g transform="translate(300.481456 489.837812)scale(0.14 -0.14)">
       <use xlink:href="#DejaVuSans-31"/>
       <use x="63.623047" xlink:href="#DejaVuSans-32"/>
      </g>
     </g>
    </g>
    <g id="xtick_8">
     <g id="line2d_8">
      <g>
       <use style="stroke:#000000;stroke-width:0.8;" x="355.928633" xlink:href="#m6a8afd8dc8" y="475.7"/>
      </g>
     </g>
     <g id="text_8">
      <!-- 14 -->
      <g transform="translate(347.021133 489.837812)scale(0.14 -0.14)">
       <use xlink:href="#DejaVuSans-31"/>
       <use x="63.623047" xlink:href="#DejaVuSans-34"/>
      </g>
     </g>
    </g>
    <g id="xtick_9">
     <g id="line2d_9">
      <g>
       <use style="stroke:#000000;stroke-width:0.8;" x="402.468309" xlink:href="#m6a8afd8dc8" y="475.7"/>
      </g>
     </g>
     <g id="text_9">
      <!-- 16 -->
      <g transform="translate(393.560809 489.837812)scale(0.14 -0.14)">
       <use xlink:href="#DejaVuSans-31"/>
       <use x="63.623047" xlink:href="#DejaVuSans-36"/>
      </g>
     </g>
    </g>
    <g id="xtick_10">
     <g id="line2d_10">
      <g>
       <use style="stroke:#000000;stroke-width:0.8;" x="449.007985" xlink:href="#m6a8afd8dc8" y="475.7"/>
      </g>
     </g>
     <g id="text_10">
      <!-- 18 -->
      <g transform="translate(440.100485 489.837812)scale(0.14 -0.14)">
       <use xlink:href="#DejaVuSans-31"/>
       <use x="63.623047" xlink:href="#DejaVuSans-38"/>
      </g>
     </g>
    </g>
    <g id="xtick_11">
     <g id="line2d_11">
      <g>
       <use style="stroke:#000000;stroke-width:0.8;" x="495.547662" xlink:href="#m6a8afd8dc8" y="475.7"/>
      </g>
     </g>
     <g id="text_11">
      <!-- 20 -->
      <g transform="translate(486.640162 489.837812)scale(0.14 -0.14)">
       <use xlink:href="#DejaVuSans-32"/>
       <use x="63.623047" xlink:href="#DejaVuSans-30"/>
      </g>
     </g>
    </g>
    <g id="text_12">
     <!-- E, MeV -->
     <defs>
      <path d="M 9.8125 72.90625 
L 55.90625 72.90625 
L 55.90625 64.59375 
L 19.671875 64.59375 
L 19.671875 43.015625 
L 54.390625 43.015625 
L 54.390625 34.71875 
L 19.671875 34.71875 
L 19.671875 8.296875 
L 56.78125 8.296875 
L 56.78125 0 
L 9.8125 0 
z
" id="DejaVuSans-45"/>
      <path d="M 11.71875 12.40625 
L 22.015625 12.40625 
L 22.015625 4 
L 14.015625 -11.625 
L 7.71875 -11.625 
L 11.71875 4 
z
" id="DejaVuSans-2c"/>
      <path id="DejaVuSans-20"/>
      <path d="M 9.8125 72.90625 
L 24.515625 72.90625 
L 43.109375 23.296875 
L 61.8125 72.90625 
L 76.515625 72.90625 
L 76.515625 0 
L 66.890625 0 
L 66.890625 64.015625 
L 48.09375 14.015625 
L 38.1875 14.015625 
L 19.390625 64.015625 
L 19.390625 0 
L 9.8125 0 
z
" id="DejaVuSans-4d"/>
      <path d="M 56.203125 29.59375 
L 56.203125 25.203125 
L 14.890625 25.203125 
Q 15.484375 15.921875 20.484375 11.0625 
Q 25.484375 6.203125 34.421875 6.203125 
Q 39.59375 6.203125 44.453125 7.46875 
Q 49.3125 8.734375 54.109375 11.28125 
L 54.109375 2.78125 
Q 49.265625 0.734375 44.1875 -0.34375 
Q 39.109375 -1.421875 33.890625 -1.421875 
Q 20.796875 -1.421875 13.15625 6.1875 
Q 5.515625 13.8125 5.515625 26.8125 
Q 5.515625 40.234375 12.765625 48.109375 
Q 20.015625 56 32.328125 56 
Q 43.359375 56 49.78125 48.890625 
Q 56.203125 41.796875 56.203125 29.59375 
z
M 47.21875 32.234375 
Q 47.125 39.59375 43.09375 43.984375 
Q 39.0625 48.390625 32.421875 48.390625 
Q 24.90625 48.390625 20.390625 44.140625 
Q 15.875 39.890625 15.1875 32.171875 
z
" id="DejaVuSans-65"/>
      <path d="M 28.609375 0 
L 0.78125 72.90625 
L 11.078125 72.90625 
L 34.1875 11.53125 
L 57.328125 72.90625 
L 67.578125 72.90625 
L 39.796875 0 
z
" id="DejaVuSans-56"/>
     </defs>
     <g transform="translate(519.243018 489.860129)scale(0.14 -0.14)">
      <use xlink:href="#DejaVuSans-45"/>
      <use x="63.183594" xlink:href="#DejaVuSans-2c"/>
      <use x="94.970703" xlink:href="#DejaVuSans-20"/>
      <use x="126.757812" xlink:href="#DejaVuSans-4d"/>
      <use x="213.037109" xlink:href="#DejaVuSans-65"/>
      <use x="274.560547" xlink:href="#DejaVuSans-56"/>
     </g>
    </g>
   </g>
   <g id="matplotlib.axis_2">
    <g id="ytick_1">
     <g id="line2d_12">
      <defs>
       <path d="M 0 0 
L 3.5 0 
" id="m650e5ba5d0" style="stroke:#000000;stroke-width:0.8;"/>
      </defs>
      <g>
       <use style="stroke:#000000;stroke-width:0.8;" x="30.150898" xlink:href="#m650e5ba5d0" y="475.7"/>
      </g>
     </g>
     <g id="text_13">
      <!-- 0 -->
      <g transform="translate(17.743398 481.018906)scale(0.14 -0.14)">
       <use xlink:href="#DejaVuSans-30"/>
      </g>
     </g>
    </g>
    <g id="ytick_2">
     <g id="line2d_13">
      <g>
       <use style="stroke:#000000;stroke-width:0.8;" x="30.150898" xlink:href="#m650e5ba5d0" y="420.6638"/>
      </g>
     </g>
     <g id="text_14">
      <!-- 1 -->
      <g transform="translate(17.743398 425.982706)scale(0.14 -0.14)">
       <use xlink:href="#DejaVuSans-31"/>
      </g>
     </g>
    </g>
    <g id="ytick_3">
     <g id="line2d_14">
      <g>
       <use style="stroke:#000000;stroke-width:0.8;" x="30.150898" xlink:href="#m650e5ba5d0" y="365.6276"/>
      </g>
     </g>
     <g id="text_15">
      <!-- 2 -->
      <g transform="translate(17.743398 370.946506)scale(0.14 -0.14)">
       <use xlink:href="#DejaVuSans-32"/>
      </g>
     </g>
    </g>
    <g id="ytick_4">
     <g id="line2d_15">
      <g>
       <use style="stroke:#000000;stroke-width:0.8;" x="30.150898" xlink:href="#m650e5ba5d0" y="310.5914"/>
      </g>
     </g>
     <g id="text_16">
      <!-- 3 -->
      <defs>
       <path d="M 40.578125 39.3125 
Q 47.65625 37.796875 51.625 33 
Q 55.609375 28.21875 55.609375 21.1875 
Q 55.609375 10.40625 48.1875 4.484375 
Q 40.765625 -1.421875 27.09375 -1.421875 
Q 22.515625 -1.421875 17.65625 -0.515625 
Q 12.796875 0.390625 7.625 2.203125 
L 7.625 11.71875 
Q 11.71875 9.328125 16.59375 8.109375 
Q 21.484375 6.890625 26.8125 6.890625 
Q 36.078125 6.890625 40.9375 10.546875 
Q 45.796875 14.203125 45.796875 21.1875 
Q 45.796875 27.640625 41.28125 31.265625 
Q 36.765625 34.90625 28.71875 34.90625 
L 20.21875 34.90625 
L 20.21875 43.015625 
L 29.109375 43.015625 
Q 36.375 43.015625 40.234375 45.921875 
Q 44.09375 48.828125 44.09375 54.296875 
Q 44.09375 59.90625 40.109375 62.90625 
Q 36.140625 65.921875 28.71875 65.921875 
Q 24.65625 65.921875 20.015625 65.03125 
Q 15.375 64.15625 9.8125 62.3125 
L 9.8125 71.09375 
Q 15.4375 72.65625 20.34375 73.4375 
Q 25.25 74.21875 29.59375 74.21875 
Q 40.828125 74.21875 47.359375 69.109375 
Q 53.90625 64.015625 53.90625 55.328125 
Q 53.90625 49.265625 50.4375 45.09375 
Q 46.96875 40.921875 40.578125 39.3125 
z
" id="DejaVuSans-33"/>
      </defs>
      <g transform="translate(17.743398 315.910306)scale(0.14 -0.14)">
       <use xlink:href="#DejaVuSans-33"/>
      </g>
     </g>
    </g>
    <g id="ytick_5">
     <g id="line2d_16">
      <g>
       <use style="stroke:#000000;stroke-width:0.8;" x="30.150898" xlink:href="#m650e5ba5d0" y="255.5552"/>
      </g>
     </g>
     <g id="text_17">
      <!-- 4 -->
      <g transform="translate(17.743398 260.874106)scale(0.14 -0.14)">
       <use xlink:href="#DejaVuSans-34"/>
      </g>
     </g>
    </g>
    <g id="ytick_6">
     <g id="line2d_17">
      <g>
       <use style="stroke:#000000;stroke-width:0.8;" x="30.150898" xlink:href="#m650e5ba5d0" y="200.519"/>
      </g>
     </g>
     <g id="text_18">
      <!-- 5 -->
      <defs>
       <path d="M 10.796875 72.90625 
L 49.515625 72.90625 
L 49.515625 64.59375 
L 19.828125 64.59375 
L 19.828125 46.734375 
Q 21.96875 47.46875 24.109375 47.828125 
Q 26.265625 48.1875 28.421875 48.1875 
Q 40.625 48.1875 47.75 41.5 
Q 54.890625 34.8125 54.890625 23.390625 
Q 54.890625 11.625 47.5625 5.09375 
Q 40.234375 -1.421875 26.90625 -1.421875 
Q 22.3125 -1.421875 17.546875 -0.640625 
Q 12.796875 0.140625 7.71875 1.703125 
L 7.71875 11.625 
Q 12.109375 9.234375 16.796875 8.0625 
Q 21.484375 6.890625 26.703125 6.890625 
Q 35.15625 6.890625 40.078125 11.328125 
Q 45.015625 15.765625 45.015625 23.390625 
Q 45.015625 31 40.078125 35.4375 
Q 35.15625 39.890625 26.703125 39.890625 
Q 22.75 39.890625 18.8125 39.015625 
Q 14.890625 38.140625 10.796875 36.28125 
z
" id="DejaVuSans-35"/>
      </defs>
      <g transform="translate(17.743398 205.837906)scale(0.14 -0.14)">
       <use xlink:href="#DejaVuSans-35"/>
      </g>
     </g>
    </g>
    <g id="ytick_7">
     <g id="line2d_18">
      <g>
       <use style="stroke:#000000;stroke-width:0.8;" x="30.150898" xlink:href="#m650e5ba5d0" y="145.4828"/>
      </g>
     </g>
     <g id="text_19">
      <!-- 6 -->
      <g transform="translate(17.743398 150.801706)scale(0.14 -0.14)">
       <use xlink:href="#DejaVuSans-36"/>
      </g>
     </g>
    </g>
    <g id="ytick_8">
     <g id="line2d_19">
      <g>
       <use style="stroke:#000000;stroke-width:0.8;" x="30.150898" xlink:href="#m650e5ba5d0" y="90.4466"/>
      </g>
     </g>
     <g id="text_20">
      <!-- 7 -->
      <defs>
       <path d="M 8.203125 72.90625 
L 55.078125 72.90625 
L 55.078125 68.703125 
L 28.609375 0 
L 18.3125 0 
L 43.21875 64.59375 
L 8.203125 64.59375 
z
" id="DejaVuSans-37"/>
      </defs>
      <g transform="translate(17.743398 95.765506)scale(0.14 -0.14)">
       <use xlink:href="#DejaVuSans-37"/>
      </g>
     </g>
    </g>
    <g id="ytick_9">
     <g id="line2d_20">
      <g>
       <use style="stroke:#000000;stroke-width:0.8;" x="30.150898" xlink:href="#m650e5ba5d0" y="35.4104"/>
      </g>
     </g>
     <g id="text_21">
      <!-- 8 -->
      <g transform="translate(17.743398 40.729306)scale(0.14 -0.14)">
       <use xlink:href="#DejaVuSans-38"/>
      </g>
     </g>
    </g>
    <g id="text_22">
     <!-- $S(E)$, 1/MeV -->
     <defs>
      <path d="M 60.296875 70.515625 
L 58.40625 60.890625 
Q 53.46875 63.53125 48.609375 64.875 
Q 43.75 66.21875 39.203125 66.21875 
Q 30.375 66.21875 25.140625 62.359375 
Q 19.921875 58.5 19.921875 52.09375 
Q 19.921875 48.578125 21.84375 46.703125 
Q 23.78125 44.828125 31.78125 42.671875 
L 37.703125 41.21875 
Q 47.703125 38.625 51.609375 34.640625 
Q 55.515625 30.671875 55.515625 23.484375 
Q 55.515625 12.453125 46.84375 5.515625 
Q 38.1875 -1.421875 24.03125 -1.421875 
Q 18.21875 -1.421875 12.359375 -0.265625 
Q 6.5 0.875 0.59375 3.21875 
L 2.59375 13.375 
Q 8.015625 10.015625 13.453125 8.296875 
Q 18.890625 6.59375 24.3125 6.59375 
Q 33.546875 6.59375 39.109375 10.6875 
Q 44.671875 14.796875 44.671875 21.390625 
Q 44.671875 25.78125 42.453125 28.046875 
Q 40.234375 30.328125 32.90625 32.171875 
L 27 33.6875 
Q 16.890625 36.328125 13.203125 39.765625 
Q 9.515625 43.21875 9.515625 49.421875 
Q 9.515625 60.296875 17.890625 67.25 
Q 26.265625 74.21875 39.703125 74.21875 
Q 44.921875 74.21875 50.046875 73.28125 
Q 55.171875 72.359375 60.296875 70.515625 
z
" id="DejaVuSans-Oblique-53"/>
      <path d="M 31 75.875 
Q 24.46875 64.65625 21.28125 53.65625 
Q 18.109375 42.671875 18.109375 31.390625 
Q 18.109375 20.125 21.3125 9.0625 
Q 24.515625 -2 31 -13.1875 
L 23.1875 -13.1875 
Q 15.875 -1.703125 12.234375 9.375 
Q 8.59375 20.453125 8.59375 31.390625 
Q 8.59375 42.28125 12.203125 53.3125 
Q 15.828125 64.359375 23.1875 75.875 
z
" id="DejaVuSans-28"/>
      <path d="M 16.890625 72.90625 
L 62.984375 72.90625 
L 61.375 64.59375 
L 25.09375 64.59375 
L 20.90625 43.015625 
L 55.71875 43.015625 
L 54.109375 34.71875 
L 19.28125 34.71875 
L 14.203125 8.296875 
L 51.3125 8.296875 
L 49.703125 0 
L 2.6875 0 
z
" id="DejaVuSans-Oblique-45"/>
      <path d="M 8.015625 75.875 
L 15.828125 75.875 
Q 23.140625 64.359375 26.78125 53.3125 
Q 30.421875 42.28125 30.421875 31.390625 
Q 30.421875 20.453125 26.78125 9.375 
Q 23.140625 -1.703125 15.828125 -13.1875 
L 8.015625 -13.1875 
Q 14.5 -2 17.703125 9.0625 
Q 20.90625 20.125 20.90625 31.390625 
Q 20.90625 42.671875 17.703125 53.65625 
Q 14.5 64.65625 8.015625 75.875 
z
" id="DejaVuSans-29"/>
      <path d="M 25.390625 72.90625 
L 33.6875 72.90625 
L 8.296875 -9.28125 
L 0 -9.28125 
z
" id="DejaVuSans-2f"/>
     </defs>
     <g transform="translate(13.844229 23.693046)scale(0.14 -0.14)">
      <use transform="translate(0 0.125)" xlink:href="#DejaVuSans-Oblique-53"/>
      <use transform="translate(63.476562 0.125)" xlink:href="#DejaVuSans-28"/>
      <use transform="translate(102.490234 0.125)" xlink:href="#DejaVuSans-Oblique-45"/>
      <use transform="translate(165.673828 0.125)" xlink:href="#DejaVuSans-29"/>
      <use transform="translate(204.6875 0.125)" xlink:href="#DejaVuSans-2c"/>
      <use transform="translate(236.474609 0.125)" xlink:href="#DejaVuSans-20"/>
      <use transform="translate(268.261719 0.125)" xlink:href="#DejaVuSans-31"/>
      <use transform="translate(331.884766 0.125)" xlink:href="#DejaVuSans-2f"/>
      <use transform="translate(365.576172 0.125)" xlink:href="#DejaVuSans-4d"/>
      <use transform="translate(451.855469 0.125)" xlink:href="#DejaVuSans-65"/>
      <use transform="translate(513.378906 0.125)" xlink:href="#DejaVuSans-56"/>
     </g>
    </g>
   </g>
   <g id="line2d_21">
    <path clip-path="url(#pdefaf358b2)" d="M 30.150898 474.927717 
L 30.150898 473.407904 
L 32.477882 473.407904 
L 32.477882 470.748232 
L 34.804866 470.748232 
L 34.804866 471.113137 
L 35.968358 471.113137 
L 35.968358 472.458021 
L 37.13185 472.458021 
L 37.13185 472.697375 
L 38.295342 472.697375 
L 38.295342 473.405328 
L 39.458834 473.405328 
L 39.458834 473.721369 
L 40.622326 473.721369 
L 40.622326 474.126577 
L 41.785818 474.126577 
L 41.785818 472.458021 
L 44.112801 472.458021 
L 44.112801 472.758444 
L 45.276293 472.758444 
L 45.276293 473.407904 
L 47.603277 473.407904 
L 47.603277 473.293193 
L 48.766769 473.293193 
L 48.766769 473.673048 
L 49.930261 473.673048 
L 49.930261 474.152749 
L 51.093753 474.152749 
L 51.093753 470.938208 
L 53.420737 470.938208 
L 53.420737 472.998344 
L 54.584229 472.998344 
L 54.584229 474.737741 
L 55.74772 474.737741 
L 55.74772 473.407904 
L 58.074704 473.407904 
L 58.074704 473.864759 
L 59.238196 473.864759 
L 59.238196 474.423718 
L 60.401688 474.423718 
L 60.401688 473.787858 
L 62.728672 473.787858 
L 62.728672 471.128185 
L 67.38264 471.128185 
L 67.38264 471.705787 
L 68.546131 471.705787 
L 68.546131 472.345876 
L 69.709623 472.345876 
L 69.709623 471.888092 
L 72.036607 471.888092 
L 72.036607 472.007677 
L 73.200099 472.007677 
L 73.200099 471.096425 
L 74.363591 471.096425 
L 74.363591 469.038442 
L 75.527083 469.038442 
L 75.527083 466.917818 
L 76.690575 466.917818 
L 76.690575 463.339144 
L 79.017559 463.370658 
L 79.017559 463.973545 
L 80.181051 463.973545 
L 80.181051 464.880791 
L 81.344542 464.880791 
L 81.344542 466.627796 
L 82.508034 466.627796 
L 82.508034 467.708606 
L 83.671526 467.708606 
L 83.671526 464.008922 
L 84.835018 464.008922 
L 84.835018 460.607848 
L 85.99851 460.607848 
L 85.99851 456.089814 
L 87.162002 456.089814 
L 87.162002 451.961373 
L 88.325494 451.961373 
L 88.325494 449.655753 
L 89.488986 449.655753 
L 89.488986 447.955034 
L 90.652478 447.955034 
L 90.652478 445.101388 
L 92.979461 445.101388 
L 92.979461 447.570746 
L 94.142953 447.570746 
L 94.142953 450.8808 
L 95.306445 450.8808 
L 95.306445 453.513683 
L 96.469937 453.513683 
L 96.469937 454.953947 
L 97.633429 454.953947 
L 97.633429 451.18064 
L 98.796921 451.18064 
L 98.796921 451.04372 
L 99.960413 451.04372 
L 99.960413 444.341482 
L 101.123905 444.341482 
L 101.123905 438.530075 
L 102.287397 438.530075 
L 102.287397 434.842651 
L 104.614381 434.909156 
L 104.614381 441.904575 
L 105.777872 441.904575 
L 105.777872 449.660827 
L 106.941364 449.660827 
L 106.941364 452.310017 
L 108.104856 452.310017 
L 108.104856 453.080406 
L 109.268348 453.080406 
L 109.268348 453.479426 
L 110.43184 453.479426 
L 110.43184 453.648975 
L 111.595332 453.648975 
L 111.595332 439.996169 
L 113.922316 439.97202 
L 113.922316 441.429445 
L 115.085808 441.429445 
L 115.085808 442.061762 
L 116.2493 442.061762 
L 116.2493 442.416408 
L 117.412792 442.416408 
L 117.412792 442.631692 
L 118.576283 442.631692 
L 118.576283 444.454336 
L 119.739775 444.454336 
L 119.739775 445.847851 
L 122.066759 445.794049 
L 122.066759 445.674919 
L 123.230251 445.674919 
L 123.230251 442.061762 
L 125.557235 442.061762 
L 125.557235 441.524976 
L 127.884219 441.491833 
L 127.884219 442.205088 
L 129.047711 442.205088 
L 129.047711 442.631692 
L 130.211203 442.631692 
L 130.211203 443.725404 
L 131.374694 443.725404 
L 131.374694 444.590495 
L 132.538186 444.590495 
L 132.538186 444.830847 
L 133.701678 444.830847 
L 133.701678 444.988677 
L 134.86517 444.988677 
L 134.86517 448.579001 
L 136.028662 448.579001 
L 136.028662 443.342672 
L 137.192154 443.342672 
L 137.192154 441.14856 
L 139.519138 441.135484 
L 139.519138 443.121097 
L 140.68263 443.121097 
L 140.68263 443.50859 
L 141.846122 443.50859 
L 141.846122 442.264119 
L 144.173105 442.182302 
L 144.173105 443.035167 
L 145.336597 443.035167 
L 145.336597 439.244632 
L 146.500089 439.244632 
L 146.500089 435.507436 
L 148.827073 435.437231 
L 148.827073 436.86312 
L 149.990565 436.86312 
L 149.990565 440.240891 
L 151.154057 440.240891 
L 151.154057 441.078551 
L 152.317549 441.078551 
L 152.317549 439.51819 
L 153.481041 439.51819 
L 153.481041 435.423534 
L 155.808025 435.418363 
L 155.808025 437.002636 
L 156.971516 437.002636 
L 156.971516 433.460849 
L 158.135008 433.460849 
L 158.135008 430.141887 
L 159.2985 430.141887 
L 159.2985 426.409076 
L 160.461992 426.409076 
L 160.461992 424.812273 
L 161.625484 424.812273 
L 161.625484 420.010626 
L 162.788976 420.010626 
L 162.788976 418.197286 
L 163.952468 418.197286 
L 163.952468 420.936402 
L 165.11596 420.936402 
L 165.11596 427.739123 
L 166.279452 427.739123 
L 166.279452 423.603306 
L 167.442944 423.603306 
L 167.442944 419.579819 
L 169.769927 419.534748 
L 169.769927 423.084288 
L 170.933419 423.084288 
L 170.933419 425.875585 
L 172.096911 425.875585 
L 172.096911 425.372002 
L 173.260403 425.372002 
L 173.260403 420.164372 
L 174.423895 420.164372 
L 174.423895 416.662638 
L 175.587387 416.662638 
L 175.587387 411.961726 
L 176.750879 411.961726 
L 176.750879 408.533623 
L 177.914371 408.533623 
L 177.914371 408.716117 
L 179.077863 408.716117 
L 179.077863 412.945352 
L 180.241355 412.945352 
L 180.241355 423.345743 
L 181.404847 423.345743 
L 181.404847 412.007471 
L 182.568338 412.007471 
L 182.568338 412.301197 
L 183.73183 412.301197 
L 183.73183 416.666673 
L 184.895322 416.666673 
L 184.895322 414.898863 
L 186.058814 414.898863 
L 186.058814 411.999223 
L 187.222306 411.999223 
L 187.222306 410.377957 
L 188.385798 410.377957 
L 188.385798 408.64321 
L 189.54929 408.64321 
L 189.54929 405.737981 
L 190.712782 405.737981 
L 190.712782 403.866084 
L 191.876274 403.866084 
L 191.876274 392.877221 
L 193.039766 392.877221 
L 193.039766 388.237872 
L 195.366749 388.305667 
L 195.366749 388.404286 
L 197.693733 388.303132 
L 197.693733 387.639536 
L 198.857225 387.639536 
L 198.857225 383.114958 
L 200.020717 383.114958 
L 200.020717 380.635614 
L 202.347701 380.633552 
L 202.347701 386.238223 
L 203.511193 386.238223 
L 203.511193 383.4512 
L 204.674685 383.4512 
L 204.674685 377.14527 
L 205.838177 377.14527 
L 205.838177 363.669377 
L 207.001669 363.669377 
L 207.001669 362.632412 
L 208.16516 362.632412 
L 208.16516 361.925781 
L 209.328652 361.925781 
L 209.328652 361.514862 
L 210.492144 361.514862 
L 210.492144 361.687019 
L 211.655636 361.687019 
L 211.655636 362.204784 
L 212.819128 362.204784 
L 212.819128 359.63533 
L 213.98262 359.63533 
L 213.98262 353.617067 
L 215.146112 353.617067 
L 215.146112 348.201948 
L 216.309604 348.201948 
L 216.309604 345.119484 
L 217.473096 345.119484 
L 217.473096 343.404154 
L 218.636588 343.404154 
L 218.636588 341.719216 
L 220.963571 341.717154 
L 220.963571 349.05061 
L 222.127063 349.05061 
L 222.127063 343.68316 
L 223.290555 343.68316 
L 223.290555 338.143937 
L 224.454047 338.143937 
L 224.454047 337.998588 
L 225.617539 337.998588 
L 225.617539 337.744681 
L 226.781031 337.744681 
L 226.781031 337.869447 
L 227.944523 337.869447 
L 227.944523 341.263388 
L 229.108015 341.263388 
L 229.108015 341.041487 
L 230.271507 341.041487 
L 230.271507 339.851932 
L 231.434999 339.851932 
L 231.434999 337.302562 
L 232.598491 337.302562 
L 232.598491 335.293314 
L 233.761982 335.293314 
L 233.761982 332.07931 
L 234.925474 332.07931 
L 234.925474 330.66371 
L 237.252458 330.661648 
L 237.252458 341.204965 
L 238.41595 341.204965 
L 238.41595 339.650894 
L 239.579442 339.650894 
L 239.579442 338.780352 
L 240.742934 338.780352 
L 240.742934 338.951677 
L 241.906426 338.951677 
L 241.906426 345.027337 
L 243.069918 345.027337 
L 243.069918 350.548991 
L 244.23341 350.548991 
L 244.23341 346.276299 
L 245.396902 346.276299 
L 245.396902 344.819353 
L 246.560393 344.819353 
L 246.560393 344.169272 
L 247.723885 344.169272 
L 247.723885 337.641593 
L 248.887377 337.641593 
L 248.887377 332.380013 
L 250.050869 332.380013 
L 250.050869 332.510394 
L 251.214361 332.510394 
L 251.214361 337.071657 
L 252.377853 337.071657 
L 252.377853 341.051116 
L 253.541345 341.051116 
L 253.541345 340.496656 
L 254.704837 340.496656 
L 254.704837 340.670685 
L 255.868329 340.670685 
L 255.868329 342.839056 
L 257.031821 342.839056 
L 257.031821 335.881585 
L 258.195312 335.881585 
L 258.195312 332.363517 
L 259.358804 332.363517 
L 259.358804 332.589177 
L 260.522296 332.589177 
L 260.522296 342.241063 
L 261.685788 342.241063 
L 261.685788 341.826672 
L 262.84928 341.826672 
L 262.84928 337.578413 
L 264.012772 337.578413 
L 264.012772 337.733134 
L 265.176264 337.733134 
L 265.176264 345.288801 
L 266.339756 345.288801 
L 266.339756 341.092702 
L 267.503248 341.092702 
L 267.503248 330.700164 
L 268.66674 330.700164 
L 268.66674 326.615705 
L 269.830232 326.615705 
L 269.830232 324.86585 
L 270.993723 324.86585 
L 270.993723 325.030807 
L 272.157215 325.030807 
L 272.157215 331.633911 
L 273.320707 331.633911 
L 273.320707 333.732765 
L 274.484199 333.732765 
L 274.484199 340.65445 
L 275.647691 340.65445 
L 275.647691 333.556659 
L 276.811183 333.556659 
L 276.811183 332.910874 
L 279.138167 332.953141 
L 279.138167 334.071085 
L 280.301659 334.071085 
L 280.301659 320.656952 
L 281.465151 320.656952 
L 281.465151 307.344975 
L 282.628643 307.344975 
L 282.628643 306.784843 
L 283.792134 306.784843 
L 283.792134 322.21134 
L 286.119118 322.143837 
L 286.119118 316.038277 
L 287.28261 316.038277 
L 287.28261 306.877344 
L 288.446102 306.877344 
L 288.446102 293.426498 
L 289.609594 293.426498 
L 289.609594 294.681174 
L 290.773086 294.681174 
L 290.773086 301.023856 
L 291.936578 301.023856 
L 291.936578 309.533446 
L 293.10007 309.533446 
L 293.10007 311.261879 
L 294.263562 311.261879 
L 294.263562 308.976295 
L 295.427054 308.976295 
L 295.427054 304.440763 
L 296.590545 304.440763 
L 296.590545 299.447681 
L 297.754037 299.447681 
L 297.754037 295.266254 
L 300.081021 295.335839 
L 300.081021 309.317499 
L 301.244513 309.317499 
L 301.244513 302.260373 
L 302.408005 302.260373 
L 302.408005 296.371589 
L 303.571497 296.371589 
L 303.571497 286.264812 
L 304.734989 286.264812 
L 304.734989 284.11204 
L 307.061973 284.109978 
L 307.061973 293.330067 
L 308.225465 293.330067 
L 308.225465 273.079217 
L 309.388956 273.079217 
L 309.388956 272.016766 
L 310.552448 272.016766 
L 310.552448 253.026888 
L 311.71594 253.026888 
L 311.71594 252.808971 
L 312.879432 252.808971 
L 312.879432 250.79503 
L 314.042924 250.79503 
L 314.042924 249.854933 
L 315.206416 249.854933 
L 315.206416 250.631537 
L 316.369908 250.631537 
L 316.369908 254.093444 
L 317.5334 254.093444 
L 317.5334 242.456706 
L 318.696892 242.456706 
L 318.696892 235.918301 
L 319.860384 235.918301 
L 319.860384 231.098405 
L 321.023876 231.098405 
L 321.023876 228.949985 
L 322.187367 228.949985 
L 322.187367 222.658119 
L 323.350859 222.658119 
L 323.350859 222.418469 
L 324.514351 222.418469 
L 324.514351 217.33999 
L 325.677843 217.33999 
L 325.677843 216.531505 
L 326.841335 216.531505 
L 326.841335 212.17853 
L 328.004827 212.17853 
L 328.004827 209.786084 
L 329.168319 209.786084 
L 329.168319 205.353245 
L 330.331811 205.353245 
L 330.331811 202.902181 
L 331.495303 202.902181 
L 331.495303 198.418107 
L 332.658795 198.418107 
L 332.658795 197.010151 
L 333.822287 197.010151 
L 333.822287 192.32068 
L 334.985778 192.32068 
L 334.985778 191.233553 
L 336.14927 191.233553 
L 336.14927 191.471424 
L 337.312762 191.471424 
L 337.312762 206.636424 
L 338.476254 206.636424 
L 338.476254 176.107265 
L 340.803238 176.105203 
L 340.803238 177.695947 
L 341.96673 177.695947 
L 341.96673 184.455968 
L 343.130222 184.455968 
L 343.130222 169.267055 
L 344.293714 169.267055 
L 344.293714 168.675815 
L 345.457206 168.675815 
L 345.457206 153.530118 
L 346.620698 153.530118 
L 346.620698 151.538769 
L 347.784189 151.538769 
L 347.784189 131.100173 
L 348.947681 131.100173 
L 348.947681 130.847019 
L 350.111173 130.847019 
L 350.111173 134.810452 
L 351.274665 134.810452 
L 351.274665 164.743823 
L 352.438157 164.743823 
L 352.438157 131.975971 
L 354.765141 131.973909 
L 354.765141 133.231299 
L 355.928633 133.231299 
L 355.928633 136.83219 
L 357.092125 136.83219 
L 357.092125 133.794305 
L 358.255617 133.794305 
L 358.255617 133.584359 
L 359.419109 133.584359 
L 359.419109 122.671607 
L 360.5826 122.671607 
L 360.5826 111.15107 
L 361.746092 111.15107 
L 361.746092 111.795663 
L 362.909584 111.795663 
L 362.909584 129.434944 
L 364.073076 129.434944 
L 364.073076 132.136055 
L 365.236568 132.136055 
L 365.236568 131.579766 
L 366.40006 131.579766 
L 366.40006 131.913385 
L 367.563552 131.913385 
L 367.563552 132.803137 
L 368.727044 132.803137 
L 368.727044 133.328711 
L 369.890536 133.328711 
L 369.890536 133.137784 
L 371.054028 133.137784 
L 371.054028 134.10372 
L 372.21752 134.10372 
L 372.21752 143.666489 
L 373.381011 143.666489 
L 373.381011 132.681187 
L 374.544503 132.681187 
L 374.544503 126.816907 
L 375.707995 126.816907 
L 375.707995 106.042809 
L 376.871487 106.042809 
L 376.871487 103.885684 
L 378.034979 103.885684 
L 378.034979 86.541086 
L 379.198471 86.541086 
L 379.198471 86.090075 
L 380.361963 86.090075 
L 380.361963 87.842406 
L 381.525455 87.842406 
L 381.525455 107.549747 
L 382.688947 107.549747 
L 382.688947 108.495856 
L 383.852439 108.495856 
L 383.852439 114.946173 
L 385.015931 114.946173 
L 385.015931 110.678863 
L 386.179422 110.678863 
L 386.179422 110.443246 
L 387.342914 110.443246 
L 387.342914 114.504361 
L 388.506406 114.504361 
L 388.506406 129.737526 
L 389.669898 129.737526 
L 389.669898 134.803969 
L 390.83339 134.803969 
L 390.83339 138.584824 
L 391.996882 138.584824 
L 391.996882 137.366307 
L 393.160374 137.366307 
L 393.160374 135.974475 
L 394.323866 135.974475 
L 394.323866 136.188116 
L 395.487358 136.188116 
L 395.487358 143.319746 
L 396.65085 143.319746 
L 396.65085 141.106385 
L 397.814342 141.106385 
L 397.814342 139.440092 
L 398.977833 139.440092 
L 398.977833 140.396284 
L 400.141325 140.396284 
L 400.141325 164.809227 
L 401.304817 164.809227 
L 401.304817 160.242159 
L 402.468309 160.242159 
L 402.468309 159.744071 
L 403.631801 159.744071 
L 403.631801 151.759087 
L 404.795293 151.759087 
L 404.795293 151.621968 
L 405.958785 151.621968 
L 405.958785 152.311441 
L 407.122277 152.311441 
L 407.122277 158.908926 
L 408.285769 158.908926 
L 408.285769 160.265045 
L 409.449261 160.265045 
L 409.449261 210.101026 
L 410.612753 210.101026 
L 410.612753 164.424363 
L 411.776244 164.424363 
L 411.776244 154.50443 
L 414.103228 154.502368 
L 414.103228 189.547265 
L 415.26672 189.547265 
L 415.26672 194.229311 
L 416.430212 194.229311 
L 416.430212 201.69025 
L 417.593704 201.69025 
L 417.593704 189.31508 
L 418.757196 189.31508 
L 418.757196 188.688841 
L 419.920688 188.688841 
L 419.920688 177.70397 
L 422.247672 177.701908 
L 422.247672 182.277773 
L 423.411164 182.277773 
L 423.411164 202.072456 
L 424.574655 202.072456 
L 424.574655 206.84099 
L 425.738147 206.84099 
L 425.738147 222.960908 
L 426.901639 222.960908 
L 426.901639 226.159604 
L 428.065131 226.159604 
L 428.065131 237.925195 
L 429.228623 237.925195 
L 429.228623 231.827176 
L 430.392115 231.827176 
L 430.392115 229.724637 
L 431.555607 229.724637 
L 431.555607 227.293528 
L 432.719099 227.293528 
L 432.719099 227.039621 
L 433.882591 227.039621 
L 433.882591 227.23194 
L 435.046083 227.23194 
L 435.046083 250.077335 
L 436.209574 250.077335 
L 436.209574 253.139754 
L 437.373066 253.139754 
L 437.373066 251.377405 
L 438.536558 251.377405 
L 438.536558 234.374743 
L 439.70005 234.374743 
L 439.70005 231.263618 
L 440.863542 231.263618 
L 440.863542 231.611224 
L 442.027034 231.611224 
L 442.027034 234.871355 
L 443.190526 234.871355 
L 443.190526 237.409875 
L 444.354018 237.409875 
L 444.354018 242.175277 
L 445.51751 242.175277 
L 445.51751 244.398778 
L 446.681002 244.398778 
L 446.681002 264.606087 
L 447.844494 264.606087 
L 447.844494 273.045757 
L 449.007985 273.045757 
L 449.007985 282.631059 
L 450.171477 282.631059 
L 450.171477 272.255953 
L 451.334969 272.255953 
L 451.334969 269.343489 
L 452.498461 269.343489 
L 452.498461 265.627367 
L 453.661953 265.627367 
L 453.661953 265.27692 
L 454.825445 265.27692 
L 454.825445 265.564009 
L 455.988937 265.564009 
L 455.988937 278.040481 
L 458.315921 278.135416 
L 458.315921 279.890511 
L 459.479413 279.890511 
L 459.479413 270.953344 
L 460.642905 270.953344 
L 460.642905 269.910584 
L 461.806396 269.910584 
L 461.806396 270.655536 
L 462.969888 270.655536 
L 462.969888 281.496976 
L 464.13338 281.496976 
L 464.13338 290.793732 
L 466.460364 290.79167 
L 466.460364 278.566219 
L 467.623856 278.566219 
L 467.623856 269.89497 
L 469.95084 269.892908 
L 469.95084 300.675008 
L 471.114332 300.675008 
L 471.114332 293.356877 
L 472.277824 293.356877 
L 472.277824 293.052576 
L 473.441316 293.052576 
L 473.441316 290.696822 
L 474.604807 290.696822 
L 474.604807 289.034126 
L 475.768299 289.034126 
L 475.768299 287.295327 
L 476.931791 287.295327 
L 476.931791 285.547906 
L 479.258775 285.545844 
L 479.258775 304.467513 
L 480.422267 304.467513 
L 480.422267 308.359116 
L 481.585759 308.359116 
L 481.585759 302.950138 
L 483.912743 302.948076 
L 483.912743 310.459954 
L 485.076235 310.459954 
L 485.076235 312.244052 
L 486.239727 312.244052 
L 486.239727 311.665195 
L 487.403218 311.665195 
L 487.403218 289.223044 
L 488.56671 289.223044 
L 488.56671 287.268333 
L 489.730202 287.268333 
L 489.730202 287.543489 
L 490.893694 287.543489 
L 490.893694 296.188367 
L 492.057186 296.188367 
L 492.057186 304.076529 
L 493.220678 304.076529 
L 493.220678 306.892679 
L 495.547662 306.990539 
L 495.547662 306.990539 
" style="fill:none;stroke:#696969;stroke-linecap:square;stroke-width:0.9;"/>
   </g>
   <g id="line2d_22">
    <path clip-path="url(#pdefaf358b2)" d="M 30.150898 475.7 
L 33.874073 475.555805 
L 34.572168 475.406657 
L 34.804866 448.373426 
L 35.037564 475.379139 
L 35.502961 475.454539 
L 38.760739 475.223387 
L 41.320421 474.884364 
L 41.785818 474.703845 
L 42.018516 474.498009 
L 42.251214 473.981219 
L 42.483913 471.746199 
L 42.716611 458.272787 
L 42.949309 471.692264 
L 43.182008 473.871147 
L 43.414706 474.3318 
L 43.880103 474.535984 
L 44.810896 474.517272 
L 47.603277 474.141375 
L 52.489943 473.272353 
L 57.376609 472.18869 
L 61.099783 471.134197 
L 62.96137 470.384604 
L 63.892164 469.813878 
L 64.590259 469.148491 
L 65.055656 468.456686 
L 65.521052 467.364217 
L 65.986449 465.552425 
L 66.917243 461.090641 
L 67.149941 461.491855 
L 68.313433 466.445663 
L 68.77883 467.227727 
L 69.244227 467.603625 
L 69.942322 467.784143 
L 70.640417 467.726906 
L 71.57121 467.436315 
L 72.502004 466.936036 
L 73.200099 466.370814 
L 73.898194 465.526558 
L 74.596289 464.215596 
L 75.759781 461.359768 
L 75.99248 461.145677 
L 76.225178 461.191907 
L 76.690575 461.884263 
L 77.621368 463.546356 
L 78.086765 464.02407 
L 78.78486 464.375751 
L 79.482955 464.458306 
L 80.413749 464.34383 
L 81.809939 463.927206 
L 83.671526 463.12753 
L 85.765812 461.980026 
L 87.627399 460.681171 
L 89.023589 459.429098 
L 90.187081 458.077959 
L 91.117874 456.693799 
L 92.048668 454.9475 
L 94.375652 450.125228 
L 95.073747 449.380038 
L 96.469937 448.28757 
L 97.168032 447.301871 
L 97.866128 445.800484 
L 98.564223 443.741029 
L 99.495016 440.224216 
L 100.891206 434.750866 
L 101.356603 433.580246 
L 101.822 433.055751 
L 102.054698 433.061805 
L 102.287397 433.246176 
L 102.752794 434.084928 
L 103.450889 436.170249 
L 105.312476 442.293027 
L 106.243269 444.382751 
L 106.941364 445.470266 
L 107.63946 446.223712 
L 108.570253 446.837916 
L 109.733745 447.228123 
L 112.526126 447.761974 
L 114.155014 447.888557 
L 115.551205 447.788391 
L 117.412792 447.395433 
L 119.507077 446.703628 
L 122.299458 445.533558 
L 125.789933 443.827986 
L 130.443901 441.278709 
L 135.330567 438.334823 
L 139.519138 435.589067 
L 143.940407 432.422284 
L 147.430883 429.667722 
L 150.921359 426.615965 
L 153.946438 423.667676 
L 156.971516 420.383666 
L 159.996595 416.751277 
L 167.442944 407.596555 
L 169.071832 406.030225 
L 170.700721 404.766594 
L 172.32961 403.796856 
L 174.191197 402.971313 
L 176.983577 402.026892 
L 180.008656 400.964143 
L 182.33564 399.909649 
L 184.429926 398.719216 
L 186.524211 397.289926 
L 188.851195 395.421447 
L 191.178179 393.269531 
L 193.737861 390.589819 
L 196.530241 387.30746 
L 199.322622 383.667916 
L 202.347701 379.347574 
L 205.838177 373.935865 
L 210.724843 365.859853 
L 216.076905 357.109097 
L 218.636588 353.325358 
L 220.963571 350.289011 
L 222.825158 348.197085 
L 224.686746 346.434276 
L 226.315634 345.16459 
L 228.177221 344.013784 
L 230.038808 343.146413 
L 232.133094 342.452407 
L 234.460078 341.930113 
L 238.881347 341.242711 
L 242.371823 340.602089 
L 245.164203 339.848094 
L 247.491187 338.997234 
L 249.818171 337.918524 
L 252.145155 336.599307 
L 254.472138 335.036829 
L 257.031821 333.039015 
L 259.591503 330.757214 
L 262.383883 327.95422 
L 265.176264 324.838071 
L 268.201343 321.122577 
L 271.45912 316.742246 
L 274.716898 311.984917 
L 278.207373 306.485149 
L 281.930547 300.171947 
L 285.653722 293.412401 
L 289.609594 285.751912 
L 293.565467 277.61591 
L 297.986736 267.97577 
L 302.408005 257.786918 
L 307.061973 246.510001 
L 312.414035 232.912207 
L 318.464193 216.87851 
L 327.074033 193.32852 
L 336.614667 167.340427 
L 341.501333 154.63587 
L 345.457206 144.92088 
L 348.947681 136.911462 
L 351.97276 130.49259 
L 354.765141 125.066571 
L 357.324823 120.56461 
L 359.651807 116.898649 
L 361.978791 113.667474 
L 364.073076 111.15287 
L 365.934663 109.244214 
L 367.79625 107.653118 
L 369.425139 106.528178 
L 371.054028 105.656404 
L 372.682916 105.0422 
L 374.311805 104.686666 
L 375.940694 104.589803 
L 377.336884 104.712533 
L 378.965773 105.096686 
L 380.594661 105.734005 
L 382.22355 106.62339 
L 383.852439 107.761539 
L 385.714026 109.355938 
L 387.575613 111.253586 
L 389.669898 113.740672 
L 391.764184 116.578888 
L 394.091167 120.121018 
L 396.65085 124.451267 
L 399.44323 129.648885 
L 402.468309 135.768911 
L 405.958785 143.371611 
L 409.914657 152.543944 
L 415.034022 165.044867 
L 422.48037 183.893114 
L 433.184496 210.940655 
L 439.234653 225.631468 
L 444.819415 238.586439 
L 449.938779 249.865007 
L 454.592747 259.589904 
L 459.246714 268.791406 
L 463.667984 277.048487 
L 468.089253 284.839412 
L 472.510522 292.176287 
L 476.699093 298.721192 
L 480.887664 304.891301 
L 485.541631 311.325033 
L 489.962901 317.050448 
L 494.151472 322.149552 
L 498.572741 327.207379 
L 503.226708 332.19531 
L 507.880676 336.864581 
L 512.767342 341.450748 
L 517.886706 345.933997 
L 519.050198 346.909788 
L 519.050198 346.909788 
" style="fill:none;stroke:#000000;stroke-linecap:square;stroke-width:1.5;"/>
   </g>
   <g id="line2d_23">
    <path clip-path="url(#pdefaf358b2)" d="M 30.150898 475.7 
L 36.201056 475.595431 
L 42.251214 475.270167 
L 48.068674 474.737417 
L 53.886133 473.98232 
L 59.936291 472.959197 
L 65.753751 471.750052 
L 71.803909 470.266826 
L 77.854067 468.566758 
L 84.369621 466.513357 
L 91.81597 463.915098 
L 99.960413 460.812708 
L 109.501047 456.903487 
L 120.437871 452.153312 
L 133.46898 446.238572 
L 147.198184 439.785577 
L 159.996595 433.549426 
L 171.166118 427.853179 
L 179.775958 423.227937 
L 187.920401 418.597741 
L 195.366749 414.089726 
L 201.649606 410.039612 
L 207.699764 405.888782 
L 213.517223 401.631181 
L 219.101984 397.266811 
L 224.454047 392.799522 
L 229.80611 388.02183 
L 234.692776 383.363015 
L 239.579442 378.393797 
L 244.23341 373.349179 
L 248.887377 367.975444 
L 253.541345 362.247277 
L 257.962614 356.454717 
L 262.383883 350.297817 
L 266.572454 344.109547 
L 270.993723 337.181039 
L 275.414993 329.825451 
L 279.836262 322.02462 
L 284.257531 313.762035 
L 288.678801 305.02669 
L 293.332768 295.312801 
L 297.986736 285.069463 
L 302.873402 273.757873 
L 307.992766 261.33235 
L 313.577527 247.181993 
L 320.32578 229.440523 
L 338.941651 180.068649 
L 343.36292 169.218812 
L 347.086094 160.669489 
L 350.343872 153.747036 
L 353.136252 148.302305 
L 355.695934 143.760717 
L 358.022918 140.041371 
L 360.349902 136.743602 
L 362.444188 134.158001 
L 364.305775 132.178899 
L 366.167362 130.512403 
L 367.79625 129.317567 
L 369.425139 128.374797 
L 371.054028 127.686845 
L 372.682916 127.258113 
L 374.311805 127.090252 
L 375.707995 127.154094 
L 377.336884 127.471653 
L 378.965773 128.048433 
L 380.594661 128.882231 
L 382.22355 129.969746 
L 384.085137 131.516814 
L 385.946724 133.379789 
L 387.808311 135.548216 
L 389.902597 138.338001 
L 391.996882 141.480017 
L 394.323866 145.359519 
L 396.883548 150.062913 
L 399.675929 155.665598 
L 402.701008 162.224262 
L 406.191483 170.328342 
L 410.380054 180.656435 
L 415.499419 193.911904 
L 423.87656 216.3309 
L 433.882591 242.952461 
L 440.165447 259.010923 
L 445.51751 272.091927 
L 450.404176 283.480568 
L 455.290842 294.302336 
L 459.944809 304.066308 
L 464.598777 313.29698 
L 469.020046 321.578827 
L 473.441316 329.39727 
L 477.862585 336.767167 
L 482.283854 343.707232 
L 486.705123 350.236727 
L 491.126393 356.377116 
L 495.78036 362.443205 
L 500.201629 367.850512 
L 504.622899 372.933105 
L 509.276866 377.954058 
L 514.163532 382.886402 
L 519.050198 387.496234 
L 519.050198 387.496234 
" style="fill:none;stroke:#000000;stroke-dasharray:5.55,2.4;stroke-dashoffset:0;stroke-width:1.5;"/>
   </g>
   <g id="line2d_24">
    <path clip-path="url(#pdefaf358b2)" d="M 30.150898 475.7 
L 40.389627 475.589928 
L 53.420737 475.204674 
L 73.898194 474.587718 
L 120.903267 473.255842 
L 133.934377 472.560185 
L 143.940407 471.811692 
L 152.317549 470.969088 
L 159.2985 470.052185 
L 165.348658 469.040069 
L 170.700721 467.920083 
L 175.354689 466.724697 
L 179.543259 465.426393 
L 183.499132 463.96298 
L 186.989608 462.441779 
L 190.480083 460.667963 
L 193.505162 458.899099 
L 196.76294 456.728471 
L 199.788019 454.455476 
L 203.045796 451.738339 
L 207.001669 448.134019 
L 214.215318 441.47739 
L 216.542302 439.65349 
L 218.403889 438.441593 
L 220.032778 437.610547 
L 221.661667 437.028814 
L 223.057857 436.747029 
L 224.454047 436.676582 
L 225.850237 436.818025 
L 227.246428 437.167505 
L 228.875316 437.823537 
L 230.504205 438.720076 
L 232.365792 439.994165 
L 234.692776 441.873651 
L 237.950553 444.831296 
L 245.862298 452.142305 
L 249.352774 455.002536 
L 252.610551 457.377899 
L 255.868329 459.467623 
L 259.126106 461.289872 
L 262.616582 462.97508 
L 266.107057 464.420331 
L 270.06293 465.811096 
L 274.484199 467.107748 
L 278.905468 468.184257 
L 284.024833 469.211232 
L 290.074991 470.188125 
L 296.590545 471.022473 
L 304.50229 471.811692 
L 313.810226 472.515055 
L 324.514351 473.11605 
L 339.407048 473.709341 
L 361.280696 474.272361 
L 383.154343 474.628445 
L 426.668941 475.032411 
L 474.372109 475.260261 
L 519.050198 475.382441 
L 519.050198 475.382441 
" style="fill:none;stroke:#000000;stroke-dasharray:5.55,2.4;stroke-dashoffset:0;stroke-width:1.5;"/>
   </g>
   <g id="line2d_25">
    <path clip-path="url(#pdefaf358b2)" d="M 30.150898 475.7 
L 45.974388 475.589377 
L 113.456919 475.001591 
L 125.557235 474.60588 
L 133.46898 474.143576 
L 139.053741 473.630639 
L 143.940407 472.96415 
L 147.663581 472.245928 
L 150.921359 471.402223 
L 153.946438 470.381302 
L 156.738818 469.19362 
L 159.531199 467.764881 
L 166.279452 464.147351 
L 167.90834 463.629461 
L 169.304531 463.424726 
L 170.700721 463.466003 
L 172.096911 463.74944 
L 173.7258 464.341079 
L 175.820085 465.386766 
L 183.499132 469.513931 
L 186.291513 470.639972 
L 189.316592 471.603105 
L 192.574369 472.398378 
L 196.530241 473.111648 
L 201.184209 473.706589 
L 206.76897 474.19476 
L 214.215318 474.616337 
L 225.617539 474.990583 
L 241.673727 475.261912 
L 267.735946 475.460042 
L 320.093082 475.597082 
L 519.050198 475.680737 
L 519.050198 475.680737 
" style="fill:none;stroke:#000000;stroke-dasharray:5.55,2.4;stroke-dashoffset:0;stroke-width:1.5;"/>
   </g>
   <g id="line2d_26">
    <path clip-path="url(#pdefaf358b2)" d="M 30.150898 475.7 
L 92.281366 475.591579 
L 100.42581 475.385743 
L 103.916285 475.099005 
L 106.243269 474.709899 
L 110.43184 473.878302 
L 111.595332 473.988925 
L 113.689617 474.491955 
L 116.016601 474.969119 
L 118.576283 475.263563 
L 122.532156 475.4727 
L 130.443901 475.609741 
L 156.040723 475.681838 
L 519.050198 475.7 
L 519.050198 475.7 
" style="fill:none;stroke:#000000;stroke-dasharray:5.55,2.4;stroke-dashoffset:0;stroke-width:1.5;"/>
   </g>
   <g id="line2d_27">
    <path clip-path="url(#pdefaf358b2)" d="M 30.150898 475.7 
L 49.697563 475.589377 
L 71.338512 475.379139 
L 79.715654 475.097354 
L 84.60232 474.723658 
L 87.627399 474.291624 
L 89.954383 473.736859 
L 91.583271 473.138615 
L 92.979461 472.392324 
L 94.142953 471.512296 
L 95.073747 470.556317 
L 96.00454 469.278927 
L 96.935334 467.556844 
L 97.866128 465.238719 
L 98.796921 462.206224 
L 101.123905 453.706984 
L 101.589302 452.991514 
L 101.822 452.899053 
L 102.054698 452.991514 
L 102.520095 453.706984 
L 102.985492 455.010241 
L 103.916285 458.563929 
L 105.312476 463.814382 
L 106.243269 466.481436 
L 107.174063 468.482553 
L 108.104856 469.964678 
L 109.03565 471.068153 
L 110.199142 472.074766 
L 111.362634 472.799592 
L 112.758824 473.423703 
L 114.620411 473.991676 
L 116.947395 474.450128 
L 120.205172 474.838683 
L 124.85914 475.144134 
L 132.770885 475.388495 
L 147.430883 475.555255 
L 175.587387 475.644413 
L 239.114045 475.68404 
L 519.050198 475.698349 
L 519.050198 475.698349 
" style="fill:none;stroke:#000000;stroke-dasharray:5.55,2.4;stroke-dashoffset:0;stroke-width:1.5;"/>
   </g>
   <g id="line2d_28">
    <path clip-path="url(#pdefaf358b2)" d="M 30.150898 475.7 
L 73.665496 475.589377 
L 82.508034 475.375286 
L 85.99851 475.084145 
L 88.092795 474.690636 
L 89.488986 474.205217 
L 90.652478 473.537628 
L 91.583271 472.7352 
L 92.746763 471.374705 
L 93.677557 470.338373 
L 94.142953 470.068696 
L 94.60835 470.068696 
L 95.073747 470.338373 
L 95.771842 471.084664 
L 97.400731 472.961949 
L 98.331524 473.697233 
L 99.495016 474.305383 
L 100.891206 474.749525 
L 102.752794 475.084145 
L 105.545174 475.336211 
L 110.43184 475.51783 
L 120.903267 475.631755 
L 156.040723 475.687342 
L 519.050198 475.7 
L 519.050198 475.7 
" style="fill:none;stroke:#000000;stroke-dasharray:5.55,2.4;stroke-dashoffset:0;stroke-width:1.5;"/>
   </g>
   <g id="line2d_29">
    <path clip-path="url(#pdefaf358b2)" d="M 30.150898 475.7 
L 65.521052 475.589928 
L 69.709623 475.405556 
L 71.57121 475.135329 
L 72.734702 474.74237 
L 73.432797 474.299329 
L 74.130893 473.539279 
L 74.828988 472.262439 
L 75.759781 470.298197 
L 75.99248 470.16666 
L 76.225178 470.298197 
L 76.690575 471.162265 
L 77.621368 473.178792 
L 78.319463 474.090742 
L 79.017559 474.619639 
L 79.948352 475.012598 
L 81.344542 475.302088 
L 83.671526 475.499118 
L 88.325494 475.620198 
L 100.193111 475.679086 
L 154.877231 475.697799 
L 519.050198 475.7 
L 519.050198 475.7 
" style="fill:none;stroke:#000000;stroke-dasharray:5.55,2.4;stroke-dashoffset:0;stroke-width:1.5;"/>
   </g>
   <g id="patch_5">
    <path d="M 30.150898 475.7 
L 30.150898 35.4104 
" style="fill:none;stroke:#000000;stroke-linecap:square;stroke-linejoin:miter;stroke-width:0.8;"/>
   </g>
   <g id="patch_6">
    <path d="M 30.150898 475.7 
L 518.8175 475.7 
" style="fill:none;stroke:#000000;stroke-linecap:square;stroke-linejoin:miter;stroke-width:0.8;"/>
   </g>
   <g id="text_23">
    <!-- 2 -->
    <g transform="translate(518.8175 310.5914)scale(0.14 -0.14)">
     <use xlink:href="#DejaVuSans-32"/>
    </g>
   </g>
   <g id="text_24">
    <!-- 1 -->
    <g transform="translate(511.836549 277.56968)scale(0.14 -0.14)">
     <use xlink:href="#DejaVuSans-31"/>
    </g>
   </g>
   <g id="text_25">
    <!-- GTR -->
    <defs>
     <path d="M 59.515625 10.40625 
L 59.515625 29.984375 
L 43.40625 29.984375 
L 43.40625 38.09375 
L 69.28125 38.09375 
L 69.28125 6.78125 
Q 63.578125 2.734375 56.6875 0.65625 
Q 49.8125 -1.421875 42 -1.421875 
Q 24.90625 -1.421875 15.25 8.5625 
Q 5.609375 18.5625 5.609375 36.375 
Q 5.609375 54.25 15.25 64.234375 
Q 24.90625 74.21875 42 74.21875 
Q 49.125 74.21875 55.546875 72.453125 
Q 61.96875 70.703125 67.390625 67.28125 
L 67.390625 56.78125 
Q 61.921875 61.421875 55.765625 63.765625 
Q 49.609375 66.109375 42.828125 66.109375 
Q 29.4375 66.109375 22.71875 58.640625 
Q 16.015625 51.171875 16.015625 36.375 
Q 16.015625 21.625 22.71875 14.15625 
Q 29.4375 6.6875 42.828125 6.6875 
Q 48.046875 6.6875 52.140625 7.59375 
Q 56.25 8.5 59.515625 10.40625 
z
" id="DejaVuSans-47"/>
     <path d="M -0.296875 72.90625 
L 61.375 72.90625 
L 61.375 64.59375 
L 35.5 64.59375 
L 35.5 0 
L 25.59375 0 
L 25.59375 64.59375 
L -0.296875 64.59375 
z
" id="DejaVuSans-54"/>
     <path d="M 44.390625 34.1875 
Q 47.5625 33.109375 50.5625 29.59375 
Q 53.5625 26.078125 56.59375 19.921875 
L 66.609375 0 
L 56 0 
L 46.6875 18.703125 
Q 43.0625 26.03125 39.671875 28.421875 
Q 36.28125 30.8125 30.421875 30.8125 
L 19.671875 30.8125 
L 19.671875 0 
L 9.8125 0 
L 9.8125 72.90625 
L 32.078125 72.90625 
Q 44.578125 72.90625 50.734375 67.671875 
Q 56.890625 62.453125 56.890625 51.90625 
Q 56.890625 45.015625 53.6875 40.46875 
Q 50.484375 35.9375 44.390625 34.1875 
z
M 19.671875 64.796875 
L 19.671875 38.921875 
L 32.078125 38.921875 
Q 39.203125 38.921875 42.84375 42.21875 
Q 46.484375 45.515625 46.484375 51.90625 
Q 46.484375 58.296875 42.84375 61.546875 
Q 39.203125 64.796875 32.078125 64.796875 
z
" id="DejaVuSans-52"/>
    </defs>
    <g transform="translate(365.236568 84.94298)scale(0.14 -0.14)">
     <use xlink:href="#DejaVuSans-47"/>
     <use x="77.443359" xlink:href="#DejaVuSans-54"/>
     <use x="138.527344" xlink:href="#DejaVuSans-52"/>
    </g>
   </g>
   <g id="text_26">
    <!-- PR1 -->
    <defs>
     <path d="M 19.671875 64.796875 
L 19.671875 37.40625 
L 32.078125 37.40625 
Q 38.96875 37.40625 42.71875 40.96875 
Q 46.484375 44.53125 46.484375 51.125 
Q 46.484375 57.671875 42.71875 61.234375 
Q 38.96875 64.796875 32.078125 64.796875 
z
M 9.8125 72.90625 
L 32.078125 72.90625 
Q 44.34375 72.90625 50.609375 67.359375 
Q 56.890625 61.8125 56.890625 51.125 
Q 56.890625 40.328125 50.609375 34.8125 
Q 44.34375 29.296875 32.078125 29.296875 
L 19.671875 29.296875 
L 19.671875 0 
L 9.8125 0 
z
" id="DejaVuSans-50"/>
    </defs>
    <g transform="translate(216.076905 321.59864)scale(0.14 -0.14)">
     <use xlink:href="#DejaVuSans-50"/>
     <use x="60.302734" xlink:href="#DejaVuSans-52"/>
     <use x="129.785156" xlink:href="#DejaVuSans-31"/>
    </g>
   </g>
   <g id="text_27">
    <!-- PR2 -->
    <g transform="translate(158.135008 393.1457)scale(0.14 -0.14)">
     <use xlink:href="#DejaVuSans-50"/>
     <use x="60.302734" xlink:href="#DejaVuSans-52"/>
     <use x="129.785156" xlink:href="#DejaVuSans-32"/>
    </g>
   </g>
   <g id="text_28">
    <!-- PR3 -->
    <g transform="translate(92.979461 426.16742)scale(0.14 -0.14)">
     <use xlink:href="#DejaVuSans-50"/>
     <use x="60.302734" xlink:href="#DejaVuSans-52"/>
     <use x="129.785156" xlink:href="#DejaVuSans-33"/>
    </g>
   </g>
  </g>
 </g>
 <defs>
  <clipPath id="pdefaf358b2">
   <rect height="440.2896" width="488.666602" x="30.150898" y="35.4104"/>
  </clipPath>
 </defs>
</svg>
