<?xml version="1.0" encoding="utf-8" standalone="no"?>
<!DOCTYPE svg PUBLIC "-//W3C//DTD SVG 1.1//EN"
  "http://www.w3.org/Graphics/SVG/1.1/DTD/svg11.dtd">
<!-- Created with matplotlib (http://matplotlib.org/) -->
<svg height="504pt" version="1.1" viewBox="0 0 936 504" width="936pt" xmlns="http://www.w3.org/2000/svg" xmlns:xlink="http://www.w3.org/1999/xlink">
 <defs>
  <style type="text/css">
*{stroke-linecap:butt;stroke-linejoin:round;}
  </style>
 </defs>
 <g id="figure_1">
  <g id="patch_1">
   <path d="M 0 504 
L 936 504 
L 936 0 
L 0 0 
z
" style="fill:#ffffff;"/>
  </g>
  <g id="axes_1">
   <g id="patch_2">
    <path d="M 54.8 458.2 
L 918.825 458.2 
L 918.825 14.3 
L 54.8 14.3 
z
" style="fill:#ffffff;"/>
   </g>
   <g id="matplotlib.axis_1">
    <g id="xtick_1">
     <g id="line2d_1">
      <defs>
       <path d="M 0 0 
L 0 3.5 
" id="m49a0801a67" style="stroke:#000000;stroke-width:0.8;"/>
      </defs>
      <g>
       <use style="stroke:#000000;stroke-width:0.8;" x="54.8" xlink:href="#m49a0801a67" y="458.2"/>
      </g>
     </g>
     <g id="text_1">
      <!-- 0 -->
      <defs>
       <path d="M 31.78125 66.40625 
Q 24.171875 66.40625 20.328125 58.90625 
Q 16.5 51.421875 16.5 36.375 
Q 16.5 21.390625 20.328125 13.890625 
Q 24.171875 6.390625 31.78125 6.390625 
Q 39.453125 6.390625 43.28125 13.890625 
Q 47.125 21.390625 47.125 36.375 
Q 47.125 51.421875 43.28125 58.90625 
Q 39.453125 66.40625 31.78125 66.40625 
z
M 31.78125 74.21875 
Q 44.046875 74.21875 50.515625 64.515625 
Q 56.984375 54.828125 56.984375 36.375 
Q 56.984375 17.96875 50.515625 8.265625 
Q 44.046875 -1.421875 31.78125 -1.421875 
Q 19.53125 -1.421875 13.0625 8.265625 
Q 6.59375 17.96875 6.59375 36.375 
Q 6.59375 54.828125 13.0625 64.515625 
Q 19.53125 74.21875 31.78125 74.21875 
z
" id="DejaVuSans-30"/>
      </defs>
      <g transform="translate(51.61875 472.798437)scale(0.1 -0.1)">
       <use xlink:href="#DejaVuSans-30"/>
      </g>
     </g>
    </g>
    <g id="xtick_2">
     <g id="line2d_2">
      <g>
       <use style="stroke:#000000;stroke-width:0.8;" x="89.361" xlink:href="#m49a0801a67" y="458.2"/>
      </g>
     </g>
     <g id="text_2">
      <!-- 1 -->
      <defs>
       <path d="M 12.40625 8.296875 
L 28.515625 8.296875 
L 28.515625 63.921875 
L 10.984375 60.40625 
L 10.984375 69.390625 
L 28.421875 72.90625 
L 38.28125 72.90625 
L 38.28125 8.296875 
L 54.390625 8.296875 
L 54.390625 0 
L 12.40625 0 
z
" id="DejaVuSans-31"/>
      </defs>
      <g transform="translate(86.17975 472.798437)scale(0.1 -0.1)">
       <use xlink:href="#DejaVuSans-31"/>
      </g>
     </g>
    </g>
    <g id="xtick_3">
     <g id="line2d_3">
      <g>
       <use style="stroke:#000000;stroke-width:0.8;" x="123.922" xlink:href="#m49a0801a67" y="458.2"/>
      </g>
     </g>
     <g id="text_3">
      <!-- 2 -->
      <defs>
       <path d="M 19.1875 8.296875 
L 53.609375 8.296875 
L 53.609375 0 
L 7.328125 0 
L 7.328125 8.296875 
Q 12.9375 14.109375 22.625 23.890625 
Q 32.328125 33.6875 34.8125 36.53125 
Q 39.546875 41.84375 41.421875 45.53125 
Q 43.3125 49.21875 43.3125 52.78125 
Q 43.3125 58.59375 39.234375 62.25 
Q 35.15625 65.921875 28.609375 65.921875 
Q 23.96875 65.921875 18.8125 64.3125 
Q 13.671875 62.703125 7.8125 59.421875 
L 7.8125 69.390625 
Q 13.765625 71.78125 18.9375 73 
Q 24.125 74.21875 28.421875 74.21875 
Q 39.75 74.21875 46.484375 68.546875 
Q 53.21875 62.890625 53.21875 53.421875 
Q 53.21875 48.921875 51.53125 44.890625 
Q 49.859375 40.875 45.40625 35.40625 
Q 44.1875 33.984375 37.640625 27.21875 
Q 31.109375 20.453125 19.1875 8.296875 
z
" id="DejaVuSans-32"/>
      </defs>
      <g transform="translate(120.74075 472.798437)scale(0.1 -0.1)">
       <use xlink:href="#DejaVuSans-32"/>
      </g>
     </g>
    </g>
    <g id="xtick_4">
     <g id="line2d_4">
      <g>
       <use style="stroke:#000000;stroke-width:0.8;" x="158.483" xlink:href="#m49a0801a67" y="458.2"/>
      </g>
     </g>
     <g id="text_4">
      <!-- 3 -->
      <defs>
       <path d="M 40.578125 39.3125 
Q 47.65625 37.796875 51.625 33 
Q 55.609375 28.21875 55.609375 21.1875 
Q 55.609375 10.40625 48.1875 4.484375 
Q 40.765625 -1.421875 27.09375 -1.421875 
Q 22.515625 -1.421875 17.65625 -0.515625 
Q 12.796875 0.390625 7.625 2.203125 
L 7.625 11.71875 
Q 11.71875 9.328125 16.59375 8.109375 
Q 21.484375 6.890625 26.8125 6.890625 
Q 36.078125 6.890625 40.9375 10.546875 
Q 45.796875 14.203125 45.796875 21.1875 
Q 45.796875 27.640625 41.28125 31.265625 
Q 36.765625 34.90625 28.71875 34.90625 
L 20.21875 34.90625 
L 20.21875 43.015625 
L 29.109375 43.015625 
Q 36.375 43.015625 40.234375 45.921875 
Q 44.09375 48.828125 44.09375 54.296875 
Q 44.09375 59.90625 40.109375 62.90625 
Q 36.140625 65.921875 28.71875 65.921875 
Q 24.65625 65.921875 20.015625 65.03125 
Q 15.375 64.15625 9.8125 62.3125 
L 9.8125 71.09375 
Q 15.4375 72.65625 20.34375 73.4375 
Q 25.25 74.21875 29.59375 74.21875 
Q 40.828125 74.21875 47.359375 69.109375 
Q 53.90625 64.015625 53.90625 55.328125 
Q 53.90625 49.265625 50.4375 45.09375 
Q 46.96875 40.921875 40.578125 39.3125 
z
" id="DejaVuSans-33"/>
      </defs>
      <g transform="translate(155.30175 472.798437)scale(0.1 -0.1)">
       <use xlink:href="#DejaVuSans-33"/>
      </g>
     </g>
    </g>
    <g id="xtick_5">
     <g id="line2d_5">
      <g>
       <use style="stroke:#000000;stroke-width:0.8;" x="193.044" xlink:href="#m49a0801a67" y="458.2"/>
      </g>
     </g>
     <g id="text_5">
      <!-- 4 -->
      <defs>
       <path d="M 37.796875 64.3125 
L 12.890625 25.390625 
L 37.796875 25.390625 
z
M 35.203125 72.90625 
L 47.609375 72.90625 
L 47.609375 25.390625 
L 58.015625 25.390625 
L 58.015625 17.1875 
L 47.609375 17.1875 
L 47.609375 0 
L 37.796875 0 
L 37.796875 17.1875 
L 4.890625 17.1875 
L 4.890625 26.703125 
z
" id="DejaVuSans-34"/>
      </defs>
      <g transform="translate(189.86275 472.798437)scale(0.1 -0.1)">
       <use xlink:href="#DejaVuSans-34"/>
      </g>
     </g>
    </g>
    <g id="xtick_6">
     <g id="line2d_6">
      <g>
       <use style="stroke:#000000;stroke-width:0.8;" x="227.605" xlink:href="#m49a0801a67" y="458.2"/>
      </g>
     </g>
     <g id="text_6">
      <!-- 5 -->
      <defs>
       <path d="M 10.796875 72.90625 
L 49.515625 72.90625 
L 49.515625 64.59375 
L 19.828125 64.59375 
L 19.828125 46.734375 
Q 21.96875 47.46875 24.109375 47.828125 
Q 26.265625 48.1875 28.421875 48.1875 
Q 40.625 48.1875 47.75 41.5 
Q 54.890625 34.8125 54.890625 23.390625 
Q 54.890625 11.625 47.5625 5.09375 
Q 40.234375 -1.421875 26.90625 -1.421875 
Q 22.3125 -1.421875 17.546875 -0.640625 
Q 12.796875 0.140625 7.71875 1.703125 
L 7.71875 11.625 
Q 12.109375 9.234375 16.796875 8.0625 
Q 21.484375 6.890625 26.703125 6.890625 
Q 35.15625 6.890625 40.078125 11.328125 
Q 45.015625 15.765625 45.015625 23.390625 
Q 45.015625 31 40.078125 35.4375 
Q 35.15625 39.890625 26.703125 39.890625 
Q 22.75 39.890625 18.8125 39.015625 
Q 14.890625 38.140625 10.796875 36.28125 
z
" id="DejaVuSans-35"/>
      </defs>
      <g transform="translate(224.42375 472.798437)scale(0.1 -0.1)">
       <use xlink:href="#DejaVuSans-35"/>
      </g>
     </g>
    </g>
    <g id="xtick_7">
     <g id="line2d_7">
      <g>
       <use style="stroke:#000000;stroke-width:0.8;" x="262.166" xlink:href="#m49a0801a67" y="458.2"/>
      </g>
     </g>
     <g id="text_7">
      <!-- 6 -->
      <defs>
       <path d="M 33.015625 40.375 
Q 26.375 40.375 22.484375 35.828125 
Q 18.609375 31.296875 18.609375 23.390625 
Q 18.609375 15.53125 22.484375 10.953125 
Q 26.375 6.390625 33.015625 6.390625 
Q 39.65625 6.390625 43.53125 10.953125 
Q 47.40625 15.53125 47.40625 23.390625 
Q 47.40625 31.296875 43.53125 35.828125 
Q 39.65625 40.375 33.015625 40.375 
z
M 52.59375 71.296875 
L 52.59375 62.3125 
Q 48.875 64.0625 45.09375 64.984375 
Q 41.3125 65.921875 37.59375 65.921875 
Q 27.828125 65.921875 22.671875 59.328125 
Q 17.53125 52.734375 16.796875 39.40625 
Q 19.671875 43.65625 24.015625 45.921875 
Q 28.375 48.1875 33.59375 48.1875 
Q 44.578125 48.1875 50.953125 41.515625 
Q 57.328125 34.859375 57.328125 23.390625 
Q 57.328125 12.15625 50.6875 5.359375 
Q 44.046875 -1.421875 33.015625 -1.421875 
Q 20.359375 -1.421875 13.671875 8.265625 
Q 6.984375 17.96875 6.984375 36.375 
Q 6.984375 53.65625 15.1875 63.9375 
Q 23.390625 74.21875 37.203125 74.21875 
Q 40.921875 74.21875 44.703125 73.484375 
Q 48.484375 72.75 52.59375 71.296875 
z
" id="DejaVuSans-36"/>
      </defs>
      <g transform="translate(258.98475 472.798437)scale(0.1 -0.1)">
       <use xlink:href="#DejaVuSans-36"/>
      </g>
     </g>
    </g>
    <g id="xtick_8">
     <g id="line2d_8">
      <g>
       <use style="stroke:#000000;stroke-width:0.8;" x="296.727" xlink:href="#m49a0801a67" y="458.2"/>
      </g>
     </g>
     <g id="text_8">
      <!-- 7 -->
      <defs>
       <path d="M 8.203125 72.90625 
L 55.078125 72.90625 
L 55.078125 68.703125 
L 28.609375 0 
L 18.3125 0 
L 43.21875 64.59375 
L 8.203125 64.59375 
z
" id="DejaVuSans-37"/>
      </defs>
      <g transform="translate(293.54575 472.798437)scale(0.1 -0.1)">
       <use xlink:href="#DejaVuSans-37"/>
      </g>
     </g>
    </g>
    <g id="xtick_9">
     <g id="line2d_9">
      <g>
       <use style="stroke:#000000;stroke-width:0.8;" x="331.288" xlink:href="#m49a0801a67" y="458.2"/>
      </g>
     </g>
     <g id="text_9">
      <!-- 8 -->
      <defs>
       <path d="M 31.78125 34.625 
Q 24.75 34.625 20.71875 30.859375 
Q 16.703125 27.09375 16.703125 20.515625 
Q 16.703125 13.921875 20.71875 10.15625 
Q 24.75 6.390625 31.78125 6.390625 
Q 38.8125 6.390625 42.859375 10.171875 
Q 46.921875 13.96875 46.921875 20.515625 
Q 46.921875 27.09375 42.890625 30.859375 
Q 38.875 34.625 31.78125 34.625 
z
M 21.921875 38.8125 
Q 15.578125 40.375 12.03125 44.71875 
Q 8.5 49.078125 8.5 55.328125 
Q 8.5 64.0625 14.71875 69.140625 
Q 20.953125 74.21875 31.78125 74.21875 
Q 42.671875 74.21875 48.875 69.140625 
Q 55.078125 64.0625 55.078125 55.328125 
Q 55.078125 49.078125 51.53125 44.71875 
Q 48 40.375 41.703125 38.8125 
Q 48.828125 37.15625 52.796875 32.3125 
Q 56.78125 27.484375 56.78125 20.515625 
Q 56.78125 9.90625 50.3125 4.234375 
Q 43.84375 -1.421875 31.78125 -1.421875 
Q 19.734375 -1.421875 13.25 4.234375 
Q 6.78125 9.90625 6.78125 20.515625 
Q 6.78125 27.484375 10.78125 32.3125 
Q 14.796875 37.15625 21.921875 38.8125 
z
M 18.3125 54.390625 
Q 18.3125 48.734375 21.84375 45.5625 
Q 25.390625 42.390625 31.78125 42.390625 
Q 38.140625 42.390625 41.71875 45.5625 
Q 45.3125 48.734375 45.3125 54.390625 
Q 45.3125 60.0625 41.71875 63.234375 
Q 38.140625 66.40625 31.78125 66.40625 
Q 25.390625 66.40625 21.84375 63.234375 
Q 18.3125 60.0625 18.3125 54.390625 
z
" id="DejaVuSans-38"/>
      </defs>
      <g transform="translate(328.10675 472.798437)scale(0.1 -0.1)">
       <use xlink:href="#DejaVuSans-38"/>
      </g>
     </g>
    </g>
    <g id="xtick_10">
     <g id="line2d_10">
      <g>
       <use style="stroke:#000000;stroke-width:0.8;" x="365.849" xlink:href="#m49a0801a67" y="458.2"/>
      </g>
     </g>
     <g id="text_10">
      <!-- 9 -->
      <defs>
       <path d="M 10.984375 1.515625 
L 10.984375 10.5 
Q 14.703125 8.734375 18.5 7.8125 
Q 22.3125 6.890625 25.984375 6.890625 
Q 35.75 6.890625 40.890625 13.453125 
Q 46.046875 20.015625 46.78125 33.40625 
Q 43.953125 29.203125 39.59375 26.953125 
Q 35.25 24.703125 29.984375 24.703125 
Q 19.046875 24.703125 12.671875 31.3125 
Q 6.296875 37.9375 6.296875 49.421875 
Q 6.296875 60.640625 12.9375 67.421875 
Q 19.578125 74.21875 30.609375 74.21875 
Q 43.265625 74.21875 49.921875 64.515625 
Q 56.59375 54.828125 56.59375 36.375 
Q 56.59375 19.140625 48.40625 8.859375 
Q 40.234375 -1.421875 26.421875 -1.421875 
Q 22.703125 -1.421875 18.890625 -0.6875 
Q 15.09375 0.046875 10.984375 1.515625 
z
M 30.609375 32.421875 
Q 37.25 32.421875 41.125 36.953125 
Q 45.015625 41.5 45.015625 49.421875 
Q 45.015625 57.28125 41.125 61.84375 
Q 37.25 66.40625 30.609375 66.40625 
Q 23.96875 66.40625 20.09375 61.84375 
Q 16.21875 57.28125 16.21875 49.421875 
Q 16.21875 41.5 20.09375 36.953125 
Q 23.96875 32.421875 30.609375 32.421875 
z
" id="DejaVuSans-39"/>
      </defs>
      <g transform="translate(362.66775 472.798437)scale(0.1 -0.1)">
       <use xlink:href="#DejaVuSans-39"/>
      </g>
     </g>
    </g>
    <g id="xtick_11">
     <g id="line2d_11">
      <g>
       <use style="stroke:#000000;stroke-width:0.8;" x="400.41" xlink:href="#m49a0801a67" y="458.2"/>
      </g>
     </g>
     <g id="text_11">
      <!-- 10 -->
      <g transform="translate(394.0475 472.798437)scale(0.1 -0.1)">
       <use xlink:href="#DejaVuSans-31"/>
       <use x="63.623047" xlink:href="#DejaVuSans-30"/>
      </g>
     </g>
    </g>
    <g id="xtick_12">
     <g id="line2d_12">
      <g>
       <use style="stroke:#000000;stroke-width:0.8;" x="434.971" xlink:href="#m49a0801a67" y="458.2"/>
      </g>
     </g>
     <g id="text_12">
      <!-- 11 -->
      <g transform="translate(428.6085 472.798437)scale(0.1 -0.1)">
       <use xlink:href="#DejaVuSans-31"/>
       <use x="63.623047" xlink:href="#DejaVuSans-31"/>
      </g>
     </g>
    </g>
    <g id="xtick_13">
     <g id="line2d_13">
      <g>
       <use style="stroke:#000000;stroke-width:0.8;" x="469.532" xlink:href="#m49a0801a67" y="458.2"/>
      </g>
     </g>
     <g id="text_13">
      <!-- 12 -->
      <g transform="translate(463.1695 472.798437)scale(0.1 -0.1)">
       <use xlink:href="#DejaVuSans-31"/>
       <use x="63.623047" xlink:href="#DejaVuSans-32"/>
      </g>
     </g>
    </g>
    <g id="xtick_14">
     <g id="line2d_14">
      <g>
       <use style="stroke:#000000;stroke-width:0.8;" x="504.093" xlink:href="#m49a0801a67" y="458.2"/>
      </g>
     </g>
     <g id="text_14">
      <!-- 13 -->
      <g transform="translate(497.7305 472.798437)scale(0.1 -0.1)">
       <use xlink:href="#DejaVuSans-31"/>
       <use x="63.623047" xlink:href="#DejaVuSans-33"/>
      </g>
     </g>
    </g>
    <g id="xtick_15">
     <g id="line2d_15">
      <g>
       <use style="stroke:#000000;stroke-width:0.8;" x="538.654" xlink:href="#m49a0801a67" y="458.2"/>
      </g>
     </g>
     <g id="text_15">
      <!-- 14 -->
      <g transform="translate(532.2915 472.798437)scale(0.1 -0.1)">
       <use xlink:href="#DejaVuSans-31"/>
       <use x="63.623047" xlink:href="#DejaVuSans-34"/>
      </g>
     </g>
    </g>
    <g id="xtick_16">
     <g id="line2d_16">
      <g>
       <use style="stroke:#000000;stroke-width:0.8;" x="573.215" xlink:href="#m49a0801a67" y="458.2"/>
      </g>
     </g>
     <g id="text_16">
      <!-- 15 -->
      <g transform="translate(566.8525 472.798437)scale(0.1 -0.1)">
       <use xlink:href="#DejaVuSans-31"/>
       <use x="63.623047" xlink:href="#DejaVuSans-35"/>
      </g>
     </g>
    </g>
    <g id="xtick_17">
     <g id="line2d_17">
      <g>
       <use style="stroke:#000000;stroke-width:0.8;" x="607.776" xlink:href="#m49a0801a67" y="458.2"/>
      </g>
     </g>
     <g id="text_17">
      <!-- 16 -->
      <g transform="translate(601.4135 472.798437)scale(0.1 -0.1)">
       <use xlink:href="#DejaVuSans-31"/>
       <use x="63.623047" xlink:href="#DejaVuSans-36"/>
      </g>
     </g>
    </g>
    <g id="xtick_18">
     <g id="line2d_18">
      <g>
       <use style="stroke:#000000;stroke-width:0.8;" x="642.337" xlink:href="#m49a0801a67" y="458.2"/>
      </g>
     </g>
     <g id="text_18">
      <!-- 17 -->
      <g transform="translate(635.9745 472.798437)scale(0.1 -0.1)">
       <use xlink:href="#DejaVuSans-31"/>
       <use x="63.623047" xlink:href="#DejaVuSans-37"/>
      </g>
     </g>
    </g>
    <g id="xtick_19">
     <g id="line2d_19">
      <g>
       <use style="stroke:#000000;stroke-width:0.8;" x="676.898" xlink:href="#m49a0801a67" y="458.2"/>
      </g>
     </g>
     <g id="text_19">
      <!-- 18 -->
      <g transform="translate(670.5355 472.798437)scale(0.1 -0.1)">
       <use xlink:href="#DejaVuSans-31"/>
       <use x="63.623047" xlink:href="#DejaVuSans-38"/>
      </g>
     </g>
    </g>
    <g id="xtick_20">
     <g id="line2d_20">
      <g>
       <use style="stroke:#000000;stroke-width:0.8;" x="711.459" xlink:href="#m49a0801a67" y="458.2"/>
      </g>
     </g>
     <g id="text_20">
      <!-- 19 -->
      <g transform="translate(705.0965 472.798437)scale(0.1 -0.1)">
       <use xlink:href="#DejaVuSans-31"/>
       <use x="63.623047" xlink:href="#DejaVuSans-39"/>
      </g>
     </g>
    </g>
    <g id="xtick_21">
     <g id="line2d_21">
      <g>
       <use style="stroke:#000000;stroke-width:0.8;" x="746.02" xlink:href="#m49a0801a67" y="458.2"/>
      </g>
     </g>
     <g id="text_21">
      <!-- 20 -->
      <g transform="translate(739.6575 472.798437)scale(0.1 -0.1)">
       <use xlink:href="#DejaVuSans-32"/>
       <use x="63.623047" xlink:href="#DejaVuSans-30"/>
      </g>
     </g>
    </g>
    <g id="xtick_22">
     <g id="line2d_22">
      <g>
       <use style="stroke:#000000;stroke-width:0.8;" x="780.581" xlink:href="#m49a0801a67" y="458.2"/>
      </g>
     </g>
     <g id="text_22">
      <!-- 21 -->
      <g transform="translate(774.2185 472.798437)scale(0.1 -0.1)">
       <use xlink:href="#DejaVuSans-32"/>
       <use x="63.623047" xlink:href="#DejaVuSans-31"/>
      </g>
     </g>
    </g>
    <g id="xtick_23">
     <g id="line2d_23">
      <g>
       <use style="stroke:#000000;stroke-width:0.8;" x="815.142" xlink:href="#m49a0801a67" y="458.2"/>
      </g>
     </g>
     <g id="text_23">
      <!-- 22 -->
      <g transform="translate(808.7795 472.798437)scale(0.1 -0.1)">
       <use xlink:href="#DejaVuSans-32"/>
       <use x="63.623047" xlink:href="#DejaVuSans-32"/>
      </g>
     </g>
    </g>
    <g id="xtick_24">
     <g id="line2d_24">
      <g>
       <use style="stroke:#000000;stroke-width:0.8;" x="849.703" xlink:href="#m49a0801a67" y="458.2"/>
      </g>
     </g>
     <g id="text_24">
      <!-- 23 -->
      <g transform="translate(843.3405 472.798437)scale(0.1 -0.1)">
       <use xlink:href="#DejaVuSans-32"/>
       <use x="63.623047" xlink:href="#DejaVuSans-33"/>
      </g>
     </g>
    </g>
    <g id="xtick_25">
     <g id="line2d_25">
      <g>
       <use style="stroke:#000000;stroke-width:0.8;" x="884.264" xlink:href="#m49a0801a67" y="458.2"/>
      </g>
     </g>
     <g id="text_25">
      <!-- 24 -->
      <g transform="translate(877.9015 472.798437)scale(0.1 -0.1)">
       <use xlink:href="#DejaVuSans-32"/>
       <use x="63.623047" xlink:href="#DejaVuSans-34"/>
      </g>
     </g>
    </g>
    <g id="xtick_26">
     <g id="line2d_26">
      <g>
       <use style="stroke:#000000;stroke-width:0.8;" x="918.825" xlink:href="#m49a0801a67" y="458.2"/>
      </g>
     </g>
     <g id="text_26">
      <!-- 25 -->
      <g transform="translate(912.4625 472.798437)scale(0.1 -0.1)">
       <use xlink:href="#DejaVuSans-32"/>
       <use x="63.623047" xlink:href="#DejaVuSans-35"/>
      </g>
     </g>
    </g>
    <g id="text_27">
     <!-- E, MeV -->
     <defs>
      <path d="M 9.8125 72.90625 
L 55.90625 72.90625 
L 55.90625 64.59375 
L 19.671875 64.59375 
L 19.671875 43.015625 
L 54.390625 43.015625 
L 54.390625 34.71875 
L 19.671875 34.71875 
L 19.671875 8.296875 
L 56.78125 8.296875 
L 56.78125 0 
L 9.8125 0 
z
" id="DejaVuSans-45"/>
      <path d="M 11.71875 12.40625 
L 22.015625 12.40625 
L 22.015625 4 
L 14.015625 -11.625 
L 7.71875 -11.625 
L 11.71875 4 
z
" id="DejaVuSans-2c"/>
      <path id="DejaVuSans-20"/>
      <path d="M 9.8125 72.90625 
L 24.515625 72.90625 
L 43.109375 23.296875 
L 61.8125 72.90625 
L 76.515625 72.90625 
L 76.515625 0 
L 66.890625 0 
L 66.890625 64.015625 
L 48.09375 14.015625 
L 38.1875 14.015625 
L 19.390625 64.015625 
L 19.390625 0 
L 9.8125 0 
z
" id="DejaVuSans-4d"/>
      <path d="M 56.203125 29.59375 
L 56.203125 25.203125 
L 14.890625 25.203125 
Q 15.484375 15.921875 20.484375 11.0625 
Q 25.484375 6.203125 34.421875 6.203125 
Q 39.59375 6.203125 44.453125 7.46875 
Q 49.3125 8.734375 54.109375 11.28125 
L 54.109375 2.78125 
Q 49.265625 0.734375 44.1875 -0.34375 
Q 39.109375 -1.421875 33.890625 -1.421875 
Q 20.796875 -1.421875 13.15625 6.1875 
Q 5.515625 13.8125 5.515625 26.8125 
Q 5.515625 40.234375 12.765625 48.109375 
Q 20.015625 56 32.328125 56 
Q 43.359375 56 49.78125 48.890625 
Q 56.203125 41.796875 56.203125 29.59375 
z
M 47.21875 32.234375 
Q 47.125 39.59375 43.09375 43.984375 
Q 39.0625 48.390625 32.421875 48.390625 
Q 24.90625 48.390625 20.390625 44.140625 
Q 15.875 39.890625 15.1875 32.171875 
z
" id="DejaVuSans-65"/>
      <path d="M 28.609375 0 
L 0.78125 72.90625 
L 11.078125 72.90625 
L 34.1875 11.53125 
L 57.328125 72.90625 
L 67.578125 72.90625 
L 39.796875 0 
z
" id="DejaVuSans-56"/>
     </defs>
     <g transform="translate(462.804688 489.515938)scale(0.14 -0.14)">
      <use xlink:href="#DejaVuSans-45"/>
      <use x="63.183594" xlink:href="#DejaVuSans-2c"/>
      <use x="94.970703" xlink:href="#DejaVuSans-20"/>
      <use x="126.757812" xlink:href="#DejaVuSans-4d"/>
      <use x="213.037109" xlink:href="#DejaVuSans-65"/>
      <use x="274.560547" xlink:href="#DejaVuSans-56"/>
     </g>
    </g>
   </g>
   <g id="matplotlib.axis_2">
    <g id="ytick_1">
     <g id="line2d_27">
      <defs>
       <path d="M 0 0 
L -3.5 0 
" id="m0067dd66a0" style="stroke:#000000;stroke-width:0.8;"/>
      </defs>
      <g>
       <use style="stroke:#000000;stroke-width:0.8;" x="54.8" xlink:href="#m0067dd66a0" y="458.2"/>
      </g>
     </g>
     <g id="text_28">
      <!-- 0.0 -->
      <defs>
       <path d="M 10.6875 12.40625 
L 21 12.40625 
L 21 0 
L 10.6875 0 
z
" id="DejaVuSans-2e"/>
      </defs>
      <g transform="translate(31.896875 461.999219)scale(0.1 -0.1)">
       <use xlink:href="#DejaVuSans-30"/>
       <use x="63.623047" xlink:href="#DejaVuSans-2e"/>
       <use x="95.410156" xlink:href="#DejaVuSans-30"/>
      </g>
     </g>
    </g>
    <g id="ytick_2">
     <g id="line2d_28">
      <g>
       <use style="stroke:#000000;stroke-width:0.8;" x="54.8" xlink:href="#m0067dd66a0" y="378.932143"/>
      </g>
     </g>
     <g id="text_29">
      <!-- 0.5 -->
      <g transform="translate(31.896875 382.731362)scale(0.1 -0.1)">
       <use xlink:href="#DejaVuSans-30"/>
       <use x="63.623047" xlink:href="#DejaVuSans-2e"/>
       <use x="95.410156" xlink:href="#DejaVuSans-35"/>
      </g>
     </g>
    </g>
    <g id="ytick_3">
     <g id="line2d_29">
      <g>
       <use style="stroke:#000000;stroke-width:0.8;" x="54.8" xlink:href="#m0067dd66a0" y="299.664286"/>
      </g>
     </g>
     <g id="text_30">
      <!-- 1.0 -->
      <g transform="translate(31.896875 303.463504)scale(0.1 -0.1)">
       <use xlink:href="#DejaVuSans-31"/>
       <use x="63.623047" xlink:href="#DejaVuSans-2e"/>
       <use x="95.410156" xlink:href="#DejaVuSans-30"/>
      </g>
     </g>
    </g>
    <g id="ytick_4">
     <g id="line2d_30">
      <g>
       <use style="stroke:#000000;stroke-width:0.8;" x="54.8" xlink:href="#m0067dd66a0" y="220.396429"/>
      </g>
     </g>
     <g id="text_31">
      <!-- 1.5 -->
      <g transform="translate(31.896875 224.195647)scale(0.1 -0.1)">
       <use xlink:href="#DejaVuSans-31"/>
       <use x="63.623047" xlink:href="#DejaVuSans-2e"/>
       <use x="95.410156" xlink:href="#DejaVuSans-35"/>
      </g>
     </g>
    </g>
    <g id="ytick_5">
     <g id="line2d_31">
      <g>
       <use style="stroke:#000000;stroke-width:0.8;" x="54.8" xlink:href="#m0067dd66a0" y="141.128571"/>
      </g>
     </g>
     <g id="text_32">
      <!-- 2.0 -->
      <g transform="translate(31.896875 144.92779)scale(0.1 -0.1)">
       <use xlink:href="#DejaVuSans-32"/>
       <use x="63.623047" xlink:href="#DejaVuSans-2e"/>
       <use x="95.410156" xlink:href="#DejaVuSans-30"/>
      </g>
     </g>
    </g>
    <g id="ytick_6">
     <g id="line2d_32">
      <g>
       <use style="stroke:#000000;stroke-width:0.8;" x="54.8" xlink:href="#m0067dd66a0" y="61.860714"/>
      </g>
     </g>
     <g id="text_33">
      <!-- 2.5 -->
      <g transform="translate(31.896875 65.659933)scale(0.1 -0.1)">
       <use xlink:href="#DejaVuSans-32"/>
       <use x="63.623047" xlink:href="#DejaVuSans-2e"/>
       <use x="95.410156" xlink:href="#DejaVuSans-35"/>
      </g>
     </g>
    </g>
    <g id="text_34">
     <!-- $S(E)$, отн. ед. -->
     <defs>
      <path d="M 60.296875 70.515625 
L 58.40625 60.890625 
Q 53.46875 63.53125 48.609375 64.875 
Q 43.75 66.21875 39.203125 66.21875 
Q 30.375 66.21875 25.140625 62.359375 
Q 19.921875 58.5 19.921875 52.09375 
Q 19.921875 48.578125 21.84375 46.703125 
Q 23.78125 44.828125 31.78125 42.671875 
L 37.703125 41.21875 
Q 47.703125 38.625 51.609375 34.640625 
Q 55.515625 30.671875 55.515625 23.484375 
Q 55.515625 12.453125 46.84375 5.515625 
Q 38.1875 -1.421875 24.03125 -1.421875 
Q 18.21875 -1.421875 12.359375 -0.265625 
Q 6.5 0.875 0.59375 3.21875 
L 2.59375 13.375 
Q 8.015625 10.015625 13.453125 8.296875 
Q 18.890625 6.59375 24.3125 6.59375 
Q 33.546875 6.59375 39.109375 10.6875 
Q 44.671875 14.796875 44.671875 21.390625 
Q 44.671875 25.78125 42.453125 28.046875 
Q 40.234375 30.328125 32.90625 32.171875 
L 27 33.6875 
Q 16.890625 36.328125 13.203125 39.765625 
Q 9.515625 43.21875 9.515625 49.421875 
Q 9.515625 60.296875 17.890625 67.25 
Q 26.265625 74.21875 39.703125 74.21875 
Q 44.921875 74.21875 50.046875 73.28125 
Q 55.171875 72.359375 60.296875 70.515625 
z
" id="DejaVuSans-Oblique-53"/>
      <path d="M 31 75.875 
Q 24.46875 64.65625 21.28125 53.65625 
Q 18.109375 42.671875 18.109375 31.390625 
Q 18.109375 20.125 21.3125 9.0625 
Q 24.515625 -2 31 -13.1875 
L 23.1875 -13.1875 
Q 15.875 -1.703125 12.234375 9.375 
Q 8.59375 20.453125 8.59375 31.390625 
Q 8.59375 42.28125 12.203125 53.3125 
Q 15.828125 64.359375 23.1875 75.875 
z
" id="DejaVuSans-28"/>
      <path d="M 16.890625 72.90625 
L 62.984375 72.90625 
L 61.375 64.59375 
L 25.09375 64.59375 
L 20.90625 43.015625 
L 55.71875 43.015625 
L 54.109375 34.71875 
L 19.28125 34.71875 
L 14.203125 8.296875 
L 51.3125 8.296875 
L 49.703125 0 
L 2.6875 0 
z
" id="DejaVuSans-Oblique-45"/>
      <path d="M 8.015625 75.875 
L 15.828125 75.875 
Q 23.140625 64.359375 26.78125 53.3125 
Q 30.421875 42.28125 30.421875 31.390625 
Q 30.421875 20.453125 26.78125 9.375 
Q 23.140625 -1.703125 15.828125 -13.1875 
L 8.015625 -13.1875 
Q 14.5 -2 17.703125 9.0625 
Q 20.90625 20.125 20.90625 31.390625 
Q 20.90625 42.671875 17.703125 53.65625 
Q 14.5 64.65625 8.015625 75.875 
z
" id="DejaVuSans-29"/>
      <path d="M 30.609375 48.390625 
Q 23.390625 48.390625 19.1875 42.75 
Q 14.984375 37.109375 14.984375 27.296875 
Q 14.984375 17.484375 19.15625 11.84375 
Q 23.34375 6.203125 30.609375 6.203125 
Q 37.796875 6.203125 41.984375 11.859375 
Q 46.1875 17.53125 46.1875 27.296875 
Q 46.1875 37.015625 41.984375 42.703125 
Q 37.796875 48.390625 30.609375 48.390625 
z
M 30.609375 56 
Q 42.328125 56 49.015625 48.375 
Q 55.71875 40.765625 55.71875 27.296875 
Q 55.71875 13.875 49.015625 6.21875 
Q 42.328125 -1.421875 30.609375 -1.421875 
Q 18.84375 -1.421875 12.171875 6.21875 
Q 5.515625 13.875 5.515625 27.296875 
Q 5.515625 40.765625 12.171875 48.375 
Q 18.84375 56 30.609375 56 
z
" id="DejaVuSans-43e"/>
      <path d="M 2.9375 54.6875 
L 55.328125 54.6875 
L 55.328125 47.515625 
L 33.546875 47.515625 
L 33.546875 0 
L 24.703125 0 
L 24.703125 47.515625 
L 2.9375 47.515625 
z
" id="DejaVuSans-442"/>
      <path d="M 9.078125 54.6875 
L 18.109375 54.6875 
L 18.109375 32.375 
L 47.265625 32.375 
L 47.265625 54.6875 
L 56.296875 54.6875 
L 56.296875 0 
L 47.265625 0 
L 47.265625 25.203125 
L 18.109375 25.203125 
L 18.109375 0 
L 9.078125 0 
z
" id="DejaVuSans-43d"/>
      <path d="M 56.203125 29.59375 
L 56.203125 25.203125 
L 14.890625 25.203125 
Q 15.484375 15.921875 20.484375 11.0625 
Q 25.484375 6.203125 34.421875 6.203125 
Q 39.59375 6.203125 44.453125 7.46875 
Q 49.3125 8.734375 54.109375 11.28125 
L 54.109375 2.78125 
Q 49.265625 0.734375 44.1875 -0.34375 
Q 39.109375 -1.421875 33.890625 -1.421875 
Q 20.796875 -1.421875 13.15625 6.1875 
Q 5.515625 13.8125 5.515625 26.8125 
Q 5.515625 40.234375 12.765625 48.109375 
Q 20.015625 56 32.328125 56 
Q 43.359375 56 49.78125 48.890625 
Q 56.203125 41.796875 56.203125 29.59375 
z
M 47.21875 32.234375 
Q 47.125 39.59375 43.09375 43.984375 
Q 39.0625 48.390625 32.421875 48.390625 
Q 24.90625 48.390625 20.390625 44.140625 
Q 15.875 39.890625 15.1875 32.171875 
z
" id="DejaVuSans-435"/>
      <path d="M 21.625 7.171875 
L 47.703125 7.171875 
L 47.703125 47.515625 
L 28.8125 47.515625 
L 28.8125 40.671875 
Q 28.8125 20.5625 23.046875 9.8125 
z
M 8.59375 7.171875 
Q 13.03125 9.125 14.984375 13.28125 
Q 19.78125 23.578125 19.78125 44.34375 
L 19.78125 54.6875 
L 56.734375 54.6875 
L 56.734375 7.171875 
L 63.921875 7.171875 
L 63.921875 -13.8125 
L 56.734375 -13.8125 
L 56.734375 0 
L 12.40625 0 
L 12.40625 -13.8125 
L 5.21875 -13.8125 
L 5.21875 7.171875 
z
" id="DejaVuSans-434"/>
     </defs>
     <g transform="translate(24.985312 283.85)rotate(-90)scale(0.14 -0.14)">
      <use transform="translate(0 0.125)" xlink:href="#DejaVuSans-Oblique-53"/>
      <use transform="translate(63.476562 0.125)" xlink:href="#DejaVuSans-28"/>
      <use transform="translate(102.490234 0.125)" xlink:href="#DejaVuSans-Oblique-45"/>
      <use transform="translate(165.673828 0.125)" xlink:href="#DejaVuSans-29"/>
      <use transform="translate(204.6875 0.125)" xlink:href="#DejaVuSans-2c"/>
      <use transform="translate(236.474609 0.125)" xlink:href="#DejaVuSans-20"/>
      <use transform="translate(268.261719 0.125)" xlink:href="#DejaVuSans-43e"/>
      <use transform="translate(329.443359 0.125)" xlink:href="#DejaVuSans-442"/>
      <use transform="translate(387.695312 0.125)" xlink:href="#DejaVuSans-43d"/>
      <use transform="translate(453.076172 0.125)" xlink:href="#DejaVuSans-2e"/>
      <use transform="translate(484.863281 0.125)" xlink:href="#DejaVuSans-20"/>
      <use transform="translate(516.650391 0.125)" xlink:href="#DejaVuSans-435"/>
      <use transform="translate(578.173828 0.125)" xlink:href="#DejaVuSans-434"/>
      <use transform="translate(647.314453 0.125)" xlink:href="#DejaVuSans-2e"/>
     </g>
    </g>
   </g>
   <g id="line2d_33">
    <path clip-path="url(#p5c7ec68d08)" d="M 66.930455 456.427464 
L 69.82094 456.425042 
L 71.472646 454.360336 
L 75.188985 456.420545 
L 80.144103 456.416393 
L 84.273368 456.799806 
L 86.750927 455.379197 
L 88.81556 452.798314 
L 90.880192 455.633652 
L 92.531898 457.17976 
L 95.83531 456.489218 
L 100.377502 457.121604 
L 104.09384 455.493624 
L 106.571399 452.783437 
L 109.874811 455.445794 
L 114.82993 455.957473 
L 118.546268 456.212275 
L 121.023827 454.490764 
L 123.08846 452.769599 
L 125.978945 451.735516 
L 128.869431 451.991009 
L 131.34699 452.76268 
L 131.34699 452.76268 
L 135.063328 451.899848 
L 137.127961 451.726175 
L 138.779667 448.113977 
L 140.018447 448.112939 
L 140.8443 445.017264 
L 143.734785 445.014842 
L 145.386491 442.434305 
L 147.038197 442.432921 
L 148.689903 442.689453 
L 149.928683 443.462161 
L 150.754536 445.524791 
L 151.580389 445.524099 
L 152.819168 445.780976 
L 154.470874 447.585 
L 156.12258 445.520293 
L 157.774286 445.51891 
L 159.425992 441.906712 
L 160.664772 441.905674 
L 162.316478 437.433758 
L 164.381111 437.260085 
L 166.445743 437.430298 
L 168.097449 444.478599 
L 169.749155 444.649159 
L 173.465494 446.537424 
L 176.768906 439.828859 
L 180.072318 439.826091 
L 183.37573 440.854985 
L 187.092069 441.023814 
L 190.395481 442.396595 
L 193.698893 441.018279 
L 197.415231 440.499335 
L 201.544496 440.710805 
L 204.022055 441.095602 
L 207.325467 442.038523 
L 211.041806 442.379297 
L 213.106439 444.440889 
L 214.758145 440.312861 
L 216.822777 440.311131 
L 220.126189 441.340024 
L 220.621701 440.720613 
L 225.494234 441.163583 
L 228.797646 437.721945 
L 230.036425 437.720907 
L 231.688131 437.891467 
L 235.40447 440.811393 
L 238.707882 437.713642 
L 240.772515 437.711912 
L 242.837147 437.968098 
L 244.075927 439.256636 
L 245.727633 435.300551 
L 247.379339 435.127224 
L 249.031045 432.2028 
L 250.682751 432.029473 
L 252.334457 429.448936 
L 254.399089 429.447206 
L 256.463722 429.61742 
L 258.115428 435.118229 
L 259.767134 430.130482 
L 261.41884 429.957155 
L 262.65762 429.956117 
L 265.961032 433.048333 
L 269.264444 428.40309 
L 271.742003 428.401014 
L 273.393709 424.01507 
L 275.045415 423.755771 
L 276.697121 424.012303 
L 277.9359 424.785011 
L 278.761753 433.553439 
L 280.000533 426.072857 
L 281.652239 425.813558 
L 283.303945 425.812174 
L 285.368578 429.421259 
L 287.43321 425.808715 
L 288.67199 425.807677 
L 290.323696 424.430745 
L 292.388328 424.257071 
L 294.040034 421.676535 
L 295.69174 421.417235 
L 297.343446 413.420477 
L 298.582226 413.419439 
L 300.646858 413.546667 
L 303.124417 414.18938 
L 305.601977 413.2846 
L 308.079536 409.800668 
L 309.318315 409.79963 
L 310.970021 409.97019 
L 313.034654 414.954822 
L 314.68636 408.247641 
L 316.338066 408.246257 
L 318.402698 401.538729 
L 320.054404 401.537346 
L 321.70611 400.504301 
L 325.422449 400.759102 
L 328.725861 395.855944 
L 330.377567 395.85456 
L 332.029273 392.242362 
L 333.680979 392.240978 
L 335.745612 390.347869 
L 337.397318 390.174542 
L 338.636097 390.43142 
L 339.874877 391.204128 
L 340.70073 396.877572 
L 341.939509 389.139075 
L 345.242921 388.792421 
L 349.372186 388.617017 
L 351.023892 390.936871 
L 352.675599 389.387996 
L 354.327305 389.128696 
L 356.391937 387.751418 
L 358.043643 387.578091 
L 359.695349 385.169498 
L 361.759982 384.995824 
L 363.411688 385.252356 
L 365.063394 391.95677 
L 366.7151 389.118318 
L 368.366806 389.116934 
L 370.018512 389.373465 
L 371.670218 396.335794 
L 373.321924 393.239427 
L 375.386556 393.065754 
L 377.451189 392.204306 
L 378.689969 392.203268 
L 380.341675 386.527748 
L 381.993381 386.526364 
L 383.645087 386.696924 
L 386.535572 390.907118 
L 389.013131 390.647127 
L 390.664837 390.645743 
L 392.316543 392.191851 
L 394.381176 386.515985 
L 396.032882 386.514601 
L 397.684588 386.685161 
L 399.336294 393.733462 
L 400.988 389.261546 
L 403.052633 389.087873 
L 404.704339 389.344404 
L 405.943118 390.117112 
L 406.768971 394.243065 
L 408.007751 386.246653 
L 409.659457 385.987354 
L 411.311163 383.148902 
L 412.962869 382.889603 
L 415.027501 383.059816 
L 416.679207 387.528964 
L 418.330913 387.699524 
L 420.395546 391.652495 
L 422.047252 387.008636 
L 423.698958 387.007252 
L 425.350664 387.263784 
L 427.00237 388.294061 
L 428.654076 374.623166 
L 431.957488 374.620399 
L 434.022121 385.966942 
L 436.086753 379.775245 
L 437.325533 379.774207 
L 438.977239 368.596494 
L 441.041871 368.42282 
L 442.693577 368.421437 
L 445.996989 377.187789 
L 449.300402 374.347953 
L 450.952108 374.088654 
L 453.01674 369.444449 
L 455.081373 369.442719 
L 456.733079 369.69925 
L 457.971858 379.756909 
L 459.623564 370.642518 
L 461.27527 370.469191 
L 462.51405 365.051931 
L 463.752829 364.277148 
L 464.991609 364.27611 
L 466.643315 364.532641 
L 467.882094 365.305349 
L 468.707947 368.915472 
L 469.946727 359.371568 
L 471.598433 359.112268 
L 473.663066 349.481701 
L 475.727698 349.308028 
L 477.379404 348.274982 
L 479.03111 348.273599 
L 480.682816 348.53013 
L 482.334522 350.849984 
L 484.399155 336.404997 
L 486.050861 335.887783 
L 487.702567 254.900996 
L 489.354273 254.899612 
L 490.593052 76.421188 
L 494.722317 76.417728 
L 496.374023 91.375432 
L 498.02573 91.631963 
L 499.677436 248.958911 
L 501.329142 249.215442 
L 502.980848 315.49829 
L 504.632554 315.754821 
L 506.697186 317.816414 
L 508.761819 318.072599 
L 510.000598 319.361138 
L 511.652304 319.359754 
L 513.716937 329.416721 
L 515.368643 314.714165 
L 517.020349 314.712781 
L 518.672055 314.969313 
L 520.323761 320.126235 
L 521.975467 312.129477 
L 523.627173 312.128093 
L 525.691806 303.873074 
L 527.343512 303.87169 
L 528.995218 294.585355 
L 530.646924 294.583971 
L 532.29863 294.754531 
L 534.363262 311.861183 
L 536.014968 295.611135 
L 538.905454 295.608713 
L 540.970086 297.928221 
L 543.034719 296.808858 
L 544.686425 296.635531 
L 546.957521 286.445974 
L 547.989837 286.316151 
L 549.641543 286.314768 
L 551.293249 297.31777 
L 554.596661 296.627228 
L 557.07422 296.625152 
L 559.964706 298.08425 
L 564.300434 298.295547 
L 565.33275 303.839861 
L 567.397383 298.163995 
L 569.049089 298.162611 
L 570.700795 286.555039 
L 572.352501 286.29574 
L 574.004207 277.525236 
L 577.307619 277.522468 
L 578.959325 287.837696 
L 580.611031 287.836312 
L 582.262737 291.961573 
L 583.914443 289.896867 
L 587.630782 289.893753 
L 589.282488 299.693151 
L 591.760047 300.722736 
L 592.998826 303.816682 
L 594.650533 302.783637 
L 596.302239 302.782253 
L 597.953945 303.038784 
L 599.605651 307.937791 
L 601.670283 305.013021 
L 603.734916 304.839348 
L 605.386622 305.61171 
L 606.625401 316.70103 
L 608.277107 315.152154 
L 609.928813 315.15077 
L 611.580519 311.710516 
L 613.645152 311.536842 
L 615.296858 311.535459 
L 616.535637 312.050251 
L 617.361491 315.660374 
L 618.60027 315.659336 
L 620.251976 341.449482 
L 622.316609 313.5929 
L 624.381241 313.59117 
L 626.032947 313.847701 
L 627.271727 332.15865 
L 628.923433 332.329209 
L 630.988065 335.76635 
L 632.639771 330.60666 
L 634.291477 330.347361 
L 636.35611 325.617184 
L 638.007816 325.443857 
L 639.246595 325.700734 
L 640.898301 336.789708 
L 642.962934 336.959922 
L 645.027567 346.58703 
L 646.679273 346.585646 
L 647.918052 353.290406 
L 649.569758 349.850151 
L 654.937803 349.15788 
L 657.002435 349.328093 
L 658.654141 363.082192 
L 660.305847 360.501655 
L 662.37048 360.24201 
L 664.022186 351.729421 
L 665.260966 351.728384 
L 666.912672 351.898943 
L 668.564378 354.304769 
L 670.216084 354.819216 
L 672.280716 357.396639 
L 673.932422 357.65317 
L 675.584128 370.805467 
L 677.235834 370.804083 
L 678.88754 375.961005 
L 680.952173 369.253477 
L 683.016805 369.251747 
L 684.668511 368.218702 
L 685.907291 368.217664 
L 687.558997 368.388224 
L 689.62363 373.888687 
L 691.688262 374.058901 
L 693.339968 374.917235 
L 694.991674 370.789206 
L 697.88216 370.786785 
L 701.185572 379.72508 
L 704.90191 371.468677 
L 706.966543 371.295004 
L 708.618249 371.551535 
L 710.269955 384.961747 
L 711.921661 381.86538 
L 713.573367 381.60608 
L 715.225073 380.31512 
L 716.876779 380.055821 
L 718.528485 379.022776 
L 722.65775 379.019316 
L 724.309456 392.687443 
L 725.961162 386.238177 
L 728.438721 386.236101 
L 729.677501 386.750894 
L 732.567986 390.789145 
L 736.284325 381.243165 
L 737.936031 381.069838 
L 739.587737 381.240398 
L 741.65237 389.320014 
L 743.304076 388.286969 
L 746.607488 388.284201 
L 747.846267 393.441469 
L 749.085047 383.381735 
L 750.323826 382.606951 
L 751.562606 382.605913 
L 753.214312 382.862444 
L 754.453091 383.635152 
L 755.278944 388.276936 
L 756.93065 388.447496 
L 758.582356 394.464135 
L 760.234062 394.634695 
L 762.298695 400.908904 
L 763.950401 390.848824 
L 765.602107 390.84744 
L 767.253813 382.592766 
L 770.557225 382.589999 
L 772.208931 391.873566 
L 774.273564 378.46024 
L 775.92527 378.458856 
L 777.576976 378.629416 
L 779.228682 396.51016 
L 780.880388 392.038244 
L 782.94502 391.864571 
L 784.596726 392.121102 
L 785.835506 392.89381 
L 786.661359 397.535593 
L 787.900139 393.923741 
L 791.203551 393.920974 
L 792.855257 397.014573 
L 794.506963 389.791561 
L 799.049154 389.787756 
L 800.70086 397.351887 
L 803.178419 397.693698 
L 805.243052 388.750905 
L 806.481831 388.749867 
L 808.133537 380.151307 
L 810.611097 379.977287 
L 812.675729 380.233473 
L 813.914509 394.417776 
L 815.566215 385.131442 
L 818.869627 385.128674 
L 820.934259 391.058996 
L 822.585965 389.768036 
L 825.889377 390.023183 
L 829.605716 390.449929 
L 831.257422 398.01406 
L 832.909128 383.56942 
L 834.560834 383.568036 
L 836.21254 383.738595 
L 839.928879 396.115416 
L 843.645217 393.877036 
L 845.296923 393.875653 
L 846.535703 387.426732 
L 848.187409 387.167433 
L 849.839115 387.166049 
L 853.142527 389.656463 
L 856.445939 389.997582 
L 857.684718 390.77029 
L 858.923498 394.895897 
L 860.575204 392.831191 
L 862.22691 392.829807 
L 864.291543 393.000021 
L 865.943249 396.437507 
L 867.182028 390.762333 
L 870.48544 390.759565 
L 872.550073 407.780245 
L 874.614705 399.009395 
L 875.853485 399.008357 
L 877.505191 397.631425 
L 879.569823 397.457752 
L 881.221529 384.044772 
L 882.873236 384.043389 
L 884.937868 384.213602 
L 886.589574 389.198581 
L 888.24128 389.369141 
L 890.305913 391.25879 
L 891.957619 391.515321 
L 893.609325 395.124751 
L 895.261031 391.770469 
L 898.151516 391.768047 
L 900.216149 398.987945 
L 901.867855 399.244477 
L 902.761437 409.566708 
L 907.768262 389.756408 
L 912.775087 402.261332 
L 917.781911 402.257138 
L 917.781911 402.257138 
" style="fill:none;stroke:#696969;stroke-linecap:square;stroke-width:0.9;"/>
   </g>
   <g id="line2d_34">
    <path clip-path="url(#p5c7ec68d08)" d="M 66.930455 457.894026 
L 75.188985 457.35659 
L 84.273368 456.414888 
L 92.531898 455.24965 
L 100.377502 453.887829 
L 109.874811 451.944181 
L 121.023827 449.317244 
L 131.34699 446.644332 
L 131.34699 446.644332 
L 149.928683 441.770944 
L 156.12258 440.367903 
L 162.316478 439.205836 
L 168.097449 438.392548 
L 173.465494 437.878892 
L 180.072318 437.541211 
L 187.092069 437.438163 
L 213.106439 437.406456 
L 220.621701 437.119506 
L 230.036425 436.483778 
L 235.40447 435.971707 
L 244.075927 434.903177 
L 250.682751 433.87428 
L 256.463722 432.813676 
L 262.65762 431.489903 
L 270.503223 429.505036 
L 276.697121 427.669192 
L 281.652239 426.001396 
L 287.43321 423.819945 
L 292.388328 421.725688 
L 297.343446 419.407896 
L 300.646858 417.732174 
L 305.601977 415.030725 
L 310.970021 411.842572 
L 316.338066 408.422956 
L 321.70611 404.780509 
L 332.029273 397.177299 
L 337.397318 393.549805 
L 340.70073 391.553752 
L 341.939509 390.862665 
L 345.242921 389.210969 
L 349.372186 387.560026 
L 352.675599 386.606989 
L 354.327305 386.252989 
L 358.043643 385.755666 
L 361.759982 385.640816 
L 365.063394 385.822564 
L 368.366806 386.215804 
L 373.321924 387.094793 
L 390.664837 390.658305 
L 396.032882 391.366472 
L 400.988 391.72747 
L 405.943118 391.780241 
L 409.659457 391.613024 
L 412.962869 391.309704 
L 416.679207 390.7992 
L 420.395546 390.109835 
L 425.350664 388.907507 
L 430.305782 387.387348 
L 434.022121 386.033637 
L 438.977239 383.937014 
L 442.693577 382.133096 
L 445.996989 380.354438 
L 450.952108 377.334064 
L 455.081373 374.449265 
L 457.971858 372.186329 
L 461.27527 369.300812 
L 463.752829 366.873175 
L 466.643315 363.666 
L 468.707947 361.05213 
L 469.946727 359.317454 
L 471.598433 356.768616 
L 473.663066 353.083579 
L 475.727698 348.643471 
L 477.379404 344.322803 
L 479.03111 339.028441 
L 480.682816 332.337095 
L 482.334522 323.581328 
L 484.399155 307.975268 
L 486.050861 289.292936 
L 487.702567 261.199635 
L 489.354273 217.756618 
L 490.593052 170.996713 
L 492.657685 73.547957 
L 494.722317 35.925369 
L 496.374023 93.392269 
L 498.02573 168.183659 
L 499.677436 223.26401 
L 501.329142 258.175153 
L 502.980848 279.819733 
L 504.632554 293.42467 
L 506.697186 303.770734 
L 508.761819 309.767699 
L 510.000598 312.056149 
L 511.652304 314.074028 
L 513.716937 315.421602 
L 515.368643 315.848691 
L 517.020349 315.860114 
L 518.672055 315.566846 
L 520.323761 315.037056 
L 521.975467 314.332571 
L 523.627173 313.493026 
L 527.343512 311.266039 
L 532.29863 307.907994 
L 540.970086 301.914881 
L 544.686425 299.537843 
L 549.641543 296.712094 
L 551.293249 295.875229 
L 554.596661 294.382851 
L 557.07422 293.434335 
L 559.964706 292.524718 
L 565.33275 291.44314 
L 569.049089 291.175004 
L 572.352501 291.272056 
L 575.655913 291.686435 
L 578.959325 292.40862 
L 582.262737 293.430678 
L 585.566149 294.736748 
L 589.282488 296.521918 
L 592.998826 298.616085 
L 596.302239 300.705628 
L 599.605651 302.987199 
L 603.734916 306.068268 
L 608.277107 309.693192 
L 615.296858 315.638571 
L 642.962934 339.623864 
L 649.569758 344.883423 
L 657.002435 350.427743 
L 662.37048 354.170665 
L 668.564378 358.210062 
L 673.932422 361.46375 
L 678.88754 364.27113 
L 685.907291 367.931497 
L 691.688262 370.680724 
L 697.88216 373.372895 
L 704.90191 376.130267 
L 711.921661 378.593149 
L 718.528485 380.667404 
L 725.961162 382.73177 
L 732.567986 384.357003 
L 741.65237 386.28833 
L 749.085047 387.635393 
L 756.93065 388.850794 
L 765.602107 389.972934 
L 774.273564 390.882516 
L 782.94502 391.606291 
L 792.855257 392.225455 
L 803.178419 392.6584 
L 815.566215 392.931296 
L 825.889377 392.970721 
L 839.928879 392.795004 
L 853.142527 392.406252 
L 868.833734 391.702404 
L 882.873236 390.878404 
L 900.216149 389.631441 
L 917.781911 388.142093 
L 917.781911 388.142093 
" style="fill:none;stroke:#000000;stroke-linecap:square;stroke-width:1.5;"/>
   </g>
   <g id="line2d_35">
    <path clip-path="url(#p5c7ec68d08)" d="M 66.930455 458.125488 
L 80.144103 457.871831 
L 100.377502 457.237688 
L 147.038197 455.671355 
L 180.072318 454.553679 
L 197.415231 453.767341 
L 213.106439 452.838322 
L 225.494234 451.89662 
L 235.40447 450.96443 
L 245.727633 449.775412 
L 254.399089 448.559443 
L 262.65762 447.165914 
L 270.503223 445.582142 
L 276.697121 444.118858 
L 283.303945 442.311551 
L 288.67199 440.632657 
L 294.040034 438.741326 
L 298.582226 436.965726 
L 303.124417 435.020493 
L 309.318315 432.103436 
L 316.338066 428.469797 
L 333.680979 419.197044 
L 337.397318 417.529248 
L 340.70073 416.268889 
L 341.939509 415.861452 
L 345.242921 414.975237 
L 349.372186 414.317314 
L 352.675599 414.182559 
L 354.327305 414.249144 
L 358.043643 414.719995 
L 361.759982 415.607795 
L 365.063394 416.708033 
L 368.366806 418.052416 
L 373.321924 420.414598 
L 380.341675 424.165553 
L 392.316543 430.636981 
L 399.336294 434.07562 
L 404.704339 436.445729 
L 409.659457 438.42584 
L 415.027501 440.350464 
L 420.395546 442.06265 
L 427.00237 443.903249 
L 434.022121 445.578972 
L 441.041871 447.008964 
L 449.300402 448.427859 
L 457.971858 449.667608 
L 467.882094 450.832845 
L 477.379404 451.752352 
L 489.354273 452.694055 
L 502.980848 453.543806 
L 518.672055 454.307948 
L 538.905454 455.04831 
L 564.300434 455.717331 
L 590.521267 456.210377 
L 622.316609 456.636838 
L 673.932422 457.085494 
L 743.304076 457.440614 
L 843.645217 457.714881 
L 917.781911 457.833782 
L 917.781911 457.833782 
" style="fill:none;stroke:#ff0000;stroke-dasharray:5.55,2.4;stroke-dashoffset:0;stroke-width:1.5;"/>
   </g>
   <g id="line2d_36">
    <path clip-path="url(#p5c7ec68d08)" d="M 66.930455 458.081098 
L 75.188985 457.835368 
L 86.750927 457.220249 
L 95.83531 456.502082 
L 106.571399 455.389162 
L 114.82993 454.349167 
L 125.978945 452.724176 
L 151.580389 448.786149 
L 157.774286 448.120299 
L 162.316478 447.800057 
L 168.097449 447.633595 
L 173.465494 447.730301 
L 180.072318 448.153592 
L 187.092069 448.881271 
L 201.544496 450.759919 
L 214.758145 452.392837 
L 225.494234 453.483563 
L 235.40447 454.295265 
L 249.031045 455.151358 
L 262.65762 455.77916 
L 281.652239 456.392693 
L 303.124417 456.854032 
L 332.029273 457.2472 
L 371.670218 457.561101 
L 436.086753 457.8211 
L 498.02573 457.947928 
L 803.178419 458.130244 
L 917.781911 458.149269 
L 917.781911 458.149269 
" style="fill:none;stroke:#ffa500;stroke-dasharray:5.55,2.4;stroke-dashoffset:0;stroke-width:1.5;"/>
   </g>
   <g id="line2d_37">
    <path clip-path="url(#p5c7ec68d08)" d="M 66.930455 458.168293 
L 294.040034 458.057318 
L 359.695349 457.886099 
L 399.336294 457.569028 
L 420.395546 457.15842 
L 431.957488 456.738301 
L 441.041871 456.199279 
L 445.996989 455.771233 
L 453.01674 454.881847 
L 457.971858 453.927462 
L 461.27527 453.044419 
L 463.752829 452.189911 
L 466.643315 450.89626 
L 468.707947 449.7009 
L 469.946727 448.838466 
L 471.598433 447.473474 
L 473.663066 445.30629 
L 475.727698 442.425696 
L 477.379404 439.380225 
L 479.03111 435.388296 
L 480.682816 430.025033 
L 482.334522 422.61983 
L 484.399155 408.738442 
L 486.050861 391.46122 
L 487.702567 364.797099 
L 489.354273 322.804159 
L 490.593052 277.145873 
L 492.657685 181.563105 
L 494.722317 145.833911 
L 496.374023 204.837734 
L 498.02573 281.183777 
L 499.677436 337.836515 
L 501.329142 374.334607 
L 502.980848 397.580699 
L 504.632554 412.798542 
L 506.697186 425.177011 
L 508.761819 433.221113 
L 510.000598 436.742191 
L 511.652304 440.405951 
L 513.716937 443.819225 
L 515.368643 445.897629 
L 517.020349 447.560668 
L 518.672055 448.911392 
L 520.323761 450.021142 
L 521.975467 450.945406 
L 523.627173 451.722231 
L 527.343512 453.072955 
L 530.646924 453.949658 
L 534.363262 454.69319 
L 538.905454 455.363796 
L 544.686425 455.972573 
L 551.293249 456.456107 
L 559.964706 456.884154 
L 574.004207 457.305859 
L 594.650533 457.635613 
L 627.271727 457.878173 
L 684.668511 458.04305 
L 860.575204 458.157195 
L 917.781911 458.168293 
L 917.781911 458.168293 
" style="fill:none;stroke:#0000ff;stroke-dasharray:5.55,2.4;stroke-dashoffset:0;stroke-width:1.5;"/>
   </g>
   <g id="line2d_38">
    <path clip-path="url(#p5c7ec68d08)" d="M 66.930455 458.119147 
L 80.144103 457.836953 
L 95.83531 457.242444 
L 109.874811 456.49257 
L 128.869431 455.229041 
L 156.12258 453.152223 
L 211.041806 448.984319 
L 256.463722 445.563118 
L 276.697121 443.814469 
L 294.040034 442.095942 
L 309.318315 440.358391 
L 321.70611 438.758765 
L 335.745612 436.693045 
L 345.242921 435.120371 
L 356.391937 433.059406 
L 366.7151 430.916004 
L 375.386556 428.916868 
L 383.645087 426.819441 
L 392.316543 424.392259 
L 400.988 421.705079 
L 409.659457 418.726192 
L 416.679207 416.077061 
L 423.698958 413.191711 
L 430.305782 410.244532 
L 437.325533 406.842355 
L 442.693577 404.039444 
L 449.300402 400.332879 
L 455.081373 396.846679 
L 461.27527 392.843652 
L 466.643315 389.145014 
L 471.598433 385.536741 
L 477.379404 381.089814 
L 484.399155 375.352406 
L 490.593052 370.001826 
L 498.02573 363.262473 
L 506.697186 355.069347 
L 525.691806 336.956642 
L 530.646924 332.520812 
L 536.014968 328.026325 
L 538.905454 325.776703 
L 543.034719 322.813671 
L 546.957521 320.315148 
L 549.641543 318.804302 
L 551.293249 317.960892 
L 554.596661 316.484925 
L 557.07422 315.570174 
L 559.964706 314.722008 
L 565.33275 313.79933 
L 569.049089 313.670916 
L 572.352501 313.910305 
L 575.655913 314.481034 
L 578.959325 315.372004 
L 582.262737 316.573705 
L 585.566149 318.070282 
L 589.282488 320.080515 
L 592.998826 322.407819 
L 596.302239 324.714514 
L 599.605651 327.219378 
L 603.734916 330.586677 
L 608.277107 334.538972 
L 615.296858 341.008815 
L 626.032947 351.30888 
L 638.007816 362.701256 
L 645.027567 369.098172 
L 652.460244 375.539479 
L 658.654141 380.609451 
L 665.260966 385.701618 
L 670.216084 389.301964 
L 677.235834 394.083401 
L 683.016805 397.748747 
L 689.62363 401.648725 
L 696.64338 405.471021 
L 701.185572 407.777716 
L 708.618249 411.290867 
L 715.225073 414.158779 
L 722.65775 417.121811 
L 729.677501 419.686919 
L 737.936031 422.440684 
L 746.607488 425.056524 
L 755.278944 427.420291 
L 763.950401 429.558938 
L 772.208931 431.410635 
L 782.94502 433.579404 
L 794.506963 435.64988 
L 806.481831 437.544382 
L 818.869627 439.275592 
L 832.909128 440.99729 
L 846.535703 442.46216 
L 862.22691 443.936542 
L 879.569823 445.344339 
L 898.151516 446.639576 
L 917.781911 447.811155 
L 917.781911 447.811155 
" style="fill:none;stroke:#008000;stroke-dasharray:5.55,2.4;stroke-dashoffset:0;stroke-width:1.5;"/>
   </g>
   <g id="line2d_39">
    <path clip-path="url(#p5c7ec68d08)" d="M 66.930455 458.2 
L 321.70611 458.146801 
L 373.321924 454.689665 
L 423.698958 451.089911 
L 471.598433 447.443118 
L 517.020349 443.766729 
L 559.964706 440.080248 
L 603.734916 436.096091 
L 645.027567 432.111863 
L 684.668511 428.06578 
L 722.65775 423.970525 
L 760.234062 419.695605 
L 797.122164 415.267331 
L 832.909128 410.737129 
L 867.182028 406.168212 
L 900.216149 401.537473 
L 917.781911 398.979594 
L 917.781911 398.979594 
" style="fill:none;stroke:#ee82ee;stroke-dasharray:5.55,2.4;stroke-dashoffset:0;stroke-width:1.5;"/>
   </g>
   <g id="line2d_40">
    <path clip-path="url(#p5c7ec68d08)" d="M 305.229006 458.2 
L 305.229006 14.3 
" style="fill:none;stroke:#000000;stroke-dasharray:5.55,2.4;stroke-dashoffset:0;stroke-width:1.5;"/>
   </g>
   <g id="patch_3">
    <path d="M 54.8 458.2 
L 54.8 14.3 
" style="fill:none;stroke:#000000;stroke-linecap:square;stroke-linejoin:miter;stroke-width:0.8;"/>
   </g>
   <g id="patch_4">
    <path d="M 918.825 458.2 
L 918.825 14.3 
" style="fill:none;stroke:#000000;stroke-linecap:square;stroke-linejoin:miter;stroke-width:0.8;"/>
   </g>
   <g id="patch_5">
    <path d="M 54.8 458.2 
L 918.825 458.2 
" style="fill:none;stroke:#000000;stroke-linecap:square;stroke-linejoin:miter;stroke-width:0.8;"/>
   </g>
   <g id="patch_6">
    <path d="M 54.8 14.3 
L 918.825 14.3 
" style="fill:none;stroke:#000000;stroke-linecap:square;stroke-linejoin:miter;stroke-width:0.8;"/>
   </g>
   <g id="text_35">
    <!-- $S_{n}=7.246 MeV$ -->
    <defs>
     <path d="M 55.71875 33.015625 
L 49.3125 0 
L 40.28125 0 
L 46.6875 32.671875 
Q 47.125 34.96875 47.359375 36.71875 
Q 47.609375 38.484375 47.609375 39.5 
Q 47.609375 43.609375 45.015625 45.890625 
Q 42.4375 48.1875 37.796875 48.1875 
Q 30.5625 48.1875 25.34375 43.375 
Q 20.125 38.578125 18.5 30.328125 
L 12.5 0 
L 3.515625 0 
L 14.109375 54.6875 
L 23.09375 54.6875 
L 21.296875 46.09375 
Q 25.046875 50.828125 30.3125 53.40625 
Q 35.59375 56 41.40625 56 
Q 48.640625 56 52.609375 52.09375 
Q 56.59375 48.1875 56.59375 41.109375 
Q 56.59375 39.359375 56.375 37.359375 
Q 56.15625 35.359375 55.71875 33.015625 
z
" id="DejaVuSans-Oblique-6e"/>
     <path d="M 10.59375 45.40625 
L 73.1875 45.40625 
L 73.1875 37.203125 
L 10.59375 37.203125 
z
M 10.59375 25.484375 
L 73.1875 25.484375 
L 73.1875 17.1875 
L 10.59375 17.1875 
z
" id="DejaVuSans-3d"/>
     <path d="M 16.890625 72.90625 
L 31.6875 72.90625 
L 40.1875 23.78125 
L 68.40625 72.90625 
L 83.59375 72.90625 
L 69.390625 0 
L 59.8125 0 
L 72.21875 63.921875 
L 43.609375 14.015625 
L 33.984375 14.015625 
L 24.703125 64.109375 
L 12.3125 0 
L 2.6875 0 
z
" id="DejaVuSans-Oblique-4d"/>
     <path d="M 48.09375 32.234375 
Q 48.25 33.015625 48.3125 33.84375 
Q 48.390625 34.671875 48.390625 35.5 
Q 48.390625 41.453125 44.890625 44.921875 
Q 41.40625 48.390625 35.40625 48.390625 
Q 28.71875 48.390625 23.578125 44.15625 
Q 18.453125 39.9375 15.828125 32.171875 
z
M 55.90625 25.203125 
L 14.109375 25.203125 
Q 13.8125 23.34375 13.71875 22.265625 
Q 13.625 21.1875 13.625 20.40625 
Q 13.625 13.625 17.796875 9.90625 
Q 21.96875 6.203125 29.59375 6.203125 
Q 35.453125 6.203125 40.671875 7.515625 
Q 45.90625 8.84375 50.390625 11.375 
L 48.6875 2.484375 
Q 43.84375 0.53125 38.6875 -0.4375 
Q 33.546875 -1.421875 28.21875 -1.421875 
Q 16.84375 -1.421875 10.71875 4.015625 
Q 4.59375 9.46875 4.59375 19.484375 
Q 4.59375 28.03125 7.640625 35.375 
Q 10.6875 42.71875 16.609375 48.484375 
Q 20.40625 52.09375 25.65625 54.046875 
Q 30.90625 56 36.8125 56 
Q 46.09375 56 51.578125 50.4375 
Q 57.078125 44.875 57.078125 35.5 
Q 57.078125 33.25 56.78125 30.6875 
Q 56.5 28.125 55.90625 25.203125 
z
" id="DejaVuSans-Oblique-65"/>
     <path d="M 20.609375 0 
L 7.8125 72.90625 
L 17.484375 72.90625 
L 28.078125 10.203125 
L 63.484375 72.90625 
L 74.21875 72.90625 
L 32.078125 0 
z
" id="DejaVuSans-Oblique-56"/>
    </defs>
    <g transform="translate(298.586319 154.262902)rotate(-90)scale(0.14 -0.14)">
     <use transform="translate(0 0.78125)" xlink:href="#DejaVuSans-Oblique-53"/>
     <use transform="translate(63.476562 -15.625)scale(0.7)" xlink:href="#DejaVuSans-Oblique-6e"/>
     <use transform="translate(130.058594 0.78125)" xlink:href="#DejaVuSans-3d"/>
     <use transform="translate(233.330078 0.78125)" xlink:href="#DejaVuSans-37"/>
     <use transform="translate(296.953125 0.78125)" xlink:href="#DejaVuSans-2e"/>
     <use transform="translate(328.662109 0.78125)" xlink:href="#DejaVuSans-32"/>
     <use transform="translate(392.285156 0.78125)" xlink:href="#DejaVuSans-34"/>
     <use transform="translate(455.908203 0.78125)" xlink:href="#DejaVuSans-36"/>
     <use transform="translate(519.53125 0.78125)" xlink:href="#DejaVuSans-Oblique-4d"/>
     <use transform="translate(605.810547 0.78125)" xlink:href="#DejaVuSans-Oblique-65"/>
     <use transform="translate(667.333984 0.78125)" xlink:href="#DejaVuSans-Oblique-56"/>
    </g>
   </g>
   <g id="text_36">
    <!-- GTR -->
    <defs>
     <path d="M 59.515625 10.40625 
L 59.515625 29.984375 
L 43.40625 29.984375 
L 43.40625 38.09375 
L 69.28125 38.09375 
L 69.28125 6.78125 
Q 63.578125 2.734375 56.6875 0.65625 
Q 49.8125 -1.421875 42 -1.421875 
Q 24.90625 -1.421875 15.25 8.5625 
Q 5.609375 18.5625 5.609375 36.375 
Q 5.609375 54.25 15.25 64.234375 
Q 24.90625 74.21875 42 74.21875 
Q 49.125 74.21875 55.546875 72.453125 
Q 61.96875 70.703125 67.390625 67.28125 
L 67.390625 56.78125 
Q 61.921875 61.421875 55.765625 63.765625 
Q 49.609375 66.109375 42.828125 66.109375 
Q 29.4375 66.109375 22.71875 58.640625 
Q 16.015625 51.171875 16.015625 36.375 
Q 16.015625 21.625 22.71875 14.15625 
Q 29.4375 6.6875 42.828125 6.6875 
Q 48.046875 6.6875 52.140625 7.59375 
Q 56.25 8.5 59.515625 10.40625 
z
" id="DejaVuSans-47"/>
     <path d="M -0.296875 72.90625 
L 61.375 72.90625 
L 61.375 64.59375 
L 35.5 64.59375 
L 35.5 0 
L 25.59375 0 
L 25.59375 64.59375 
L -0.296875 64.59375 
z
" id="DejaVuSans-54"/>
     <path d="M 44.390625 34.1875 
Q 47.5625 33.109375 50.5625 29.59375 
Q 53.5625 26.078125 56.59375 19.921875 
L 66.609375 0 
L 56 0 
L 46.6875 18.703125 
Q 43.0625 26.03125 39.671875 28.421875 
Q 36.28125 30.8125 30.421875 30.8125 
L 19.671875 30.8125 
L 19.671875 0 
L 9.8125 0 
L 9.8125 72.90625 
L 32.078125 72.90625 
Q 44.578125 72.90625 50.734375 67.671875 
Q 56.890625 62.453125 56.890625 51.90625 
Q 56.890625 45.015625 53.6875 40.46875 
Q 50.484375 35.9375 44.390625 34.1875 
z
M 19.671875 64.796875 
L 19.671875 38.921875 
L 32.078125 38.921875 
Q 39.203125 38.921875 42.84375 42.21875 
Q 46.484375 45.515625 46.484375 51.90625 
Q 46.484375 58.296875 42.84375 61.546875 
Q 39.203125 64.796875 32.078125 64.796875 
z
" id="DejaVuSans-52"/>
    </defs>
    <g transform="translate(555.9345 267.957143)scale(0.14 -0.14)">
     <use xlink:href="#DejaVuSans-47"/>
     <use x="77.443359" xlink:href="#DejaVuSans-54"/>
     <use x="138.527344" xlink:href="#DejaVuSans-52"/>
    </g>
   </g>
   <g id="text_37">
    <!-- QFC -->
    <defs>
     <path d="M 39.40625 66.21875 
Q 28.65625 66.21875 22.328125 58.203125 
Q 16.015625 50.203125 16.015625 36.375 
Q 16.015625 22.609375 22.328125 14.59375 
Q 28.65625 6.59375 39.40625 6.59375 
Q 50.140625 6.59375 56.421875 14.59375 
Q 62.703125 22.609375 62.703125 36.375 
Q 62.703125 50.203125 56.421875 58.203125 
Q 50.140625 66.21875 39.40625 66.21875 
z
M 53.21875 1.3125 
L 66.21875 -12.890625 
L 54.296875 -12.890625 
L 43.5 -1.21875 
Q 41.890625 -1.3125 41.03125 -1.359375 
Q 40.1875 -1.421875 39.40625 -1.421875 
Q 24.03125 -1.421875 14.8125 8.859375 
Q 5.609375 19.140625 5.609375 36.375 
Q 5.609375 53.65625 14.8125 63.9375 
Q 24.03125 74.21875 39.40625 74.21875 
Q 54.734375 74.21875 63.90625 63.9375 
Q 73.09375 53.65625 73.09375 36.375 
Q 73.09375 23.6875 67.984375 14.640625 
Q 62.890625 5.609375 53.21875 1.3125 
z
" id="DejaVuSans-51"/>
     <path d="M 9.8125 72.90625 
L 51.703125 72.90625 
L 51.703125 64.59375 
L 19.671875 64.59375 
L 19.671875 43.109375 
L 48.578125 43.109375 
L 48.578125 34.8125 
L 19.671875 34.8125 
L 19.671875 0 
L 9.8125 0 
z
" id="DejaVuSans-46"/>
     <path d="M 64.40625 67.28125 
L 64.40625 56.890625 
Q 59.421875 61.53125 53.78125 63.8125 
Q 48.140625 66.109375 41.796875 66.109375 
Q 29.296875 66.109375 22.65625 58.46875 
Q 16.015625 50.828125 16.015625 36.375 
Q 16.015625 21.96875 22.65625 14.328125 
Q 29.296875 6.6875 41.796875 6.6875 
Q 48.140625 6.6875 53.78125 8.984375 
Q 59.421875 11.28125 64.40625 15.921875 
L 64.40625 5.609375 
Q 59.234375 2.09375 53.4375 0.328125 
Q 47.65625 -1.421875 41.21875 -1.421875 
Q 24.65625 -1.421875 15.125 8.703125 
Q 5.609375 18.84375 5.609375 36.375 
Q 5.609375 53.953125 15.125 64.078125 
Q 24.65625 74.21875 41.21875 74.21875 
Q 47.75 74.21875 53.53125 72.484375 
Q 59.328125 70.75 64.40625 67.28125 
z
" id="DejaVuSans-43"/>
    </defs>
    <g transform="translate(815.142 426.492857)scale(0.14 -0.14)">
     <use xlink:href="#DejaVuSans-51"/>
     <use x="78.710938" xlink:href="#DejaVuSans-46"/>
     <use x="136.230469" xlink:href="#DejaVuSans-43"/>
    </g>
   </g>
   <g id="text_38">
    <!-- IAS -->
    <defs>
     <path d="M 9.8125 72.90625 
L 19.671875 72.90625 
L 19.671875 0 
L 9.8125 0 
z
" id="DejaVuSans-49"/>
     <path d="M 34.1875 63.1875 
L 20.796875 26.90625 
L 47.609375 26.90625 
z
M 28.609375 72.90625 
L 39.796875 72.90625 
L 67.578125 0 
L 57.328125 0 
L 50.6875 18.703125 
L 17.828125 18.703125 
L 11.1875 0 
L 0.78125 0 
z
" id="DejaVuSans-41"/>
     <path d="M 53.515625 70.515625 
L 53.515625 60.890625 
Q 47.90625 63.578125 42.921875 64.890625 
Q 37.9375 66.21875 33.296875 66.21875 
Q 25.25 66.21875 20.875 63.09375 
Q 16.5 59.96875 16.5 54.203125 
Q 16.5 49.359375 19.40625 46.890625 
Q 22.3125 44.4375 30.421875 42.921875 
L 36.375 41.703125 
Q 47.40625 39.59375 52.65625 34.296875 
Q 57.90625 29 57.90625 20.125 
Q 57.90625 9.515625 50.796875 4.046875 
Q 43.703125 -1.421875 29.984375 -1.421875 
Q 24.8125 -1.421875 18.96875 -0.25 
Q 13.140625 0.921875 6.890625 3.21875 
L 6.890625 13.375 
Q 12.890625 10.015625 18.65625 8.296875 
Q 24.421875 6.59375 29.984375 6.59375 
Q 38.421875 6.59375 43.015625 9.90625 
Q 47.609375 13.234375 47.609375 19.390625 
Q 47.609375 24.75 44.3125 27.78125 
Q 41.015625 30.8125 33.5 32.328125 
L 27.484375 33.5 
Q 16.453125 35.6875 11.515625 40.375 
Q 6.59375 45.0625 6.59375 53.421875 
Q 6.59375 63.09375 13.40625 68.65625 
Q 20.21875 74.21875 32.171875 74.21875 
Q 37.3125 74.21875 42.625 73.28125 
Q 47.953125 72.359375 53.515625 70.515625 
z
" id="DejaVuSans-53"/>
    </defs>
    <g transform="translate(480.169813 232.353304)rotate(-90)scale(0.14 -0.14)">
     <use xlink:href="#DejaVuSans-49"/>
     <use x="29.492188" xlink:href="#DejaVuSans-41"/>
     <use x="97.900391" xlink:href="#DejaVuSans-53"/>
    </g>
   </g>
   <g id="text_39">
    <!-- PR2 -->
    <defs>
     <path d="M 19.671875 64.796875 
L 19.671875 37.40625 
L 32.078125 37.40625 
Q 38.96875 37.40625 42.71875 40.96875 
Q 46.484375 44.53125 46.484375 51.125 
Q 46.484375 57.671875 42.71875 61.234375 
Q 38.96875 64.796875 32.078125 64.796875 
z
M 9.8125 72.90625 
L 32.078125 72.90625 
Q 44.34375 72.90625 50.609375 67.359375 
Q 56.890625 61.8125 56.890625 51.125 
Q 56.890625 40.328125 50.609375 34.8125 
Q 44.34375 29.296875 32.078125 29.296875 
L 19.671875 29.296875 
L 19.671875 0 
L 9.8125 0 
z
" id="DejaVuSans-50"/>
    </defs>
    <g transform="translate(161.9391 429.663571)scale(0.14 -0.14)">
     <use xlink:href="#DejaVuSans-50"/>
     <use x="60.302734" xlink:href="#DejaVuSans-52"/>
     <use x="129.785156" xlink:href="#DejaVuSans-32"/>
    </g>
   </g>
   <g id="text_40">
    <!-- PR1 -->
    <g transform="translate(338.2002 378.932143)scale(0.14 -0.14)">
     <use xlink:href="#DejaVuSans-50"/>
     <use x="60.302734" xlink:href="#DejaVuSans-52"/>
     <use x="129.785156" xlink:href="#DejaVuSans-31"/>
    </g>
   </g>
  </g>
 </g>
 <defs>
  <clipPath id="p5c7ec68d08">
   <rect height="443.9" width="864.025" x="54.8" y="14.3"/>
  </clipPath>
 </defs>
</svg>
