<?xml version="1.0" encoding="UTF-8" standalone="no"?>
<!-- Created with Inkscape (http://www.inkscape.org/) -->

<svg
   xmlns:dc="http://purl.org/dc/elements/1.1/"
   xmlns:cc="http://creativecommons.org/ns#"
   xmlns:rdf="http://www.w3.org/1999/02/22-rdf-syntax-ns#"
   xmlns:svg="http://www.w3.org/2000/svg"
   xmlns="http://www.w3.org/2000/svg"
   xmlns:sodipodi="http://sodipodi.sourceforge.net/DTD/sodipodi-0.dtd"
   xmlns:inkscape="http://www.inkscape.org/namespaces/inkscape"
   width="215.44643mm"
   height="116.41666mm"
   viewBox="0 0 215.44643 116.41666"
   version="1.1"
   id="svg8"
   sodipodi:docname="0_4_red.svg"
   inkscape:version="0.92.2 (unknown)">
  <defs
     id="defs2" />
  <sodipodi:namedview
     id="base"
     pagecolor="#ffffff"
     bordercolor="#666666"
     borderopacity="1.0"
     inkscape:pageopacity="0.0"
     inkscape:pageshadow="2"
     inkscape:zoom="22.4"
     inkscape:cx="74.287837"
     inkscape:cy="8.4208638"
     inkscape:document-units="mm"
     inkscape:current-layer="layer1"
     showgrid="false"
     fit-margin-top="0"
     fit-margin-left="0"
     fit-margin-right="0"
     fit-margin-bottom="0"
     inkscape:window-width="1920"
     inkscape:window-height="1003"
     inkscape:window-x="0"
     inkscape:window-y="0"
     inkscape:window-maximized="1" />
  <metadata
     id="metadata5">
    <rdf:RDF>
      <cc:Work
         rdf:about="">
        <dc:format>image/svg+xml</dc:format>
        <dc:type
           rdf:resource="http://purl.org/dc/dcmitype/StillImage" />
        <dc:title></dc:title>
      </cc:Work>
    </rdf:RDF>
  </metadata>
  <g
     inkscape:label="Layer 1"
     inkscape:groupmode="layer"
     id="layer1"
     transform="translate(0,-90.625)">
    <rect
       style="fill:#00ffff;fill-opacity:1;stroke-width:0.26458332"
       id="rect10"
       width="215.44643"
       height="116.41666"
       x="0"
       y="90.625" />
    <path
       d="m 215.38007,207.03831 v -14.28542 m -0.22204,14.28542 v -13.35787 m -0.21639,13.35787 v -13.97642 m -0.32812,13.97642 v -13.17237 m -0.21781,13.17237 v -12.42979 m -0.21639,12.42979 v -13.48137 m -0.2192,13.48137 V 192.5679 m -0.32808,14.47041 v -14.84249 m -0.21639,14.84249 V 190.7128 m -0.2192,16.32551 V 189.9082 m -0.2192,17.13011 v -16.07905 m -0.32668,16.07905 v -19.91224 m -0.2192,19.91224 v -19.48027 m -0.21496,19.48027 v -18.9847 m -0.22062,18.9847 v -19.60324 m -0.32669,19.60324 v -17.19159 m -0.2178,17.19159 v -17.37764 m -0.2192,17.37764 v -16.07905 m -0.21781,16.07905 v -16.01704 m -0.32668,16.01704 v -15.70748 m -0.21781,15.70748 v -12.80028 m -0.2192,12.80028 v -13.97642 m -0.2192,13.97642 v -17.0066 m -0.32812,17.0066 v -18.11914 m -0.21781,18.11914 v -20.90235 m -0.21639,20.90235 v -22.81842 m -0.32808,22.81842 v -28.20037 m -0.21639,28.20037 v -36.48689 m -0.22062,36.48689 v -36.67188 m -0.21639,36.67188 v -40.87768 m -0.32812,40.87768 v -37.78496 m -0.21781,37.78496 v -31.47703 m -0.2192,31.47703 v -25.23166 m -0.21781,25.23166 v -21.70588 m -0.32953,21.70588 v -18.9847 m -0.21496,18.9847 v -18.42868 m -0.2192,18.42868 v -19.04724 m -0.21781,19.04724 v -19.10872 m -0.32813,19.10872 v -21.33539 m -0.21781,21.33539 v -19.41774 m -0.2178,19.41774 v -19.97533 m -0.2192,19.97533 v -21.58239 m -0.32668,21.58239 v -18.05766 m -0.2192,18.05766 v -16.9446 m -0.21639,16.9446 V 191.5778 m -0.22062,15.46051 V 194.546 m -0.32528,12.49231 v -12.67784 m -0.21781,12.67784 v -11.56372 m -0.21781,11.56372 v -9.95612 m -0.22062,9.95612 v -11.50275 m -0.32668,11.50275 v -11.19322 m -0.21781,11.19322 v -11.87325 m -0.21919,11.87325 v -13.79038 m -0.21781,13.79038 v -13.41935 m -0.32813,13.41935 V 193.3094 m -0.21638,13.72891 V 191.5778 m -0.21781,15.46051 v -17.19159 m -0.2192,17.19159 v -16.51102 m -0.32668,16.51102 v -19.66578 m -0.21781,19.66578 v -22.26347 m -0.21781,22.26347 v -21.95394 m -0.32953,21.95394 v -20.22179 m -0.21781,20.22179 v -19.78929 m -0.21919,19.78929 v -20.28328 m -0.21781,20.28328 v -17.87162 m -0.32668,17.87162 v -14.96545 m -0.21639,14.96545 v -13.79038 m -0.2192,13.79038 v -11.50275 m -0.21781,11.50275 v -10.26566 m -0.32812,10.26566 v -11.74975 m -0.2192,11.74975 V 194.114 m -0.21636,12.92431 v -15.64549 m -0.22062,15.64549 v -15.52253 m -0.32387,15.52253 v -16.07905 m -0.22204,16.07905 v -18.42868 m -0.21497,18.42868 v -18.86173 m -0.2192,18.86173 v -19.97533 m -0.32668,19.97533 V 185.2084 m -0.2192,21.82991 V 181.8692 m -0.21781,25.16911 V 174.0772 m -0.21781,32.96111 v -38.40298 m -0.32948,38.40298 v -41.18723 m -0.21497,41.18723 v -39.82557 m -0.22062,39.82557 v -33.27066 m -0.2192,33.27066 V 177.9724 m -0.32528,29.06591 v -22.01542 m -0.21781,22.01542 v -19.48027 m -0.2178,19.48027 v -20.77885 m -0.2192,20.77885 v -20.40784 m -0.32809,20.40784 v -22.26347 m -0.2178,22.26347 v -23.50057 m -0.21781,23.50057 v -24.11858 m -0.32953,24.11858 v -22.94297 m -0.21355,22.94297 v -19.04724 m -0.222,19.04724 v -18.9847 m -0.2192,18.9847 v -17.56208 m -0.32528,17.56208 v -16.9446 m -0.21781,16.9446 v -17.50112 m -0.21781,17.50112 v -18.30464 m -0.2192,18.30464 v -16.45008 m -0.32809,16.45008 v -16.82057 m -0.2178,16.82057 V 188.7946 m -0.21639,18.24371 v -16.51102 m -0.22062,16.51102 v -16.75855 m -0.32668,16.75855 v -18.18117 m -0.2192,18.18117 v -15.275 m -0.21497,15.275 v -13.29639 m -0.2192,13.29639 v -10.63615 m -0.32812,10.63615 v -8.71955 m -0.21781,8.71955 v -9.27714 m -0.2192,9.27714 v -7.73105 m -0.21781,7.73105 v -8.28598 m -0.32668,8.28598 v -8.03952 m -0.21781,8.03952 v -9.89516 m -0.21919,9.89516 v -8.96814 m -0.21639,8.96814 v -8.101 m -0.33093,8.101 v -7.97698 m -0.21497,7.97698 v -9.21406 m -0.2192,9.21406 v -10.45117 m -0.21919,10.45117 v -10.51372 m -0.32669,10.51372 v -10.63615 m -0.2178,10.63615 v -13.35787 m -0.2192,13.35787 v -12.98685 m -0.21781,12.98685 V 195.5981 m -0.32528,11.44021 v -12.86335 m -0.2192,12.86335 v -12.55382 m -0.21781,12.55382 v -14.16087 m -0.32953,14.16087 v -14.09938 m -0.21638,14.09938 v -12.42979 m -0.2192,12.42979 v -11.37819 m -0.21781,11.37819 v -10.14164 m -0.32668,10.14164 v -9.58562 m -0.2192,9.58562 v -9.09004 m -0.21639,9.09004 v -7.4215 m -0.22062,7.4215 v -6.80244 m -0.32528,6.80244 v -6.43088 m -0.2192,6.43088 v -7.23441 m -0.21781,7.23441 v -8.03952 m -0.21919,8.03952 v -8.34906 m -0.32669,8.34906 v -9.39905 m -0.21919,9.39905 v -10.08014 m -0.21781,10.08014 v -8.90452 m -0.21497,8.90452 v -9.39905 m -0.33093,9.39905 v -11.19322 m -0.21639,11.19322 v -11.74975 m -0.22061,11.74975 v -10.94516 m -0.21639,10.94516 v -11.87325 m -0.32953,11.87325 v -13.6054 m -0.21497,13.6054 v -11.56372 m -0.22062,11.56372 v -12.80028 m -0.21639,12.80028 v -11.06865 m -0.32808,11.06865 v -12.73933 m -0.2192,12.73933 v -11.87325 m -0.21781,11.87325 v -11.06865 m -0.2192,11.06865 v -11.62624 m -0.32527,11.62624 v -13.23384 m -0.2192,13.23384 v -13.97642 m -0.21781,13.97642 v -17.62515 m -0.32668,17.62515 v -19.48027 m -0.2192,19.48027 v -20.53133 m -0.21781,20.53133 v -25.04667 m -0.21781,25.04667 V 182.6738 m -0.32808,24.36451 v -22.88149 m -0.2192,22.88149 v -19.54177 m -0.21781,19.54177 v -14.90397 m -0.2192,14.90397 v -12.55382 m -0.32383,12.55382 V 194.114 m -0.22062,12.92431 v -10.45117 m -0.21781,10.45117 v -8.71955 m -0.21636,8.71955 v -11.19322 m -0.32812,11.19322 v -12.61583 m -0.2192,12.61583 v -14.16087 m -0.21781,14.16087 v -14.71793 m -0.21636,14.71793 v -14.84249 m -0.33093,14.84249 v -15.64549 m -0.21639,15.64549 v -12.55382 m -0.21781,12.55382 v -11.99675 m -0.2178,11.99675 v -11.19322 m -0.32813,11.19322 v -9.83209 m -0.21781,9.83209 v -9.83209 m -0.21919,9.83209 v -10.75912 m -0.21781,10.75912 v -10.14164 m -0.32809,10.14164 v -9.58562 m -0.21635,9.58562 v -9.09004 m -0.21781,9.09004 v -9.46211 m -0.2192,9.46211 v -9.21406 m -0.32668,9.21406 v -9.52255 m -0.21781,9.52255 v -7.29695 m -0.22062,7.29695 v -11.06865 m -0.32668,11.06865 v -12.86335 m -0.21781,12.86335 v -15.89354 m -0.21781,15.89354 v -17.31616 m -0.2192,17.31616 v -20.22179 m -0.32668,20.22179 v -22.69546 m -0.21781,22.69546 v -22.88149 m -0.21781,22.88149 v -22.69546 m -0.2178,22.69546 v -21.33539 m -0.32809,21.33539 v -19.29423 m -0.21781,19.29423 v -15.83099 m -0.2192,15.83099 v -14.16087 m -0.21781,14.16087 v -12.18174 m -0.32808,12.18174 v -12.30628 m -0.21781,12.30628 v -11.13227 m -0.2192,11.13227 v -11.19322 m -0.21639,11.19322 v -12.73933 m -0.32808,12.73933 v -12.61583 m -0.21639,12.61583 V 191.8248 m -0.22062,15.21351 v -20.28328 m -0.21638,20.28328 v -25.35515 m -0.32953,25.35515 V 177.9724 m -0.21781,29.06591 V 176.3648 m -0.21781,30.67351 v -31.78605 m -0.21781,31.78605 v -30.36395 m -0.32668,30.36395 v -30.54948 m -0.2192,30.54948 v -26.09667 m -0.2178,26.09667 v -24.11858 m -0.2192,24.11858 v -18.11914 m -0.32528,18.11914 v -17.19159 m -0.2192,17.19159 v -19.66578 m -0.21781,19.66578 v -17.68717 m -0.2192,17.68717 v -17.0681 m -0.32527,17.0681 V 188.3621 m -0.22062,18.67621 v -21.52037 m -0.21781,21.52037 v -21.33539 m -0.32528,21.33539 v -18.49017 m -0.2192,18.49017 v -16.38806 m -0.21781,16.38806 V 194.114 m -0.21919,12.92431 v -12.98685 m -0.32669,12.98685 V 197.0207 m -0.21919,10.01761 v -9.02855 m -0.21781,9.02855 v -7.85346 m -0.2192,7.85346 v -7.23441 m -0.32809,7.23441 v -6.61639 m -0.21496,6.61639 v -8.03952 m -0.22204,8.03952 v -10.14164 m -0.21497,10.14164 v -11.2547 m -0.32808,11.2547 v -11.93527 m -0.21781,11.93527 v -13.54338 m -0.2192,13.54338 V 191.8248 m -0.21781,15.21351 v -15.58346 m -0.32808,15.58346 v -15.39796 m -0.21781,15.39796 v -15.02747 m -0.2192,15.02747 v -15.83099 m -0.21639,15.83099 v -15.52253 m -0.32668,15.52253 v -16.88205 m -0.2192,16.88205 v -16.69759 m -0.21638,16.69759 V 192.5679 m -0.2192,14.47041 v -13.29639 m -0.32813,13.29639 v -13.17237 m -0.2192,13.17237 v -11.2547 m -0.2178,11.2547 v -9.02855 m -0.21781,9.02855 v -9.21406 m -0.32528,9.21406 v -9.39905 m -0.22201,9.39905 v -10.69816 m -0.21497,10.69816 v -11.50275 m -0.32808,11.50275 v -13.79038 m -0.2192,13.79038 v -16.01704 m -0.21781,16.01704 v -16.51102 m -0.2192,16.51102 v -17.37764 m -0.32668,17.37764 v -17.31616 m -0.21781,17.31616 v -15.58346 m -0.2192,15.58346 v -13.35787 m -0.2178,13.35787 v -13.41935 m -0.32528,13.41935 v -13.66687 m -0.2192,13.66687 v -13.48137 m -0.21781,13.48137 v -15.08896 m -0.21781,15.08896 v -12.42979 m -0.32953,12.42979 v -13.29639 m -0.21781,13.29639 v -12.80028 m -0.2192,12.80028 v -12.05929 m -0.2178,12.05929 v -8.96814 m -0.32669,8.96814 v -8.96814 m -0.2178,8.96814 v -9.46211 m -0.21639,9.46211 v -10.45117 m -0.22062,10.45117 V 193.3094 m -0.32668,13.72891 v -18.11914 m -0.21781,18.11914 v -24.18008 m -0.21781,24.18008 v -27.82935 m -0.2192,27.82935 v -32.46713 m -0.32668,32.46713 v -28.69435 m -0.22062,28.69435 V 182.5487 m -0.21355,24.48961 v -20.15978 m -0.22204,20.15978 v -15.15098 m -0.32527,15.15098 v -11.50275 m -0.21781,11.50275 v -9.89516 m -0.2192,9.89516 v -10.45117 m -0.21781,10.45117 v -11.74975 m -0.32668,11.74975 v -14.96545 m -0.2192,14.96545 v -16.38806 m -0.2192,16.38806 v -22.13945 m -0.32668,22.13945 v -27.70532 m -0.2192,27.70532 v -29.31185 m -0.21781,29.31185 v -34.63126 m -0.21639,34.63126 v -33.33214 m -0.32808,33.33214 v -31.66306 m -0.2192,31.66306 v -24.9836 m -0.21781,24.9836 v -19.78929 m -0.21781,19.78929 v -16.75855 m -0.32668,16.75855 v -13.91493 m -0.21781,13.91493 v -10.63615 m -0.2192,10.63615 v -8.65859 m -0.21919,8.65859 v -9.21406 m -0.32809,9.21406 v -7.11197 m -0.21781,7.11197 v -7.54394 m -0.21636,7.54394 v -7.97698 m -0.2192,7.97698 v -8.41002 m -0.32527,8.41002 v -9.58562 m -0.22062,9.58562 v -10.63615 m -0.21636,10.63615 V 194.546 m -0.22062,12.49231 V 193.9285 m -0.32528,13.10981 V 193.3094 m -0.2192,13.72891 v -11.56372 m -0.21639,11.56372 v -9.09004 m -0.22062,9.09004 v -7.85346 m -0.32668,7.85346 v -5.93637 m -0.21781,5.93637 v -4.88423 m -0.2178,4.88423 v -5.68935 m -0.2192,5.68935 v -5.37982 m -0.32668,5.37982 v -5.62788 m -0.21781,5.62788 v -6.06039 m -0.2192,6.06039 v -5.31835 m -0.32808,5.31835 v -5.87486 m -0.21781,5.87486 v -5.13283 m -0.21639,5.13283 v -4.88423 m -0.22062,4.88423 v -5.00933 m -0.32528,5.00933 v -6.36993 m -0.2192,6.36993 v -7.04995 m -0.21781,7.04995 v -8.84305 m -0.2192,8.84305 v -13.54338 m -0.32668,13.54338 v -16.20149 m -0.21781,16.20149 v -14.65645 m -0.21919,14.65645 V 189.1036 m -0.21781,17.93471 V 189.9082 m -0.32528,17.13011 V 191.8248 m -0.2192,15.21351 v -14.22394 m -0.2192,14.22394 V 195.7216 m -0.21781,11.31671 v -10.08014 m -0.32668,10.08014 v -6.67893 m -0.2192,6.67893 v -7.04995 m -0.21781,7.04995 v -6.80244 m -0.21919,6.80244 v -7.60597 m -0.32669,7.60597 v -7.29695 m -0.21919,7.29695 v -6.49341 m -0.21639,6.49341 v -6.49341 m -0.21781,6.49341 v -5.13283 m -0.32668,5.13283 v -4.08123 m -0.2192,4.08123 v -4.51374 m -0.2192,4.51374 v -5.62788 m -0.21639,5.62788 v -5.81285 m -0.32953,5.81285 v -6.67893 m -0.21496,6.67893 v -7.17345 m -0.22204,7.17345 v -5.81285 m -0.21497,5.81285 v -6.30791 m -0.33093,6.30791 v -5.75084 m -0.21497,5.75084 v -6.18442 m -0.21919,6.18442 v -6.18442 m -0.32669,6.18442 v -4.69977 m -0.21919,4.69977 v -4.88423 m -0.21781,4.88423 V 201.782 m -0.21781,5.25631 v -4.26621 m -0.32813,4.26621 v -3.83372 m -0.21919,3.83372 v -4.45226 m -0.2192,4.45226 v -6.06039 m -0.21497,6.06039 v -6.80244 m -0.32808,6.80244 v -7.85346 m -0.21781,7.85346 v -10.63615 m -0.21781,10.63615 v -11.81229 m -0.2192,11.81229 v -12.42979 m -0.32812,12.42979 v -12.67784 m -0.21781,12.67784 v -12.73933 m -0.21781,12.73933 v -9.58562 m -0.2192,9.58562 v -7.91495 m -0.32668,7.91495 v -6.49341 m -0.2192,6.49341 v -5.07081 m -0.21781,5.07081 v -4.39078 m -0.21635,4.39078 v -4.20421 m -0.32809,4.20421 v -4.26621 m -0.21781,4.26621 v -4.76128 m -0.2192,4.76128 v -4.3293 m -0.21781,4.3293 v -3.02965 m -0.32808,3.02965 v -3.83372 m -0.21497,3.83372 v -4.63829 m -0.22204,4.63829 v -3.64873 m -0.21638,3.64873 v -3.3392 m -0.32953,3.3392 v -3.52416 m -0.21497,3.52416 v -4.39078 m -0.2192,4.39078 v -4.39078 m -0.32808,4.39078 v -3.95721 m -0.2192,3.95721 v -4.51374 m -0.21781,4.51374 v -6.67893 m -0.21781,6.67893 v -7.4215 m -0.32668,7.4215 v -7.11197 m -0.21639,7.11197 v -6.74042 m -0.2192,6.74042 v -5.07081 m -0.2178,5.07081 v -4.26621 m -0.32953,4.26621 v -4.26621 m -0.21781,4.26621 v -4.69977 m -0.21781,4.69977 v -5.62788 m -0.2192,5.62788 v -7.54394 m -0.32668,7.54394 v -8.71955 m -0.21781,8.71955 v -12.98685 m -0.2192,12.98685 v -13.97642 m -0.21781,13.97642 V 195.7216 m -0.32528,11.31671 v -10.75912 m -0.21919,10.75912 v -9.09004 m -0.21781,9.09004 v -5.62788 m -0.2192,5.62788 v -4.26621 m -0.32813,4.26621 v -5.19378 m -0.2178,5.19378 v -4.51374 m -0.2192,4.51374 v -4.01975 m -0.21497,4.01975 v -4.51374 m -0.32953,4.51374 v -6.61639 m -0.21639,6.61639 v -8.16248 m -0.22062,8.16248 v -11.13227 m -0.21638,11.13227 v -13.85186 m -0.32809,13.85186 v -19.54177 m -0.21781,19.54177 v -26.7152 m -0.21919,26.7152 v -30.36395 m -0.32669,30.36395 V 176.3028 m -0.2178,30.73551 v -31.04399 m -0.22062,31.04399 v -25.6647 m -0.21639,25.6647 v -20.22179 m -0.32809,20.22179 v -15.33702 m -0.21638,15.33702 v -15.39796 m -0.2192,15.39796 v -15.08896 m -0.21781,15.08896 v -15.77004 m -0.32809,15.77004 v -16.82057 m -0.21635,16.82057 v -19.04724 m -0.22062,19.04724 v -21.52037 m -0.21639,21.52037 v -22.94297 m -0.32813,22.94297 v -20.40784 m -0.21919,20.40784 V 188.7946 m -0.21497,18.24371 v -13.17237 m -0.22204,13.17237 v -9.33863 m -0.32528,9.33863 v -7.54394 m -0.2192,7.54394 v -6.9874 m -0.21781,6.9874 v -8.03952 m -0.21781,8.03952 v -10.32714 m -0.32668,10.32714 v -11.93527 m -0.2192,11.93527 v -14.71793 m -0.2178,14.71793 v -14.96545 m -0.21781,14.96545 V 190.7128 m -0.32949,16.32551 v -16.9446 m -0.21639,16.9446 v -13.23384 m -0.22062,13.23384 v -9.89516 m -0.21638,9.89516 v -5.93637 m -0.32669,5.93637 v -4.45226 m -0.21919,4.45226 v -4.88423 m -0.21639,4.88423 v -4.3293 m -0.22062,4.3293 v -3.95721 m -0.32668,3.95721 v -4.63829 m -0.21781,4.63829 v -5.99837 m -0.21636,5.99837 v -7.23441 m -0.33093,7.23441 v -10.69816 m -0.21355,10.69816 v -16.26455 m -0.22204,16.26455 v -19.17127 m -0.2178,19.17127 V 177.9724 m -0.32669,29.06591 v -34.13673 m -0.2178,34.13673 v -39.82557 m -0.21781,39.82557 v -40.75312 m -0.2192,40.75312 v -37.8459 m -0.32813,37.8459 v -35.99133 m -0.21639,35.99133 v -32.03303 m -0.2178,32.03303 v -26.2207 m -0.2192,26.2207 V 184.8379 m -0.32668,22.20041 v -17.0066 m -0.2192,17.0066 v -12.24426 m -0.21781,12.24426 v -9.33863 m -0.2192,9.33863 v -8.41002 m -0.326682,8.41002 v -8.28598 m -0.217808,8.28598 v -9.6471 m -0.219199,9.6471 v -9.77113 m -0.216387,9.77113 V 197.0207 m -0.326682,10.01761 v -9.39905 m -0.219198,9.39905 v -7.4215 m -0.217809,7.4215 v -5.75084 m -0.219198,5.75084 v -3.40121 m -0.328125,3.40121 v -2.41163 m -0.217808,2.41163 v -2.53513 m -0.217808,2.53513 v -2.10209 m -0.219199,2.10209 v -3.3392 m -0.325276,3.3392 v -3.52416 m -0.22062,3.52416 v -3.77222 m -0.216387,3.77222 V 201.782 m -0.326682,5.25631 v -6.18442 m -0.217808,6.18442 v -7.23441 m -0.219199,7.23441 v -8.2245 m -0.219198,8.2245 v -6.24589 m -0.328124,6.24589 v -5.68935 m -0.217809,5.68935 v -4.82328 m -0.217808,4.82328 v -6.36993 m -0.219199,6.36993 v -5.62788 m -0.323877,5.62788 v -4.45226 m -0.220619,4.45226 v -3.71075 m -0.216388,3.71075 v -3.21517 m -0.220619,3.21517 v -2.96869 m -0.325279,2.96869 v -2.34962 m -0.219199,2.34962 v -2.28814 m -0.217808,2.28814 v -2.41163 m -0.219199,2.41163 v -3.15368 m -0.326682,3.15368 v -4.45226 m -0.219198,4.45226 v -6.43088 m -0.216387,6.43088 v -7.66744 m -0.217809,7.66744 v -10.26566 m -0.328084,10.26566 v -12.80028 m -0.217809,12.80028 v -14.84249 m -0.219198,14.84249 v -14.96545 m -0.217808,14.96545 v -15.52253 m -0.328088,15.52253 v -13.54338 m -0.217808,13.54338 v -9.15258 m -0.219199,9.15258 v -6.49341 m -0.217808,6.49341 v -4.26621 m -0.325279,4.26621 v -3.02965 m -0.22062,3.02965 v -2.34962 m -0.216356,2.34962 v -1.36005 m -0.219199,1.36005 v -2.10209 m -0.326682,2.10209 v -1.48301 m -0.219198,1.48301 v -2.04009 m -0.217808,2.04009 v -2.47364 m -0.328125,2.47364 v -3.64873 m -0.217808,3.64873 v -4.01975 m -0.217809,4.01975 v -5.93637 m -0.217808,5.93637 v -7.97698 m -0.326682,7.97698 v -10.69816 m -0.219198,10.69816 v -15.70748 m -0.217809,15.70748 v -22.75694 m -0.219198,22.75694 V 176.3648 m -0.326682,30.67351 v -41.06266 m -0.219198,41.06266 v -48.17465 m -0.217809,48.17465 v -47.4326 m -0.217808,47.4326 v -42.48475 m -0.32528,42.48475 V 176.3028 m -0.220619,30.73551 V 186.6925 m -0.216388,20.34581 v -13.48137 m -0.217808,13.48137 v -7.17345 m -0.32953,7.17345 v -5.19378 m -0.217808,5.19378 v -4.14326 m -0.219199,4.14326 v -3.2777 m -0.216387,3.2777 v -3.77222 m -0.329527,3.77222 v -3.02965 m -0.216387,3.02965 v -3.40121 m -0.22062,3.40121 v -2.78318 m -0.216387,2.78318 v -2.16464 m -0.326685,2.16464 v -2.34962 m -0.217809,2.34962 v -1.91711 m -0.217808,1.91711 v -3.52416 m -0.219198,3.52416 v -3.77222 m -0.328085,3.77222 v -5.62788 m -0.217808,5.62788 v -7.91495 m -0.219199,7.91495 v -11.50275 m -0.326681,11.50275 v -14.71793 m -0.217809,14.71793 V 188.3621 m -0.216387,18.67621 v -22.01542 m -0.219199,22.01542 v -24.42813 m -0.328124,24.42813 v -22.26347 m -0.217808,22.26347 v -17.31616 m -0.217809,17.31616 v -11.56372 m -0.219198,11.56372 v -7.91495 m -0.326682,7.91495 v -5.56586 m -0.219199,5.56586 v -5.37982 m -0.217808,5.37982 v -7.66744 m -0.217808,7.66744 v -8.16248 m -0.326682,8.16248 V 195.47459 M 76.7085,207.03831 V 191.5778 m -0.219198,15.46051 v -19.66578 m -0.217808,19.66578 v -27.89136 m -0.328125,27.89136 v -34.38426 m -0.216356,34.38426 v -42.7328 m -0.22062,42.7328 v -39.45559 m -0.216356,39.45559 v -38.21852 m -0.32953,38.21852 v -27.95233 m -0.217809,27.95233 v -19.91224 m -0.216356,19.91224 v -14.28542 m -0.217809,14.28542 v -11.06865 m -0.329526,11.06865 v -9.58562 m -0.217809,9.58562 v -7.60597 m -0.217808,7.60597 v -7.60597 m -0.219199,7.60597 v -7.60597 m -0.325279,7.60597 v -9.52255 m -0.22062,9.52255 v -11.93527 m -0.216356,11.93527 v -15.08896 m -0.219199,15.08896 v -21.89139 m -0.326681,21.89139 v -34.19822 m -0.217809,34.19822 v -50.0923 m -0.220619,50.0923 v -68.83002 m -0.323874,68.83002 V 116.3169 m -0.219198,90.72141 V 103.57704 M 70.815357,207.03831 V 95.227974 M 70.597549,207.03831 v -99.87454 m -0.32528,99.87454 v -76.9925 m -0.220619,76.9925 V 152.9273 m -0.216357,54.11101 v -34.50775 m -0.220619,34.50775 v -23.93254 m -0.326682,23.93254 v -18.11914 m -0.216357,18.11914 v -16.01704 m -0.220619,16.01704 v -15.95503 m -0.216387,15.95503 v -15.64549 m -0.328085,15.64549 v -11.99675 m -0.217808,11.99675 v -9.89516 m -0.219198,9.89516 v -7.35791 m -0.217809,7.35791 v -4.82328 m -0.326682,4.82328 v -3.83372 m -0.217808,3.83372 v -2.53513 m -0.219199,2.53513 v -2.53513 m -0.217808,2.53513 v -1.73161 m -0.328087,1.73161 v -3.46269 m -0.217809,3.46269 v -3.71075 m -0.216356,3.71075 V 201.782 m -0.22062,5.25631 v -8.34906 m -0.325279,8.34906 V 197.0207 m -0.220619,10.01761 v -12.55382 m -0.217809,12.55382 v -15.02747 m -0.216387,15.02747 v -15.64549 m -0.326682,15.64549 v -14.16087 m -0.22062,14.16087 V 194.917 m -0.216356,12.12131 v -10.08014 m -0.328084,10.08014 v -7.35791 m -0.219199,7.35791 v -5.13283 m -0.217808,5.13283 v -4.51374 m -0.219199,4.51374 v -5.07081 m -0.325276,5.07081 v -4.3293 m -0.219198,4.3293 v -5.07081 m -0.217809,5.07081 v -7.91495 m -0.217808,7.91495 v -10.26566 m -0.328125,10.26566 v -16.88205 m -0.217808,16.88205 v -22.13945 m -0.217808,22.13945 v -21.70588 m -0.217809,21.70588 v -21.4589 m -0.32953,21.4589 v -18.86173 m -0.217808,18.86173 v -12.86335 m -0.219199,12.86335 v -9.77113 m -0.214966,9.77113 v -5.99837 m -0.32953,5.99837 v -2.53513 m -0.217808,2.53513 v -0.74202 m -0.216357,0.74202 v -0.49504 m -0.220619,0.49504 v -0.74202 m -0.326682,0.74202 v -0.98956 m -0.217809,0.98956 v -1.05103 m -0.217808,1.05103 v -0.92807 m -0.219198,0.92807 v -1.5461 m -0.326682,1.5461 v -2.16464 m -0.22062,2.16464 v -2.90669 m -0.216356,2.90669 v -3.21517 m -0.217809,3.21517 v -4.82328 m -0.326681,4.82328 v -4.20421 m -0.219199,4.20421 v -4.76128 m -0.217808,4.76128 v -4.94678 m -0.328084,4.94678 v -4.39078 m -0.217809,4.39078 v -3.64873 m -0.216387,3.64873 v -3.64873 m -0.219199,3.64873 v -3.83372 m -0.328084,3.83372 v -4.69977 m -0.219199,4.69977 v -3.95721 m -0.214966,3.95721 v -2.47364 m -0.219199,2.47364 v -2.65915 m -0.328087,2.65915 v -1.36005 m -0.219198,1.36005 v -1.42207 m -0.217809,1.42207 v -1.11251 m -0.217808,1.11251 v -1.23708 m -0.326682,1.23708 v -0.92807 m -0.217808,0.92807 v -0.92807 m -0.219199,0.92807 v -1.05103 m -0.217808,1.05103 v -0.98956 m -0.32953,0.98956 v -0.92807 m -0.216357,0.92807 v -1.17506 m -0.217808,1.17506 v -0.80298 m -0.219198,0.80298 v -0.92807 m -0.328085,0.92807 v -0.98956 m -0.217808,0.98956 v -1.05103 m -0.216357,1.05103 v -1.17506 m -0.220619,1.17506 v -1.97859 m -0.325279,1.97859 v -1.91711 m -0.219199,1.91711 v -2.53513 m -0.216356,2.53513 v -2.34962 m -0.22062,2.34962 v -2.28814 m -0.326682,2.28814 v -2.34962 m -0.217808,2.34962 v -1.8551 m -0.219199,1.8551 v -1.23708 m -0.217808,1.23708 v -1.05103 m -0.326682,1.05103 v -0.74202 m -0.217808,0.74202 v -0.49504 m -0.219199,0.49504 v -0.61906 m -0.325279,0.61906 v -0.49504 m -0.220619,0.49504 v -0.556 m -0.216357,0.556 v -0.49504 m -0.219199,0.49504 v -0.61906 m -0.328084,0.61906 v -1.23708 m -0.217808,1.23708 v -1.42207 m -0.217809,1.42207 v -1.36005 m -0.219198,1.36005 v -1.5461 m -0.326682,1.5461 v -2.04009 m -0.217808,2.04009 v -2.16464 m -0.219199,2.16464 v -3.71075 m -0.217808,3.71075 v -5.31835 m -0.326682,5.31835 v -7.91495 m -0.217808,7.91495 v -9.77113 m -0.219199,9.77113 V 191.8248 m -0.217808,15.21351 v -20.53133 m -0.326682,20.53133 v -25.54119 m -0.220619,25.54119 v -27.58183 m -0.216357,27.58183 v -29.74595 m -0.219198,29.74595 v -25.35515 m -0.326682,25.35515 v -23.25252 m -0.217809,23.25252 v -23.50057 m -0.217808,23.50057 v -23.376 m -0.220619,23.376 v -22.50993 m -0.32528,22.50993 v -20.15978 m -0.219198,20.15978 v -14.84249 m -0.217809,14.84249 v -10.8842 m -0.216387,10.8842 v -7.29695 m -0.32953,7.29695 v -4.26621 m -0.217808,4.26621 v -2.96869 m -0.217809,2.96869 v -1.8551 m -0.326691,1.8551 v -1.73161 m -0.219198,1.73161 v -1.42207 m -0.217778,1.42207 v -0.86553 m -0.217808,0.86553 v -0.98956 m -0.328103,0.98956 v -1.29856 m -0.219198,1.29856 v -0.98956 m -0.216388,0.98956 v -1.66905 m -0.217777,1.66905 v -1.79256 m -0.329518,1.79256 v -1.60809 m -0.216387,1.60809 v -1.29856 m -0.22062,1.29856 v -1.42207 m -0.216387,1.42207 v -1.91711 m -0.326688,1.91711 v -2.10209 m -0.219199,2.10209 v -2.04009 m -0.217808,2.04009 v -1.5461 m -0.217778,1.5461 v -1.42207 m -0.328102,1.42207 v -1.73161 m -0.217809,1.73161 v -0.98956 m -0.217777,0.98956 v -0.68002 m -0.219199,0.68002 v -0.68002 m -0.326691,0.68002 v -0.556 m -0.219198,0.556 v -1.11251 m -0.217809,1.11251 v -1.48301 m -0.216387,1.48301 v -1.23708 m -0.328106,1.23708 v -1.29856 m -0.217808,1.29856 v -1.5461 m -0.219199,1.5461 v -1.79256 m -0.217777,1.79256 v -1.66905 m -0.326691,1.66905 v -2.96869 m -0.217809,2.96869 v -3.2777 m -0.219198,3.2777 v -4.3293 m -0.217809,4.3293 v -6.49341 m -0.329517,6.49341 v -8.53404 m -0.214967,8.53404 v -11.2547 m -0.219198,11.2547 v -9.70858 m -0.328106,9.70858 v -6.92592 m -0.219205,6.92592 v -4.3293 m -0.217793,4.3293 v -3.52416 m -0.217793,3.52416 v -1.91711 m -0.328101,1.91711 v -0.92807 m -0.216378,0.92807 v -0.49504 m -0.219208,0.49504 v -0.49504 m -0.216378,0.49504 v -0.61906 m -0.329517,0.61906 v -0.49504 m -0.217793,0.49504 v -0.556 m -0.217793,0.556 v -0.80298 m -0.219207,0.80298 v -0.92807 m -0.32669,0.92807 v -0.92807 m -0.217793,0.92807 v -0.86553 m -0.217793,0.86553 v -1.29856 m -0.219205,1.29856 v -1.17506 m -0.325278,1.17506 v -1.36005 m -0.219205,1.36005 v -1.60809 m -0.219205,1.60809 v -1.48301 m -0.217802,1.48301 v -1.97859 m -0.328085,1.97859 v -3.09219 m -0.217802,3.09219 v -5.13283 m -0.219205,5.13283 v -6.80244 m -0.216357,6.80244 v -10.38969 m -0.328085,10.38969 v -13.48137 m -0.216359,13.48137 v -19.04724 m -0.220607,19.04724 v -25.04667 m -0.217803,25.04667 v -30.61255 m -0.326681,30.61255 v -35.31128 m -0.217803,35.31128 v -40.0116 m -0.219204,40.0116 v -47.74107 m -0.326682,47.74107 V 148.907 m -0.217803,58.13131 v -72.35473 m -0.219204,72.35473 v -82.99142 m -0.217802,82.99142 v -95.11219 m -0.326682,95.11219 v -87.93874 m -0.217802,87.93874 v -72.54024 m -0.219205,72.54024 v -50.46332 m -0.217802,50.46332 v -31.72455 m -0.329529,31.72455 v -15.52253 m -0.214954,15.52253 v -8.03952 m -0.219205,8.03952 v -4.82328 m -0.219204,4.82328 v -2.78318 m -0.326682,2.78318 v -2.28814 m -0.219205,2.28814 v -1.36005 m -0.217802,1.36005 v -1.73161 m -0.219204,1.73161 v -2.04009 m -0.325279,2.04009 v -3.21517 m -0.219205,3.21517 v -3.64873 m -0.217802,3.64873 v -5.00933 m -0.2164,5.00933 v -6.86391 m -0.328085,6.86391 v -7.54394 m -0.219204,7.54394 v -7.97698 m -0.217803,7.97698 v -7.04995 m -0.217802,7.04995 v -4.69977 m -0.329528,4.69977 v -2.78318 m -0.21636,2.78318 v -1.79256 m -0.220607,1.79256 v -1.17506 m -0.214954,1.17506 v -0.98956 m -0.329528,0.98956 v -0.49504 m -0.216397,0.49504 v -0.37101 m -0.217802,0.37101 v -0.12289 m -0.328085,0.12289 v -0.18551 m -0.219205,0.18551 v -0.2475 m -0.217802,0.2475 v -0.2475 m -0.2164,0.2475 v -0.18551 m -0.329528,0.18551 v -0.18551 m -0.217802,0.18551 v -0.0615 m -0.219205,0.0615 v -0.0615 m -0.217802,0.0615 v -0.2475 m -0.328085,0.2475 v -0.18551 m -0.216397,0.18551 v -0.12289 m -0.219205,0.12289 v -0.0615 m -0.217802,0.0615 v -0.0615 m -0.544483,0.0615 v -0.0615 m -0.984307,0.0615 v -0.0615 m -1.415648,0.0615 v -0.0615 m -0.3280856,0.0615 v -0.18551 m -0.2178022,0.18551 v -0.12289 m -0.2192047,0.12289 v -0.0615 m -0.9814807,0.0615 v -0.0615 m -0.2192046,0.0615 v -0.0615 m -2.0732696,0.0615 v -0.0615"
       style="fill:none;stroke:#eb1f21;stroke-width:0.34977889;stroke-linecap:butt;stroke-linejoin:miter;stroke-miterlimit:10;stroke-dasharray:none;stroke-opacity:1"
       id="path87"
       inkscape:connector-curvature="0" />
    <path
       style="fill:#ffffff;fill-opacity:1;stroke-width:0.26458332"
       id="path1632"
       d="m 18.537881,206.72724 c -0.0048,0.0483 0.0055,0.096 0.0081,0.1439 -0.01046,0.0727 -0.07388,0.0481 -0.09979,0.0113 -0.01284,-0.0329 6.08e-4,-0.0666 0.01079,-0.0983 0,0 0.05977,-0.0281 0.05977,-0.0281 v 0 c -0.0096,0.0297 -0.02363,0.0615 -0.01342,0.0927 0.0066,0.009 0.007,0.0111 0.01604,0.0181 0.0033,0.002 0.01306,0.004 0.01037,0.007 -0.09304,0.10746 -0.04547,0.042 -0.04271,0.0279 -8.46e-4,-0.048 -0.01295,-0.0958 -0.0081,-0.14417 0,0 0.05893,-0.03 0.05893,-0.03 z"
       inkscape:connector-curvature="0" />
    <path
       style="fill:#ffffff;fill-opacity:1;stroke-width:0.26458332"
       id="path1634"
       d="m 18.569405,90.584241 c -0.0037,0.03335 -0.01243,0.0658 -0.02041,0.0983 0,0 -0.05912,0.02834 -0.05912,0.02834 v 0 c 0.008,-0.03212 0.01705,-0.06417 0.02036,-0.09723 0,0 0.05916,-0.0294 0.05916,-0.0294 z"
       inkscape:connector-curvature="0" />
    <path
       style="fill:#ffffff;fill-opacity:1;stroke-width:0.26458332"
       id="path1636"
       d="m 18.580668,90.664835 c -0.01536,0.03395 -0.03028,0.06814 -0.04506,0.102328 -0.01647,0.005 -0.0322,0.01507 -0.0494,0.01497 -0.0062,-3.5e-5 0.007,-0.01009 0.01047,-0.01519 0.01596,-0.02367 0.03207,-0.04673 0.0498,-0.06913 0.01709,-0.02303 0.0086,-0.0115 0.0255,-0.03458 0,0 0.06059,-0.02619 0.06059,-0.02619 v 0 c -0.01694,0.02313 -0.0085,0.01152 -0.02542,0.03485 -0.01362,0.01691 -0.02681,0.03392 -0.03898,0.05192 -0.0037,0.0055 -0.0073,0.01109 -0.01091,0.01665 -0.0034,0.0052 -0.0051,0.01207 -0.0102,0.01568 -0.02232,0.01582 -0.04714,0.02779 -0.07071,0.04168 -0.0021,-0.01229 0.03975,-0.0881 0.04405,-0.105705 0,0 0.06027,-0.02727 0.06027,-0.02727 z"
       inkscape:connector-curvature="0" />
    <path
       style="fill:#ffffff;fill-opacity:1;stroke-width:0.26458332"
       id="path1638"
       d="m 18.523609,90.762794 c -0.0075,-0.02038 -0.0098,-0.04188 -0.01225,-0.06326 0,0 0.05861,-0.03065 0.05861,-0.03065 v 0 c 0.0021,0.02091 0.0039,0.04193 0.01149,0.06177 0,0 -0.05785,0.03214 -0.05785,0.03214 z"
       inkscape:connector-curvature="0" />
  </g>
</svg>
