<?xml version="1.0" encoding="UTF-8" standalone="no"?>
<!-- Created with Inkscape (http://www.inkscape.org/) -->

<svg
   xmlns:dc="http://purl.org/dc/elements/1.1/"
   xmlns:cc="http://creativecommons.org/ns#"
   xmlns:rdf="http://www.w3.org/1999/02/22-rdf-syntax-ns#"
   xmlns:svg="http://www.w3.org/2000/svg"
   xmlns="http://www.w3.org/2000/svg"
   xmlns:sodipodi="http://sodipodi.sourceforge.net/DTD/sodipodi-0.dtd"
   xmlns:inkscape="http://www.inkscape.org/namespaces/inkscape"
   width="191.25594mm"
   height="257.77975mm"
   viewBox="0 0 191.25594 257.77975"
   version="1.1"
   id="svg1656"
   inkscape:version="0.92.2 (unknown)"
   sodipodi:docname="IAS.svg">
  <defs
     id="defs1650" />
  <sodipodi:namedview
     id="base"
     pagecolor="#ffffff"
     bordercolor="#666666"
     borderopacity="1.0"
     inkscape:pageopacity="0.0"
     inkscape:pageshadow="2"
     inkscape:zoom="0.98994949"
     inkscape:cx="63.9342"
     inkscape:cy="578.46668"
     inkscape:document-units="mm"
     inkscape:current-layer="layer1"
     showgrid="false"
     fit-margin-top="0"
     fit-margin-left="0"
     fit-margin-right="0"
     fit-margin-bottom="0"
     inkscape:window-width="1920"
     inkscape:window-height="1003"
     inkscape:window-x="0"
     inkscape:window-y="0"
     inkscape:window-maximized="1" />
  <metadata
     id="metadata1653">
    <rdf:RDF>
      <cc:Work
         rdf:about="">
        <dc:format>image/svg+xml</dc:format>
        <dc:type
           rdf:resource="http://purl.org/dc/dcmitype/StillImage" />
        <dc:title></dc:title>
      </cc:Work>
    </rdf:RDF>
  </metadata>
  <g
     inkscape:label="Layer 1"
     inkscape:groupmode="layer"
     id="layer1"
     transform="translate(-12.851191,-38.464279)">
    <rect
       style="fill:#00ffff;fill-opacity:1;stroke-width:0.26458332"
       id="rect1664"
       width="191.25594"
       height="257.77975"
       x="12.851191"
       y="38.464279" />
    <path
       d="m 203.4156,296.13606 v -15.19868 m -1.87938,15.19868 V 280.586 m -1.88492,15.55006 v -14.50208 m -1.87937,14.50208 v -14.67364 m -1.88215,14.67364 v -16.07299 m -1.88492,16.07299 v -16.07299 m -1.87937,16.07299 v -15.37645 m -2.11704,15.37645 v -17.12302 m -1.88778,17.12302 v -17.46825 m -1.87929,17.46825 v -17.81963 m -1.87938,17.81963 v -17.29874 m -1.8877,17.29874 v -16.59599 m -1.87937,16.59599 v -16.59599 m -1.88214,16.59599 V 277.7935 m -2.1199,18.34256 V 279.3623 m -1.87651,16.77376 v -17.99534 m -1.88493,17.99534 v -19.21693 m -1.88215,19.21693 v -19.91559 m -1.87937,19.91559 v -20.61629 m -1.88492,20.61629 v -23.41295 m -2.11989,23.41295 v -24.8061 m -1.87932,24.8061 v -28.65074 m -1.88493,28.65074 v -31.97239 m -1.87656,31.97239 v -38.61158 m -1.88494,38.61158 v -44.8994 m -1.88773,44.8994 v -54.15543 m -1.87655,54.15543 v -55.90411 m -2.11986,55.90411 v -58.17368 m -1.88214,58.17368 v -60.79463 m -1.87655,60.79463 v -64.11217 m -1.88773,64.11217 v -65.51153 m -1.87656,65.51153 v -74.59601 m -1.88493,74.59601 v -88.39534 m -1.88495,88.39534 V 180.66095 m -2.11705,115.47511 V 152.18599 m -1.88215,143.95007 v -180.6352 m -1.87934,180.6352 V 83.706236 M 132.60168,296.13606 V 62.219733 M 130.71954,296.13606 V 63.966365 M 128.83739,296.13606 V 83.706236 M 126.72033,296.13606 V 122.138 m -1.88494,173.99806 V 162.84343 m -1.87655,133.29263 v -95.90884 m -1.88494,95.90884 v -67.26021 m -1.88493,67.26021 v -48.04122 m -1.87935,48.04122 v -35.98647 m -1.88214,35.98647 v -30.04798 m -2.11707,30.04798 v -25.68041 m -1.88493,25.68041 v -22.18925 m -1.87935,22.18925 v -20.26491 m -1.87934,20.26491 v -20.61629 m -1.88773,20.61629 v -19.39259 m -1.87656,19.39259 v -17.64602 m -1.88215,17.64602 v -17.12302 m -2.125448,17.12302 V 279.3623 m -1.870954,16.77376 v -15.19868 m -1.887736,15.19868 v -15.72367 m -1.882146,15.72367 v -15.89734 m -1.88214,15.89734 v -15.72367 m -1.884938,15.72367 v -14.32847 m -2.117063,14.32847 v -14.67364 m -1.879349,14.67364 V 281.2867 m -1.88214,14.84936 v -14.67364 m -1.882147,14.67364 v -14.1507 m -1.882139,14.1507 v -14.67364 m -1.884938,14.67364 v -13.80138 m -1.87935,13.80138 v -14.50208 m -2.119853,14.50208 v -13.45205 m -1.879348,13.45205 v -13.62777 m -1.882148,13.62777 v -13.45205 m -1.88214,13.45205 v -12.92912 m -1.884938,12.92912 v -13.27844 m -1.87655,13.27844 v -14.1507 m -1.890535,14.1507 v -13.62777 m -2.114265,13.62777 v -13.80138 m -1.87655,13.80138 V 282.50829 M 57.783,296.13606 v -14.50208 m -1.879341,14.50208 v -14.67364 m -1.882147,14.67364 v -13.62777 m -1.882139,13.62777 v -14.50208 m -2.119862,14.50208 v -13.62777 m -1.879341,13.62777 v -13.45205 m -1.882148,13.45205 v -12.92912 m -1.87934,12.92912 v -13.10067 m -1.884946,13.10067 v -13.27844 m -1.879342,13.27844 v -13.62777 m -1.882147,13.62777 v -12.7534 m -2.117055,12.7534 v -12.22841 m -1.882147,12.22841 v -11.88114 m -1.88214,11.88114 v -11.70542 m -1.882147,11.70542 v -11.18043 m -1.884938,11.18043 v -11.70542 m -1.884938,11.70542 v -11.88114 m -1.87655,11.88114 v -11.70542 m -2.114265,11.70542 v -11.88114 m -1.890535,11.88114 v -11.88114 m -1.876551,11.88114 v -12.7534 m -1.884937,12.7534 v -13.10067 m -1.884938,13.10067 v -13.27844 m -1.879349,13.27844 v -12.57979"
       style="fill:none;stroke:#eb1f21;stroke-width:1.77677953;stroke-linecap:butt;stroke-linejoin:miter;stroke-miterlimit:10;stroke-dasharray:none;stroke-opacity:1"
       id="path293"
       inkscape:connector-curvature="0" />
  </g>
</svg>
