<?xml version="1.0" encoding="utf-8" standalone="no"?>
<!DOCTYPE svg PUBLIC "-//W3C//DTD SVG 1.1//EN"
  "http://www.w3.org/Graphics/SVG/1.1/DTD/svg11.dtd">
<!-- Created with matplotlib (https://matplotlib.org/) -->
<svg height="504pt" version="1.1" viewBox="0 0 576 504" width="576pt" xmlns="http://www.w3.org/2000/svg" xmlns:xlink="http://www.w3.org/1999/xlink">
 <metadata>
  <rdf:RDF xmlns:cc="http://creativecommons.org/ns#" xmlns:dc="http://purl.org/dc/elements/1.1/" xmlns:rdf="http://www.w3.org/1999/02/22-rdf-syntax-ns#">
   <cc:Work>
    <dc:type rdf:resource="http://purl.org/dc/dcmitype/StillImage"/>
    <dc:date>2021-04-13T20:37:30.477554</dc:date>
    <dc:format>image/svg+xml</dc:format>
    <dc:creator>
     <cc:Agent>
      <dc:title>Matplotlib v3.3.4, https://matplotlib.org/</dc:title>
     </cc:Agent>
    </dc:creator>
   </cc:Work>
  </rdf:RDF>
 </metadata>
 <defs>
  <style type="text/css">*{stroke-linecap:butt;stroke-linejoin:round;}</style>
 </defs>
 <g id="figure_1">
  <g id="patch_1">
   <path d="M 0 504 
L 576 504 
L 576 0 
L 0 0 
z
" style="fill:none;"/>
  </g>
  <g id="axes_1">
   <g id="patch_2">
    <path d="M 30.150898 460.174 
L 556.325 460.174 
L 556.325 27.4104 
L 30.150898 27.4104 
z
" style="fill:#ffffff;"/>
   </g>
   <g id="matplotlib.axis_1">
    <g id="xtick_1">
     <g id="line2d_1">
      <defs>
       <path d="M 0 0 
L 0 -3.5 
" id="m3987311d02" style="stroke:#000000;stroke-width:0.8;"/>
      </defs>
      <g>
       <use style="stroke:#000000;stroke-width:0.8;" x="30.150898" xlink:href="#m3987311d02" y="460.174"/>
      </g>
     </g>
     <g id="text_1">
      <!-- 0 -->
      <g transform="translate(25.697148 474.311812)scale(0.14 -0.14)">
       <defs>
        <path d="M 31.78125 66.40625 
Q 24.171875 66.40625 20.328125 58.90625 
Q 16.5 51.421875 16.5 36.375 
Q 16.5 21.390625 20.328125 13.890625 
Q 24.171875 6.390625 31.78125 6.390625 
Q 39.453125 6.390625 43.28125 13.890625 
Q 47.125 21.390625 47.125 36.375 
Q 47.125 51.421875 43.28125 58.90625 
Q 39.453125 66.40625 31.78125 66.40625 
z
M 31.78125 74.21875 
Q 44.046875 74.21875 50.515625 64.515625 
Q 56.984375 54.828125 56.984375 36.375 
Q 56.984375 17.96875 50.515625 8.265625 
Q 44.046875 -1.421875 31.78125 -1.421875 
Q 19.53125 -1.421875 13.0625 8.265625 
Q 6.59375 17.96875 6.59375 36.375 
Q 6.59375 54.828125 13.0625 64.515625 
Q 19.53125 74.21875 31.78125 74.21875 
z
" id="DejaVuSans-48"/>
       </defs>
       <use xlink:href="#DejaVuSans-48"/>
      </g>
     </g>
    </g>
    <g id="xtick_2">
     <g id="line2d_2">
      <g>
       <use style="stroke:#000000;stroke-width:0.8;" x="82.768309" xlink:href="#m3987311d02" y="460.174"/>
      </g>
     </g>
     <g id="text_2">
      <!-- 2 -->
      <g transform="translate(78.314559 474.311812)scale(0.14 -0.14)">
       <defs>
        <path d="M 19.1875 8.296875 
L 53.609375 8.296875 
L 53.609375 0 
L 7.328125 0 
L 7.328125 8.296875 
Q 12.9375 14.109375 22.625 23.890625 
Q 32.328125 33.6875 34.8125 36.53125 
Q 39.546875 41.84375 41.421875 45.53125 
Q 43.3125 49.21875 43.3125 52.78125 
Q 43.3125 58.59375 39.234375 62.25 
Q 35.15625 65.921875 28.609375 65.921875 
Q 23.96875 65.921875 18.8125 64.3125 
Q 13.671875 62.703125 7.8125 59.421875 
L 7.8125 69.390625 
Q 13.765625 71.78125 18.9375 73 
Q 24.125 74.21875 28.421875 74.21875 
Q 39.75 74.21875 46.484375 68.546875 
Q 53.21875 62.890625 53.21875 53.421875 
Q 53.21875 48.921875 51.53125 44.890625 
Q 49.859375 40.875 45.40625 35.40625 
Q 44.1875 33.984375 37.640625 27.21875 
Q 31.109375 20.453125 19.1875 8.296875 
z
" id="DejaVuSans-50"/>
       </defs>
       <use xlink:href="#DejaVuSans-50"/>
      </g>
     </g>
    </g>
    <g id="xtick_3">
     <g id="line2d_3">
      <g>
       <use style="stroke:#000000;stroke-width:0.8;" x="135.385719" xlink:href="#m3987311d02" y="460.174"/>
      </g>
     </g>
     <g id="text_3">
      <!-- 4 -->
      <g transform="translate(130.931969 474.311812)scale(0.14 -0.14)">
       <defs>
        <path d="M 37.796875 64.3125 
L 12.890625 25.390625 
L 37.796875 25.390625 
z
M 35.203125 72.90625 
L 47.609375 72.90625 
L 47.609375 25.390625 
L 58.015625 25.390625 
L 58.015625 17.1875 
L 47.609375 17.1875 
L 47.609375 0 
L 37.796875 0 
L 37.796875 17.1875 
L 4.890625 17.1875 
L 4.890625 26.703125 
z
" id="DejaVuSans-52"/>
       </defs>
       <use xlink:href="#DejaVuSans-52"/>
      </g>
     </g>
    </g>
    <g id="xtick_4">
     <g id="line2d_4">
      <g>
       <use style="stroke:#000000;stroke-width:0.8;" x="188.003129" xlink:href="#m3987311d02" y="460.174"/>
      </g>
     </g>
     <g id="text_4">
      <!-- 6 -->
      <g transform="translate(183.549379 474.311812)scale(0.14 -0.14)">
       <defs>
        <path d="M 33.015625 40.375 
Q 26.375 40.375 22.484375 35.828125 
Q 18.609375 31.296875 18.609375 23.390625 
Q 18.609375 15.53125 22.484375 10.953125 
Q 26.375 6.390625 33.015625 6.390625 
Q 39.65625 6.390625 43.53125 10.953125 
Q 47.40625 15.53125 47.40625 23.390625 
Q 47.40625 31.296875 43.53125 35.828125 
Q 39.65625 40.375 33.015625 40.375 
z
M 52.59375 71.296875 
L 52.59375 62.3125 
Q 48.875 64.0625 45.09375 64.984375 
Q 41.3125 65.921875 37.59375 65.921875 
Q 27.828125 65.921875 22.671875 59.328125 
Q 17.53125 52.734375 16.796875 39.40625 
Q 19.671875 43.65625 24.015625 45.921875 
Q 28.375 48.1875 33.59375 48.1875 
Q 44.578125 48.1875 50.953125 41.515625 
Q 57.328125 34.859375 57.328125 23.390625 
Q 57.328125 12.15625 50.6875 5.359375 
Q 44.046875 -1.421875 33.015625 -1.421875 
Q 20.359375 -1.421875 13.671875 8.265625 
Q 6.984375 17.96875 6.984375 36.375 
Q 6.984375 53.65625 15.1875 63.9375 
Q 23.390625 74.21875 37.203125 74.21875 
Q 40.921875 74.21875 44.703125 73.484375 
Q 48.484375 72.75 52.59375 71.296875 
z
" id="DejaVuSans-54"/>
       </defs>
       <use xlink:href="#DejaVuSans-54"/>
      </g>
     </g>
    </g>
    <g id="xtick_5">
     <g id="line2d_5">
      <g>
       <use style="stroke:#000000;stroke-width:0.8;" x="240.620539" xlink:href="#m3987311d02" y="460.174"/>
      </g>
     </g>
     <g id="text_5">
      <!-- 8 -->
      <g transform="translate(236.166789 474.311812)scale(0.14 -0.14)">
       <defs>
        <path d="M 31.78125 34.625 
Q 24.75 34.625 20.71875 30.859375 
Q 16.703125 27.09375 16.703125 20.515625 
Q 16.703125 13.921875 20.71875 10.15625 
Q 24.75 6.390625 31.78125 6.390625 
Q 38.8125 6.390625 42.859375 10.171875 
Q 46.921875 13.96875 46.921875 20.515625 
Q 46.921875 27.09375 42.890625 30.859375 
Q 38.875 34.625 31.78125 34.625 
z
M 21.921875 38.8125 
Q 15.578125 40.375 12.03125 44.71875 
Q 8.5 49.078125 8.5 55.328125 
Q 8.5 64.0625 14.71875 69.140625 
Q 20.953125 74.21875 31.78125 74.21875 
Q 42.671875 74.21875 48.875 69.140625 
Q 55.078125 64.0625 55.078125 55.328125 
Q 55.078125 49.078125 51.53125 44.71875 
Q 48 40.375 41.703125 38.8125 
Q 48.828125 37.15625 52.796875 32.3125 
Q 56.78125 27.484375 56.78125 20.515625 
Q 56.78125 9.90625 50.3125 4.234375 
Q 43.84375 -1.421875 31.78125 -1.421875 
Q 19.734375 -1.421875 13.25 4.234375 
Q 6.78125 9.90625 6.78125 20.515625 
Q 6.78125 27.484375 10.78125 32.3125 
Q 14.796875 37.15625 21.921875 38.8125 
z
M 18.3125 54.390625 
Q 18.3125 48.734375 21.84375 45.5625 
Q 25.390625 42.390625 31.78125 42.390625 
Q 38.140625 42.390625 41.71875 45.5625 
Q 45.3125 48.734375 45.3125 54.390625 
Q 45.3125 60.0625 41.71875 63.234375 
Q 38.140625 66.40625 31.78125 66.40625 
Q 25.390625 66.40625 21.84375 63.234375 
Q 18.3125 60.0625 18.3125 54.390625 
z
" id="DejaVuSans-56"/>
       </defs>
       <use xlink:href="#DejaVuSans-56"/>
      </g>
     </g>
    </g>
    <g id="xtick_6">
     <g id="line2d_6">
      <g>
       <use style="stroke:#000000;stroke-width:0.8;" x="293.237949" xlink:href="#m3987311d02" y="460.174"/>
      </g>
     </g>
     <g id="text_6">
      <!-- 10 -->
      <g transform="translate(284.330449 474.311812)scale(0.14 -0.14)">
       <defs>
        <path d="M 12.40625 8.296875 
L 28.515625 8.296875 
L 28.515625 63.921875 
L 10.984375 60.40625 
L 10.984375 69.390625 
L 28.421875 72.90625 
L 38.28125 72.90625 
L 38.28125 8.296875 
L 54.390625 8.296875 
L 54.390625 0 
L 12.40625 0 
z
" id="DejaVuSans-49"/>
       </defs>
       <use xlink:href="#DejaVuSans-49"/>
       <use x="63.623047" xlink:href="#DejaVuSans-48"/>
      </g>
     </g>
    </g>
    <g id="xtick_7">
     <g id="line2d_7">
      <g>
       <use style="stroke:#000000;stroke-width:0.8;" x="345.855359" xlink:href="#m3987311d02" y="460.174"/>
      </g>
     </g>
     <g id="text_7">
      <!-- 12 -->
      <g transform="translate(336.947859 474.311812)scale(0.14 -0.14)">
       <use xlink:href="#DejaVuSans-49"/>
       <use x="63.623047" xlink:href="#DejaVuSans-50"/>
      </g>
     </g>
    </g>
    <g id="xtick_8">
     <g id="line2d_8">
      <g>
       <use style="stroke:#000000;stroke-width:0.8;" x="398.47277" xlink:href="#m3987311d02" y="460.174"/>
      </g>
     </g>
     <g id="text_8">
      <!-- 14 -->
      <g transform="translate(389.56527 474.311812)scale(0.14 -0.14)">
       <use xlink:href="#DejaVuSans-49"/>
       <use x="63.623047" xlink:href="#DejaVuSans-52"/>
      </g>
     </g>
    </g>
    <g id="xtick_9">
     <g id="line2d_9">
      <g>
       <use style="stroke:#000000;stroke-width:0.8;" x="451.09018" xlink:href="#m3987311d02" y="460.174"/>
      </g>
     </g>
     <g id="text_9">
      <!-- 16 -->
      <g transform="translate(442.18268 474.311812)scale(0.14 -0.14)">
       <use xlink:href="#DejaVuSans-49"/>
       <use x="63.623047" xlink:href="#DejaVuSans-54"/>
      </g>
     </g>
    </g>
    <g id="xtick_10">
     <g id="line2d_10">
      <g>
       <use style="stroke:#000000;stroke-width:0.8;" x="503.70759" xlink:href="#m3987311d02" y="460.174"/>
      </g>
     </g>
     <g id="text_10">
      <!-- 18 -->
      <g transform="translate(494.80009 474.311812)scale(0.14 -0.14)">
       <use xlink:href="#DejaVuSans-49"/>
       <use x="63.623047" xlink:href="#DejaVuSans-56"/>
      </g>
     </g>
    </g>
    <g id="xtick_11">
     <g id="line2d_11">
      <g>
       <use style="stroke:#000000;stroke-width:0.8;" x="556.325" xlink:href="#m3987311d02" y="460.174"/>
      </g>
     </g>
     <g id="text_11">
      <!-- 20 -->
      <g transform="translate(547.4175 474.311812)scale(0.14 -0.14)">
       <use xlink:href="#DejaVuSans-50"/>
       <use x="63.623047" xlink:href="#DejaVuSans-48"/>
      </g>
     </g>
    </g>
    <g id="text_12">
     <!-- E, MeV -->
     <g transform="translate(516.531964 492.449993)scale(0.14 -0.14)">
      <defs>
       <path d="M 9.8125 72.90625 
L 55.90625 72.90625 
L 55.90625 64.59375 
L 19.671875 64.59375 
L 19.671875 43.015625 
L 54.390625 43.015625 
L 54.390625 34.71875 
L 19.671875 34.71875 
L 19.671875 8.296875 
L 56.78125 8.296875 
L 56.78125 0 
L 9.8125 0 
z
" id="DejaVuSans-69"/>
       <path d="M 11.71875 12.40625 
L 22.015625 12.40625 
L 22.015625 4 
L 14.015625 -11.625 
L 7.71875 -11.625 
L 11.71875 4 
z
" id="DejaVuSans-44"/>
       <path id="DejaVuSans-32"/>
       <path d="M 9.8125 72.90625 
L 24.515625 72.90625 
L 43.109375 23.296875 
L 61.8125 72.90625 
L 76.515625 72.90625 
L 76.515625 0 
L 66.890625 0 
L 66.890625 64.015625 
L 48.09375 14.015625 
L 38.1875 14.015625 
L 19.390625 64.015625 
L 19.390625 0 
L 9.8125 0 
z
" id="DejaVuSans-77"/>
       <path d="M 56.203125 29.59375 
L 56.203125 25.203125 
L 14.890625 25.203125 
Q 15.484375 15.921875 20.484375 11.0625 
Q 25.484375 6.203125 34.421875 6.203125 
Q 39.59375 6.203125 44.453125 7.46875 
Q 49.3125 8.734375 54.109375 11.28125 
L 54.109375 2.78125 
Q 49.265625 0.734375 44.1875 -0.34375 
Q 39.109375 -1.421875 33.890625 -1.421875 
Q 20.796875 -1.421875 13.15625 6.1875 
Q 5.515625 13.8125 5.515625 26.8125 
Q 5.515625 40.234375 12.765625 48.109375 
Q 20.015625 56 32.328125 56 
Q 43.359375 56 49.78125 48.890625 
Q 56.203125 41.796875 56.203125 29.59375 
z
M 47.21875 32.234375 
Q 47.125 39.59375 43.09375 43.984375 
Q 39.0625 48.390625 32.421875 48.390625 
Q 24.90625 48.390625 20.390625 44.140625 
Q 15.875 39.890625 15.1875 32.171875 
z
" id="DejaVuSans-101"/>
       <path d="M 28.609375 0 
L 0.78125 72.90625 
L 11.078125 72.90625 
L 34.1875 11.53125 
L 57.328125 72.90625 
L 67.578125 72.90625 
L 39.796875 0 
z
" id="DejaVuSans-86"/>
      </defs>
      <use xlink:href="#DejaVuSans-69"/>
      <use x="63.183594" xlink:href="#DejaVuSans-44"/>
      <use x="94.970703" xlink:href="#DejaVuSans-32"/>
      <use x="126.757812" xlink:href="#DejaVuSans-77"/>
      <use x="213.037109" xlink:href="#DejaVuSans-101"/>
      <use x="274.560547" xlink:href="#DejaVuSans-86"/>
     </g>
    </g>
   </g>
   <g id="matplotlib.axis_2">
    <g id="ytick_1">
     <g id="line2d_12">
      <defs>
       <path d="M 0 0 
L 3.5 0 
" id="ma2821bf90a" style="stroke:#000000;stroke-width:0.8;"/>
      </defs>
      <g>
       <use style="stroke:#000000;stroke-width:0.8;" x="30.150898" xlink:href="#ma2821bf90a" y="460.174"/>
      </g>
     </g>
     <g id="text_13">
      <!-- 0 -->
      <g transform="translate(17.743398 465.492906)scale(0.14 -0.14)">
       <use xlink:href="#DejaVuSans-48"/>
      </g>
     </g>
    </g>
    <g id="ytick_2">
     <g id="line2d_13">
      <g>
       <use style="stroke:#000000;stroke-width:0.8;" x="30.150898" xlink:href="#ma2821bf90a" y="406.07855"/>
      </g>
     </g>
     <g id="text_14">
      <!-- 1 -->
      <g transform="translate(17.743398 411.397456)scale(0.14 -0.14)">
       <use xlink:href="#DejaVuSans-49"/>
      </g>
     </g>
    </g>
    <g id="ytick_3">
     <g id="line2d_14">
      <g>
       <use style="stroke:#000000;stroke-width:0.8;" x="30.150898" xlink:href="#ma2821bf90a" y="351.9831"/>
      </g>
     </g>
     <g id="text_15">
      <!-- 2 -->
      <g transform="translate(17.743398 357.302006)scale(0.14 -0.14)">
       <use xlink:href="#DejaVuSans-50"/>
      </g>
     </g>
    </g>
    <g id="ytick_4">
     <g id="line2d_15">
      <g>
       <use style="stroke:#000000;stroke-width:0.8;" x="30.150898" xlink:href="#ma2821bf90a" y="297.88765"/>
      </g>
     </g>
     <g id="text_16">
      <!-- 3 -->
      <g transform="translate(17.743398 303.206556)scale(0.14 -0.14)">
       <defs>
        <path d="M 40.578125 39.3125 
Q 47.65625 37.796875 51.625 33 
Q 55.609375 28.21875 55.609375 21.1875 
Q 55.609375 10.40625 48.1875 4.484375 
Q 40.765625 -1.421875 27.09375 -1.421875 
Q 22.515625 -1.421875 17.65625 -0.515625 
Q 12.796875 0.390625 7.625 2.203125 
L 7.625 11.71875 
Q 11.71875 9.328125 16.59375 8.109375 
Q 21.484375 6.890625 26.8125 6.890625 
Q 36.078125 6.890625 40.9375 10.546875 
Q 45.796875 14.203125 45.796875 21.1875 
Q 45.796875 27.640625 41.28125 31.265625 
Q 36.765625 34.90625 28.71875 34.90625 
L 20.21875 34.90625 
L 20.21875 43.015625 
L 29.109375 43.015625 
Q 36.375 43.015625 40.234375 45.921875 
Q 44.09375 48.828125 44.09375 54.296875 
Q 44.09375 59.90625 40.109375 62.90625 
Q 36.140625 65.921875 28.71875 65.921875 
Q 24.65625 65.921875 20.015625 65.03125 
Q 15.375 64.15625 9.8125 62.3125 
L 9.8125 71.09375 
Q 15.4375 72.65625 20.34375 73.4375 
Q 25.25 74.21875 29.59375 74.21875 
Q 40.828125 74.21875 47.359375 69.109375 
Q 53.90625 64.015625 53.90625 55.328125 
Q 53.90625 49.265625 50.4375 45.09375 
Q 46.96875 40.921875 40.578125 39.3125 
z
" id="DejaVuSans-51"/>
       </defs>
       <use xlink:href="#DejaVuSans-51"/>
      </g>
     </g>
    </g>
    <g id="ytick_5">
     <g id="line2d_16">
      <g>
       <use style="stroke:#000000;stroke-width:0.8;" x="30.150898" xlink:href="#ma2821bf90a" y="243.7922"/>
      </g>
     </g>
     <g id="text_17">
      <!-- 4 -->
      <g transform="translate(17.743398 249.111106)scale(0.14 -0.14)">
       <use xlink:href="#DejaVuSans-52"/>
      </g>
     </g>
    </g>
    <g id="ytick_6">
     <g id="line2d_17">
      <g>
       <use style="stroke:#000000;stroke-width:0.8;" x="30.150898" xlink:href="#ma2821bf90a" y="189.69675"/>
      </g>
     </g>
     <g id="text_18">
      <!-- 5 -->
      <g transform="translate(17.743398 195.015656)scale(0.14 -0.14)">
       <defs>
        <path d="M 10.796875 72.90625 
L 49.515625 72.90625 
L 49.515625 64.59375 
L 19.828125 64.59375 
L 19.828125 46.734375 
Q 21.96875 47.46875 24.109375 47.828125 
Q 26.265625 48.1875 28.421875 48.1875 
Q 40.625 48.1875 47.75 41.5 
Q 54.890625 34.8125 54.890625 23.390625 
Q 54.890625 11.625 47.5625 5.09375 
Q 40.234375 -1.421875 26.90625 -1.421875 
Q 22.3125 -1.421875 17.546875 -0.640625 
Q 12.796875 0.140625 7.71875 1.703125 
L 7.71875 11.625 
Q 12.109375 9.234375 16.796875 8.0625 
Q 21.484375 6.890625 26.703125 6.890625 
Q 35.15625 6.890625 40.078125 11.328125 
Q 45.015625 15.765625 45.015625 23.390625 
Q 45.015625 31 40.078125 35.4375 
Q 35.15625 39.890625 26.703125 39.890625 
Q 22.75 39.890625 18.8125 39.015625 
Q 14.890625 38.140625 10.796875 36.28125 
z
" id="DejaVuSans-53"/>
       </defs>
       <use xlink:href="#DejaVuSans-53"/>
      </g>
     </g>
    </g>
    <g id="ytick_7">
     <g id="line2d_18">
      <g>
       <use style="stroke:#000000;stroke-width:0.8;" x="30.150898" xlink:href="#ma2821bf90a" y="135.6013"/>
      </g>
     </g>
     <g id="text_19">
      <!-- 6 -->
      <g transform="translate(17.743398 140.920206)scale(0.14 -0.14)">
       <use xlink:href="#DejaVuSans-54"/>
      </g>
     </g>
    </g>
    <g id="ytick_8">
     <g id="line2d_19">
      <g>
       <use style="stroke:#000000;stroke-width:0.8;" x="30.150898" xlink:href="#ma2821bf90a" y="81.50585"/>
      </g>
     </g>
     <g id="text_20">
      <!-- 7 -->
      <g transform="translate(17.743398 86.824756)scale(0.14 -0.14)">
       <defs>
        <path d="M 8.203125 72.90625 
L 55.078125 72.90625 
L 55.078125 68.703125 
L 28.609375 0 
L 18.3125 0 
L 43.21875 64.59375 
L 8.203125 64.59375 
z
" id="DejaVuSans-55"/>
       </defs>
       <use xlink:href="#DejaVuSans-55"/>
      </g>
     </g>
    </g>
    <g id="ytick_9">
     <g id="line2d_20">
      <g>
       <use style="stroke:#000000;stroke-width:0.8;" x="30.150898" xlink:href="#ma2821bf90a" y="27.4104"/>
      </g>
     </g>
     <g id="text_21">
      <!-- 8 -->
      <g transform="translate(17.743398 32.729306)scale(0.14 -0.14)">
       <use xlink:href="#DejaVuSans-56"/>
      </g>
     </g>
    </g>
    <g id="text_22">
     <!-- $S(E)$, 1/MeV -->
     <g transform="translate(15.719604 15.843565)scale(0.14 -0.14)">
      <defs>
       <path d="M 60.296875 70.515625 
L 58.40625 60.890625 
Q 53.46875 63.53125 48.609375 64.875 
Q 43.75 66.21875 39.203125 66.21875 
Q 30.375 66.21875 25.140625 62.359375 
Q 19.921875 58.5 19.921875 52.09375 
Q 19.921875 48.578125 21.84375 46.703125 
Q 23.78125 44.828125 31.78125 42.671875 
L 37.703125 41.21875 
Q 47.703125 38.625 51.609375 34.640625 
Q 55.515625 30.671875 55.515625 23.484375 
Q 55.515625 12.453125 46.84375 5.515625 
Q 38.1875 -1.421875 24.03125 -1.421875 
Q 18.21875 -1.421875 12.359375 -0.265625 
Q 6.5 0.875 0.59375 3.21875 
L 2.59375 13.375 
Q 8.015625 10.015625 13.453125 8.296875 
Q 18.890625 6.59375 24.3125 6.59375 
Q 33.546875 6.59375 39.109375 10.6875 
Q 44.671875 14.796875 44.671875 21.390625 
Q 44.671875 25.78125 42.453125 28.046875 
Q 40.234375 30.328125 32.90625 32.171875 
L 27 33.6875 
Q 16.890625 36.328125 13.203125 39.765625 
Q 9.515625 43.21875 9.515625 49.421875 
Q 9.515625 60.296875 17.890625 67.25 
Q 26.265625 74.21875 39.703125 74.21875 
Q 44.921875 74.21875 50.046875 73.28125 
Q 55.171875 72.359375 60.296875 70.515625 
z
" id="DejaVuSans-Oblique-83"/>
       <path d="M 31 75.875 
Q 24.46875 64.65625 21.28125 53.65625 
Q 18.109375 42.671875 18.109375 31.390625 
Q 18.109375 20.125 21.3125 9.0625 
Q 24.515625 -2 31 -13.1875 
L 23.1875 -13.1875 
Q 15.875 -1.703125 12.234375 9.375 
Q 8.59375 20.453125 8.59375 31.390625 
Q 8.59375 42.28125 12.203125 53.3125 
Q 15.828125 64.359375 23.1875 75.875 
z
" id="DejaVuSans-40"/>
       <path d="M 16.890625 72.90625 
L 62.984375 72.90625 
L 61.375 64.59375 
L 25.09375 64.59375 
L 20.90625 43.015625 
L 55.71875 43.015625 
L 54.109375 34.71875 
L 19.28125 34.71875 
L 14.203125 8.296875 
L 51.3125 8.296875 
L 49.703125 0 
L 2.6875 0 
z
" id="DejaVuSans-Oblique-69"/>
       <path d="M 8.015625 75.875 
L 15.828125 75.875 
Q 23.140625 64.359375 26.78125 53.3125 
Q 30.421875 42.28125 30.421875 31.390625 
Q 30.421875 20.453125 26.78125 9.375 
Q 23.140625 -1.703125 15.828125 -13.1875 
L 8.015625 -13.1875 
Q 14.5 -2 17.703125 9.0625 
Q 20.90625 20.125 20.90625 31.390625 
Q 20.90625 42.671875 17.703125 53.65625 
Q 14.5 64.65625 8.015625 75.875 
z
" id="DejaVuSans-41"/>
       <path d="M 25.390625 72.90625 
L 33.6875 72.90625 
L 8.296875 -9.28125 
L 0 -9.28125 
z
" id="DejaVuSans-47"/>
      </defs>
      <use transform="translate(0 0.125)" xlink:href="#DejaVuSans-Oblique-83"/>
      <use transform="translate(63.476562 0.125)" xlink:href="#DejaVuSans-40"/>
      <use transform="translate(102.490234 0.125)" xlink:href="#DejaVuSans-Oblique-69"/>
      <use transform="translate(165.673828 0.125)" xlink:href="#DejaVuSans-41"/>
      <use transform="translate(204.6875 0.125)" xlink:href="#DejaVuSans-44"/>
      <use transform="translate(236.474609 0.125)" xlink:href="#DejaVuSans-32"/>
      <use transform="translate(268.261719 0.125)" xlink:href="#DejaVuSans-49"/>
      <use transform="translate(331.884766 0.125)" xlink:href="#DejaVuSans-47"/>
      <use transform="translate(365.576172 0.125)" xlink:href="#DejaVuSans-77"/>
      <use transform="translate(451.855469 0.125)" xlink:href="#DejaVuSans-101"/>
      <use transform="translate(513.378906 0.125)" xlink:href="#DejaVuSans-86"/>
     </g>
    </g>
   </g>
   <g id="line2d_21">
    <path clip-path="url(#pb814973811)" d="M 30.150898 459.414918 
L 30.150898 457.921084 
L 32.781769 457.921084 
L 32.781769 455.306874 
L 35.412639 455.306874 
L 35.412639 455.665542 
L 36.728075 455.665542 
L 36.728075 456.987437 
L 38.04351 456.987437 
L 38.04351 457.222699 
L 39.358945 457.222699 
L 39.358945 457.918551 
L 40.67438 457.918551 
L 40.67438 458.229191 
L 41.989816 458.229191 
L 41.989816 458.627472 
L 43.305251 458.627472 
L 43.305251 456.987437 
L 45.936121 456.987437 
L 45.936121 457.282725 
L 47.251557 457.282725 
L 47.251557 457.921084 
L 49.882427 457.921084 
L 49.882427 457.808333 
L 51.197863 457.808333 
L 51.197863 458.181696 
L 52.513298 458.181696 
L 52.513298 458.653197 
L 53.828733 458.653197 
L 53.828733 455.493603 
L 56.459604 455.493603 
L 56.459604 457.518524 
L 57.775039 457.518524 
L 57.775039 459.228189 
L 59.090474 459.228189 
L 59.090474 457.921084 
L 61.721345 457.921084 
L 61.721345 458.37013 
L 63.03678 458.37013 
L 63.03678 458.919534 
L 64.352215 458.919534 
L 64.352215 458.294543 
L 66.983086 458.294543 
L 66.983086 455.680332 
L 72.244827 455.680332 
L 72.244827 456.248061 
L 73.560262 456.248061 
L 73.560262 456.877209 
L 74.875697 456.877209 
L 74.875697 456.42725 
L 77.506568 456.42725 
L 77.506568 456.544791 
L 78.822003 456.544791 
L 78.822003 455.649115 
L 80.137438 455.649115 
L 80.137438 453.62631 
L 81.452873 453.62631 
L 81.452873 451.541934 
L 82.768309 451.541934 
L 82.768309 448.024431 
L 85.399179 448.055407 
L 85.399179 448.647989 
L 86.714614 448.647989 
L 86.714614 449.539727 
L 88.03005 449.539727 
L 88.03005 451.25687 
L 89.345485 451.25687 
L 89.345485 452.319205 
L 90.66092 452.319205 
L 90.66092 448.682761 
L 91.976355 448.682761 
L 91.976355 445.339823 
L 93.291791 445.339823 
L 93.291791 440.899017 
L 94.607226 440.899017 
L 94.607226 436.841144 
L 95.922661 436.841144 
L 95.922661 434.574935 
L 97.238096 434.574935 
L 97.238096 432.903287 
L 98.553532 432.903287 
L 98.553532 430.098419 
L 101.184402 430.098419 
L 101.184402 432.525568 
L 102.499837 432.525568 
L 102.499837 435.779042 
L 103.815273 435.779042 
L 103.815273 438.36692 
L 105.130708 438.36692 
L 105.130708 439.782566 
L 106.446143 439.782566 
L 106.446143 436.073757 
L 107.761578 436.073757 
L 107.761578 435.939177 
L 109.077014 435.939177 
L 109.077014 429.351502 
L 110.392449 429.351502 
L 110.392449 423.639431 
L 111.707884 423.639431 
L 111.707884 420.015038 
L 114.338755 420.080406 
L 114.338755 426.95625 
L 115.65419 426.95625 
L 115.65419 434.579922 
L 116.969625 434.579922 
L 116.969625 437.183829 
L 118.28506 437.183829 
L 118.28506 437.94105 
L 119.600496 437.94105 
L 119.600496 438.333248 
L 120.915931 438.333248 
L 120.915931 438.4999 
L 122.231366 438.4999 
L 122.231366 425.080465 
L 124.862237 425.056728 
L 124.862237 426.489241 
L 126.177672 426.489241 
L 126.177672 427.110751 
L 127.493107 427.110751 
L 127.493107 427.459334 
L 128.808542 427.459334 
L 128.808542 427.670939 
L 130.123978 427.670939 
L 130.123978 429.462428 
L 131.439413 429.462428 
L 131.439413 430.832123 
L 134.070283 430.779241 
L 134.070283 430.662147 
L 135.385719 430.662147 
L 135.385719 427.110751 
L 138.016589 427.110751 
L 138.016589 426.58314 
L 140.64746 426.550563 
L 140.64746 427.251627 
L 141.962895 427.251627 
L 141.962895 427.670939 
L 143.27833 427.670939 
L 143.27833 428.745955 
L 144.593766 428.745955 
L 144.593766 429.596259 
L 145.909201 429.596259 
L 145.909201 429.832503 
L 147.224636 429.832503 
L 147.224636 429.987635 
L 148.540071 429.987635 
L 148.540071 433.516589 
L 149.855507 433.516589 
L 149.855507 428.369765 
L 151.170942 428.369765 
L 151.170942 426.213158 
L 153.801812 426.200306 
L 153.801812 428.151977 
L 155.117248 428.151977 
L 155.117248 428.532847 
L 156.432683 428.532847 
L 156.432683 427.309649 
L 159.063553 427.22923 
L 159.063553 428.067517 
L 160.378989 428.067517 
L 160.378989 424.341774 
L 161.694424 424.341774 
L 161.694424 420.668459 
L 164.325294 420.599455 
L 164.325294 422.00097 
L 165.64073 422.00097 
L 165.64073 425.321004 
L 166.956165 425.321004 
L 166.956165 426.144345 
L 168.2716 426.144345 
L 168.2716 424.610656 
L 169.587035 424.610656 
L 169.587035 420.585991 
L 172.217906 420.580909 
L 172.217906 422.138101 
L 173.533341 422.138101 
L 173.533341 418.656855 
L 174.848776 418.656855 
L 174.848776 415.394625 
L 176.164212 415.394625 
L 176.164212 411.725621 
L 177.479647 411.725621 
L 177.479647 410.156112 
L 178.795082 410.156112 
L 178.795082 405.436541 
L 180.110517 405.436541 
L 180.110517 403.654197 
L 181.425953 403.654197 
L 181.425953 406.346492 
L 182.741388 406.346492 
L 182.741388 413.032932 
L 184.056823 413.032932 
L 184.056823 408.96781 
L 185.372258 408.96781 
L 185.372258 405.013098 
L 188.003129 404.968798 
L 188.003129 408.457664 
L 189.318564 408.457664 
L 189.318564 411.201249 
L 190.633999 411.201249 
L 190.633999 410.706273 
L 191.949435 410.706273 
L 191.949435 405.587658 
L 193.26487 405.587658 
L 193.26487 402.145781 
L 194.580305 402.145781 
L 194.580305 397.525224 
L 195.89574 397.525224 
L 195.89574 394.155718 
L 197.211176 394.155718 
L 197.211176 394.335093 
L 198.526611 394.335093 
L 198.526611 398.492036 
L 199.842046 398.492036 
L 199.842046 408.71465 
L 201.157481 408.71465 
L 201.157481 397.570186 
L 202.472917 397.570186 
L 202.472917 397.858892 
L 203.788352 397.858892 
L 203.788352 402.149747 
L 205.103787 402.149747 
L 205.103787 400.412155 
L 206.419222 400.412155 
L 206.419222 397.562079 
L 207.734658 397.562079 
L 207.734658 395.968526 
L 209.050093 395.968526 
L 209.050093 394.263431 
L 210.365528 394.263431 
L 210.365528 391.407862 
L 211.680963 391.407862 
L 211.680963 389.567962 
L 212.996399 389.567962 
L 212.996399 378.766935 
L 214.311834 378.766935 
L 214.311834 374.206888 
L 216.942704 374.273524 
L 216.942704 374.370457 
L 219.573575 374.271033 
L 219.573575 373.61878 
L 220.88901 373.61878 
L 220.88901 369.171541 
L 222.204446 369.171541 
L 222.204446 366.734578 
L 224.835316 366.732551 
L 224.835316 372.241419 
L 226.150751 372.241419 
L 226.150751 369.502035 
L 227.466187 369.502035 
L 227.466187 363.303895 
L 228.781622 363.303895 
L 228.781622 350.05835 
L 230.097057 350.05835 
L 230.097057 349.03911 
L 231.412492 349.03911 
L 231.412492 348.344558 
L 232.727928 348.344558 
L 232.727928 347.940662 
L 234.043363 347.940662 
L 234.043363 348.109877 
L 235.358798 348.109877 
L 235.358798 348.618792 
L 236.674233 348.618792 
L 236.674233 346.093257 
L 237.989669 346.093257 
L 237.989669 340.177866 
L 239.305104 340.177866 
L 239.305104 334.85531 
L 240.620539 334.85531 
L 240.620539 331.825535 
L 241.935974 331.825535 
L 241.935974 330.139526 
L 243.25141 330.139526 
L 243.25141 328.483389 
L 245.88228 328.481362 
L 245.88228 335.689465 
L 247.197715 335.689465 
L 247.197715 330.413763 
L 248.513151 330.413763 
L 248.513151 324.969223 
L 249.828586 324.969223 
L 249.828586 324.826359 
L 251.144021 324.826359 
L 251.144021 324.576792 
L 252.459456 324.576792 
L 252.459456 324.699425 
L 253.774892 324.699425 
L 253.774892 328.035352 
L 255.090327 328.035352 
L 255.090327 327.817244 
L 256.405762 327.817244 
L 256.405762 326.648023 
L 257.721197 326.648023 
L 257.721197 324.14223 
L 259.036633 324.14223 
L 259.036633 322.167327 
L 260.352068 322.167327 
L 260.352068 319.00826 
L 261.667503 319.00826 
L 261.667503 317.616858 
L 264.298374 317.614831 
L 264.298374 327.977928 
L 265.613809 327.977928 
L 265.613809 326.450422 
L 266.929244 326.450422 
L 266.929244 325.59476 
L 268.244679 325.59476 
L 268.244679 325.763156 
L 269.560115 325.763156 
L 269.560115 331.734963 
L 270.87555 331.734963 
L 270.87555 337.162234 
L 272.190985 337.162234 
L 272.190985 332.962577 
L 273.50642 332.962577 
L 273.50642 331.530535 
L 274.821856 331.530535 
L 274.821856 330.891566 
L 276.137291 330.891566 
L 276.137291 324.475466 
L 277.452726 324.475466 
L 277.452726 319.303824 
L 278.768161 319.303824 
L 278.768161 319.431976 
L 280.083597 319.431976 
L 280.083597 323.915272 
L 281.399032 323.915272 
L 281.399032 327.826709 
L 282.714467 327.826709 
L 282.714467 327.281726 
L 284.029902 327.281726 
L 284.029902 327.452781 
L 285.345338 327.452781 
L 285.345338 329.584087 
L 286.660773 329.584087 
L 286.660773 322.745542 
L 287.976208 322.745542 
L 287.976208 319.28761 
L 289.291643 319.28761 
L 289.291643 319.509412 
L 290.607079 319.509412 
L 290.607079 328.996316 
L 291.922514 328.996316 
L 291.922514 328.589008 
L 293.237949 328.589008 
L 293.237949 324.413366 
L 294.553384 324.413366 
L 294.553384 324.565442 
L 295.86882 324.565442 
L 295.86882 331.991959 
L 297.184255 331.991959 
L 297.184255 327.867584 
L 298.49969 327.867584 
L 298.49969 317.652689 
L 299.815125 317.652689 
L 299.815125 313.638047 
L 301.130561 313.638047 
L 301.130561 311.918102 
L 302.445996 311.918102 
L 302.445996 312.08024 
L 303.761431 312.08024 
L 303.761431 318.570475 
L 305.076867 318.570475 
L 305.076867 320.633453 
L 306.392302 320.633453 
L 306.392302 327.436823 
L 307.707737 327.436823 
L 307.707737 320.460357 
L 309.023172 320.460357 
L 309.023172 319.82561 
L 311.654043 319.867155 
L 311.654043 320.965989 
L 312.969478 320.965989 
L 312.969478 307.781148 
L 314.284913 307.781148 
L 314.284913 294.696717 
L 315.600349 294.696717 
L 315.600349 294.14616 
L 316.915784 294.14616 
L 316.915784 309.308967 
L 319.546654 309.242618 
L 319.546654 303.241422 
L 320.86209 303.241422 
L 320.86209 294.237079 
L 322.177525 294.237079 
L 322.177525 281.016153 
L 323.49296 281.016153 
L 323.49296 282.249382 
L 324.808395 282.249382 
L 324.808395 288.483647 
L 326.123831 288.483647 
L 326.123831 296.84778 
L 327.439266 296.84778 
L 327.439266 298.546668 
L 328.754701 298.546668 
L 328.754701 296.300153 
L 330.070136 296.300153 
L 330.070136 291.842148 
L 331.385572 291.842148 
L 331.385572 286.934414 
L 332.701007 286.934414 
L 332.701007 282.824462 
L 335.331877 282.892857 
L 335.331877 296.635524 
L 336.647313 296.635524 
L 336.647313 289.699028 
L 337.962748 289.699028 
L 337.962748 283.910903 
L 339.278183 283.910903 
L 339.278183 273.976883 
L 340.593618 273.976883 
L 340.593618 271.86091 
L 343.224489 271.858883 
L 343.224489 280.92137 
L 344.539924 280.92137 
L 344.539924 261.016674 
L 345.855359 261.016674 
L 345.855359 259.972384 
L 347.170795 259.972384 
L 347.170795 241.307105 
L 348.48623 241.307105 
L 348.48623 241.092913 
L 349.801665 241.092913 
L 349.801665 239.113397 
L 351.1171 239.113397 
L 351.1171 238.18937 
L 352.432536 238.18937 
L 352.432536 238.952699 
L 353.747971 238.952699 
L 353.747971 242.35543 
L 355.063406 242.35543 
L 355.063406 230.917603 
L 356.378841 230.917603 
L 356.378841 224.49096 
L 357.694277 224.49096 
L 357.694277 219.753453 
L 359.009712 219.753453 
L 359.009712 217.641756 
L 360.325147 217.641756 
L 360.325147 211.457438 
L 361.640582 211.457438 
L 361.640582 211.221885 
L 362.956018 211.221885 
L 362.956018 206.230214 
L 364.271453 206.230214 
L 364.271453 205.435548 
L 365.586888 205.435548 
L 365.586888 201.15698 
L 366.902323 201.15698 
L 366.902323 198.805429 
L 368.217759 198.805429 
L 368.217759 194.448362 
L 369.533194 194.448362 
L 369.533194 192.039195 
L 370.848629 192.039195 
L 370.848629 187.631769 
L 372.164064 187.631769 
L 372.164064 186.247879 
L 373.4795 186.247879 
L 373.4795 181.638566 
L 374.794935 181.638566 
L 374.794935 180.570022 
L 376.11037 180.570022 
L 376.11037 180.803827 
L 377.425805 180.803827 
L 377.425805 195.709607 
L 378.741241 195.709607 
L 378.741241 165.702292 
L 381.372111 165.700265 
L 381.372111 167.263818 
L 382.687546 167.263818 
L 382.687546 173.908288 
L 384.002982 173.908288 
L 384.002982 158.979003 
L 385.318417 158.979003 
L 385.318417 158.39787 
L 386.633852 158.39787 
L 386.633852 143.511063 
L 387.949288 143.511063 
L 387.949288 141.553752 
L 389.264723 141.553752 
L 389.264723 121.464519 
L 390.580158 121.464519 
L 390.580158 121.215693 
L 391.895593 121.215693 
L 391.895593 125.111378 
L 393.211029 125.111378 
L 393.211029 154.533089 
L 394.526464 154.533089 
L 394.526464 122.325347 
L 397.157334 122.32332 
L 397.157334 123.559218 
L 398.47277 123.559218 
L 398.47277 127.098557 
L 399.788205 127.098557 
L 399.788205 124.1126 
L 401.10364 124.1126 
L 401.10364 123.906242 
L 402.419075 123.906242 
L 402.419075 113.180025 
L 403.734511 113.180025 
L 403.734511 101.856412 
L 405.049946 101.856412 
L 405.049946 102.489987 
L 406.365381 102.489987 
L 406.365381 119.827755 
L 407.680816 119.827755 
L 407.680816 122.482695 
L 408.996252 122.482695 
L 408.996252 121.935914 
L 410.311687 121.935914 
L 410.311687 122.263831 
L 411.627122 122.263831 
L 411.627122 123.138374 
L 412.942557 123.138374 
L 412.942557 123.654964 
L 414.257993 123.654964 
L 414.257993 123.467301 
L 415.573428 123.467301 
L 415.573428 124.416726 
L 416.888863 124.416726 
L 416.888863 133.816036 
L 418.204298 133.816036 
L 418.204298 123.018509 
L 419.519734 123.018509 
L 419.519734 117.254469 
L 420.835169 117.254469 
L 420.835169 96.835469 
L 422.150604 96.835469 
L 422.150604 94.715215 
L 423.466039 94.715215 
L 423.466039 77.667094 
L 424.781475 77.667094 
L 424.781475 77.223793 
L 426.09691 77.223793 
L 426.09691 78.94617 
L 427.412345 78.94617 
L 427.412345 98.316648 
L 428.72778 98.316648 
L 428.72778 99.246585 
L 430.043216 99.246585 
L 430.043216 105.586644 
L 431.358651 105.586644 
L 431.358651 101.392277 
L 432.674086 101.392277 
L 432.674086 101.160687 
L 433.989521 101.160687 
L 433.989521 105.152384 
L 435.304957 105.152384 
L 435.304957 120.125165 
L 436.620392 120.125165 
L 436.620392 125.105005 
L 437.935827 125.105005 
L 437.935827 128.821233 
L 439.251262 128.821233 
L 439.251262 127.623545 
L 440.566698 127.623545 
L 440.566698 126.255504 
L 441.882133 126.255504 
L 441.882133 126.465493 
L 443.197568 126.465493 
L 443.197568 133.47522 
L 444.513003 133.47522 
L 444.513003 131.299692 
L 445.828439 131.299692 
L 445.828439 129.661882 
L 447.143874 129.661882 
L 447.143874 130.601729 
L 448.459309 130.601729 
L 448.459309 154.597374 
L 449.774744 154.597374 
L 449.774744 150.108373 
L 451.09018 150.108373 
L 451.09018 149.618799 
L 452.405615 149.618799 
L 452.405615 141.770305 
L 453.72105 141.770305 
L 453.72105 141.635529 
L 455.036485 141.635529 
L 455.036485 142.313217 
L 456.351921 142.313217 
L 456.351921 148.797929 
L 457.667356 148.797929 
L 457.667356 150.130868 
L 458.982791 150.130868 
L 458.982791 199.114987 
L 460.298226 199.114987 
L 460.298226 154.219089 
L 461.613662 154.219089 
L 461.613662 144.468721 
L 464.244532 144.466694 
L 464.244532 178.912558 
L 465.559967 178.912558 
L 465.559967 183.514573 
L 466.875403 183.514573 
L 466.875403 190.84798 
L 468.190838 190.84798 
L 468.190838 178.684342 
L 469.506273 178.684342 
L 469.506273 178.068807 
L 470.821708 178.068807 
L 470.821708 167.271704 
L 473.452579 167.269677 
L 473.452579 171.767326 
L 474.768014 171.767326 
L 474.768014 191.223652 
L 476.08345 191.223652 
L 476.08345 195.910677 
L 477.398885 195.910677 
L 477.398885 211.755051 
L 478.71432 211.755051 
L 478.71432 214.899072 
L 480.029755 214.899072 
L 480.029755 226.46355 
L 481.345191 226.46355 
L 481.345191 220.469767 
L 482.660626 220.469767 
L 482.660626 218.403167 
L 483.976061 218.403167 
L 483.976061 216.013614 
L 485.291496 216.013614 
L 485.291496 215.764046 
L 486.606932 215.764046 
L 486.606932 215.953078 
L 487.922367 215.953078 
L 487.922367 238.40797 
L 489.237802 238.40797 
L 489.237802 241.418042 
L 490.553237 241.418042 
L 490.553237 239.685817 
L 491.868673 239.685817 
L 491.868673 222.973787 
L 493.184108 222.973787 
L 493.184108 219.915841 
L 494.499543 219.915841 
L 494.499543 220.257505 
L 495.814978 220.257505 
L 495.814978 223.46191 
L 497.130414 223.46191 
L 497.130414 225.957038 
L 498.445849 225.957038 
L 498.445849 230.640984 
L 499.761284 230.640984 
L 499.761284 232.826478 
L 501.076719 232.826478 
L 501.076719 252.688377 
L 502.392155 252.688377 
L 502.392155 260.983786 
L 503.70759 260.983786 
L 503.70759 270.405243 
L 505.023025 270.405243 
L 505.023025 260.207482 
L 506.33846 260.207482 
L 506.33846 257.344802 
L 507.653896 257.344802 
L 507.653896 253.6922 
L 508.969331 253.6922 
L 508.969331 253.347744 
L 510.284766 253.347744 
L 510.284766 253.629925 
L 511.600201 253.629925 
L 511.600201 265.893134 
L 514.231072 265.986445 
L 514.231072 267.71154 
L 515.546507 267.71154 
L 515.546507 258.927139 
L 516.861942 258.927139 
L 516.861942 257.902204 
L 518.177378 257.902204 
L 518.177378 258.634422 
L 519.492813 258.634422 
L 519.492813 269.290546 
L 520.808248 269.290546 
L 520.808248 278.42839 
L 523.439119 278.426363 
L 523.439119 266.409885 
L 524.754554 266.409885 
L 524.754554 257.886856 
L 527.385424 257.884829 
L 527.385424 288.140762 
L 528.70086 288.140762 
L 528.70086 280.947721 
L 530.016295 280.947721 
L 530.016295 280.648622 
L 531.33173 280.648622 
L 531.33173 278.333136 
L 532.647165 278.333136 
L 532.647165 276.698861 
L 533.962601 276.698861 
L 533.962601 274.989784 
L 535.278036 274.989784 
L 535.278036 273.272232 
L 537.908906 273.270205 
L 537.908906 291.86844 
L 539.224342 291.86844 
L 539.224342 295.693523 
L 540.539777 295.693523 
L 540.539777 290.377002 
L 543.170647 290.374975 
L 543.170647 297.758451 
L 544.486083 297.758451 
L 544.486083 299.512053 
L 545.801518 299.512053 
L 545.801518 298.94309 
L 547.116953 298.94309 
L 547.116953 276.88455 
L 548.432388 276.88455 
L 548.432388 274.963251 
L 549.747824 274.963251 
L 549.747824 275.233704 
L 551.063259 275.233704 
L 551.063259 283.730812 
L 552.378694 283.730812 
L 552.378694 291.484139 
L 553.694129 291.484139 
L 553.694129 294.252153 
L 556.325 294.34834 
L 556.325 294.34834 
" style="fill:none;stroke:#696969;stroke-linecap:square;stroke-width:0.9;"/>
   </g>
   <g id="line2d_22">
    <path clip-path="url(#pb814973811)" d="M 30.150898 460.174 
L 34.360291 460.03227 
L 35.149552 459.885671 
L 35.412639 433.314527 
L 35.675727 459.858624 
L 36.201901 459.932734 
L 40.148206 459.683895 
L 42.779077 459.372305 
L 43.305251 459.194872 
L 43.568338 458.992555 
L 43.831425 458.484599 
L 44.094512 456.287783 
L 44.357599 443.044676 
L 44.620686 456.234769 
L 44.883773 458.376408 
L 45.14686 458.829187 
L 45.673034 459.029881 
L 46.725383 459.011489 
L 50.145514 458.606314 
L 55.407255 457.78785 
L 61.19517 456.664287 
L 64.878389 455.761434 
L 66.983086 455.060357 
L 68.298521 454.388492 
L 69.087782 453.734478 
L 69.613956 453.054498 
L 70.14013 451.980703 
L 70.666304 450.199881 
L 71.455565 446.358022 
L 71.718652 445.814363 
L 71.98174 446.208719 
L 73.297175 451.07785 
L 73.823349 451.846546 
L 74.349523 452.216018 
L 75.138784 452.393451 
L 76.191132 452.28472 
L 77.243481 451.949328 
L 78.295829 451.395931 
L 79.08509 450.76626 
L 79.874351 449.804984 
L 80.663612 448.326015 
L 81.71596 446.07889 
L 81.979047 445.868458 
L 82.242134 445.913898 
L 82.768309 446.594419 
L 83.820657 448.228102 
L 84.346831 448.69765 
L 85.136092 449.04332 
L 85.925353 449.124463 
L 86.977701 449.011945 
L 88.556224 448.602442 
L 90.66092 447.816435 
L 93.028704 446.688545 
L 95.1334 445.411893 
L 96.711922 444.181221 
L 98.027358 442.853178 
L 99.079706 441.492677 
L 100.132054 439.776229 
L 102.762924 435.036385 
L 103.552186 434.303933 
L 105.130708 433.230138 
L 105.919969 432.261289 
L 106.70923 430.785565 
L 107.498491 428.761313 
L 108.55084 425.304614 
L 110.129362 419.924821 
L 110.655536 418.774211 
L 111.18171 418.258682 
L 111.444797 418.264632 
L 111.707884 418.445852 
L 112.234058 419.270266 
L 113.023319 421.319943 
L 114.864929 426.704063 
L 115.65419 428.461624 
L 116.443451 429.79075 
L 117.232712 430.741207 
L 118.021973 431.387106 
L 119.074322 431.905341 
L 120.389757 432.241814 
L 123.809889 432.773032 
L 125.651498 432.826045 
L 127.493107 432.62481 
L 129.860891 432.076823 
L 132.491761 431.222115 
L 136.17498 429.766407 
L 140.384373 427.875771 
L 145.909201 425.133131 
L 151.434029 422.125424 
L 156.69577 418.984102 
L 160.905163 416.223611 
L 164.851468 413.370617 
L 168.534687 410.407268 
L 171.954819 407.336269 
L 175.37495 403.91906 
L 179.058169 399.909505 
L 183.793736 394.754749 
L 185.898433 392.766742 
L 187.740042 391.30941 
L 189.581651 390.151768 
L 191.423261 389.272717 
L 193.527957 388.518626 
L 201.683656 385.906898 
L 204.051439 384.790368 
L 206.68231 383.271908 
L 209.31318 381.463497 
L 211.944051 379.375954 
L 214.574921 377.020097 
L 217.468879 374.132482 
L 220.625923 370.64008 
L 223.782968 366.813909 
L 227.203099 362.325068 
L 231.675579 356.03539 
L 240.620539 343.256963 
L 243.514497 339.574145 
L 245.88228 336.906698 
L 247.986976 334.85053 
L 250.091673 333.117853 
L 251.933282 331.869871 
L 253.774892 330.863154 
L 255.879588 329.978694 
L 257.984284 329.333876 
L 260.615155 328.778316 
L 264.298374 328.251967 
L 269.823202 327.436208 
L 272.980246 326.717279 
L 275.874204 325.807935 
L 278.505074 324.747664 
L 281.135945 323.450996 
L 283.766815 321.915226 
L 286.660773 319.951561 
L 289.554731 317.708764 
L 292.448688 315.196571 
L 295.86882 311.890798 
L 299.025864 308.531471 
L 302.445996 304.571684 
L 306.129215 299.947605 
L 309.812433 294.965414 
L 313.758739 289.238869 
L 317.705045 283.124461 
L 321.914438 276.185096 
L 326.386918 268.351534 
L 330.859397 260.058161 
L 335.594964 250.795397 
L 340.593618 240.510229 
L 345.855359 229.165331 
L 351.643274 216.149425 
L 358.746625 199.577825 
L 380.319763 148.689694 
L 384.792243 138.909237 
L 388.738549 130.777068 
L 392.421767 123.714366 
L 395.578812 118.138207 
L 398.47277 113.465983 
L 401.10364 109.618173 
L 403.734511 106.182571 
L 406.102294 103.464275 
L 408.20699 101.360503 
L 410.311687 99.561829 
L 412.416383 98.07745 
L 414.257993 97.042063 
L 416.099602 96.25822 
L 417.941211 95.726462 
L 419.782821 95.448952 
L 421.62443 95.427314 
L 423.466039 95.658302 
L 425.307649 96.143538 
L 427.149258 96.876531 
L 428.990867 97.856741 
L 430.832477 99.077675 
L 432.674086 100.53122 
L 434.778783 102.470542 
L 436.883479 104.694406 
L 439.251262 107.521975 
L 441.619046 110.673035 
L 444.249916 114.524631 
L 447.143874 119.155201 
L 450.300919 124.624792 
L 453.984137 131.483554 
L 458.19353 139.838056 
L 463.192184 150.297411 
L 469.76936 164.619181 
L 488.711628 206.121211 
L 494.76263 218.692993 
L 500.287458 229.683025 
L 505.549199 239.664717 
L 510.547853 248.684592 
L 515.546507 257.24087 
L 520.282074 264.918096 
L 525.280728 272.575848 
L 530.016295 279.418381 
L 534.751862 285.873592 
L 539.750516 292.284984 
L 544.74917 298.303644 
L 550.010911 304.236292 
L 554.746478 309.248235 
L 556.588087 311.11561 
L 556.588087 311.11561 
" style="fill:none;stroke:#000000;stroke-linecap:square;stroke-width:0.9;"/>
   </g>
   <g id="line2d_23">
    <path clip-path="url(#pb814973811)" d="M 30.150898 460.174 
L 37.254249 460.063104 
L 44.094512 459.734745 
L 50.934775 459.17648 
L 57.511952 458.416439 
L 63.826041 457.480047 
L 70.403217 456.29157 
L 77.243481 454.833697 
L 84.083744 453.162689 
L 91.450181 451.144387 
L 99.868967 448.590541 
L 109.077014 445.541181 
L 119.863583 441.698781 
L 132.228674 437.029803 
L 146.961549 431.216165 
L 162.483685 424.873473 
L 176.953473 418.743918 
L 189.581651 413.145039 
L 199.052785 408.724899 
L 207.734658 404.448654 
L 215.364182 400.469934 
L 222.73062 396.391678 
L 229.570883 392.361026 
L 236.148059 388.230297 
L 242.462148 383.998951 
L 248.250064 379.863895 
L 254.037979 375.457821 
L 259.562807 370.97439 
L 265.087635 366.194516 
L 270.349376 361.343777 
L 275.34803 356.443811 
L 280.346684 351.238747 
L 285.345338 345.707487 
L 290.343992 339.827852 
L 295.079559 333.917924 
L 299.815125 327.657999 
L 304.550692 321.030765 
L 309.286259 314.019995 
L 314.021826 306.610541 
L 318.757393 298.789962 
L 323.49296 290.550143 
L 328.491614 281.393406 
L 333.490268 271.76658 
L 338.752009 261.140611 
L 344.276837 249.470599 
L 350.327839 236.1523 
L 357.43119 219.951794 
L 380.056676 167.870859 
L 384.529156 158.389008 
L 388.475462 150.528398 
L 391.895593 144.191117 
L 395.052638 138.799964 
L 397.946595 134.295977 
L 400.577466 130.600176 
L 402.945249 127.625467 
L 405.313033 125.002919 
L 407.417729 122.982995 
L 409.522426 121.267088 
L 411.364035 120.022892 
L 413.205644 119.024831 
L 415.047254 118.277232 
L 416.888863 117.7828 
L 418.730472 117.544239 
L 420.572082 117.562631 
L 422.150604 117.7828 
L 423.992213 118.277232 
L 425.833823 119.024831 
L 427.675432 120.022892 
L 429.517042 121.267088 
L 431.621738 122.982995 
L 433.726434 125.002919 
L 435.831131 127.316041 
L 438.198914 130.252883 
L 440.829785 133.908653 
L 443.460655 137.948502 
L 446.354613 142.799241 
L 449.511657 148.527408 
L 452.931789 155.180607 
L 456.878095 163.342529 
L 461.613662 173.670973 
L 467.664664 187.443675 
L 491.868673 243.161988 
L 497.919675 256.196287 
L 503.444503 267.569314 
L 508.706244 277.892349 
L 513.704898 287.220027 
L 518.703552 296.075452 
L 523.439119 304.030729 
L 528.174686 311.570553 
L 532.910252 318.706284 
L 537.645819 325.451446 
L 542.381386 331.821185 
L 547.116953 337.833353 
L 551.85252 343.50472 
L 556.588087 348.853137 
L 556.588087 348.853137 
" style="fill:none;stroke:#000000;stroke-dasharray:0.9,1.485;stroke-dashoffset:0;stroke-width:0.9;"/>
   </g>
   <g id="line2d_24">
    <path clip-path="url(#pb814973811)" d="M 30.150898 460.174 
L 41.726729 460.065809 
L 56.722691 459.679027 
L 85.399179 458.962803 
L 118.548147 458.240088 
L 136.964241 457.600679 
L 149.329332 456.982909 
L 159.852814 456.271013 
L 169.060861 455.443353 
L 176.690386 454.554024 
L 183.793736 453.496999 
L 189.844738 452.364781 
L 194.843392 451.221203 
L 199.578959 449.919666 
L 203.788352 448.545101 
L 207.734658 447.034215 
L 211.417876 445.39891 
L 214.838008 443.660282 
L 218.25814 441.688503 
L 221.678271 439.473294 
L 225.36149 436.820994 
L 229.570883 433.508189 
L 238.515843 426.344869 
L 241.146713 424.581358 
L 243.25141 423.421551 
L 245.093019 422.638249 
L 246.934628 422.103245 
L 248.513151 421.860898 
L 250.091673 421.826276 
L 251.670195 421.999923 
L 253.248718 422.376968 
L 255.090327 423.056948 
L 256.931936 423.969538 
L 259.036633 425.250518 
L 261.667503 427.123844 
L 265.613809 430.264085 
L 273.50642 436.621923 
L 277.452726 439.473294 
L 281.135945 441.848625 
L 284.556077 443.802012 
L 288.239295 445.647208 
L 291.922514 447.249515 
L 295.86882 448.729567 
L 300.078213 450.076002 
L 304.550692 451.287199 
L 309.812433 452.473513 
L 315.600349 453.540816 
L 321.914438 454.484241 
L 329.807049 455.416305 
L 338.752009 456.22936 
L 348.749317 456.9207 
L 361.640582 457.5785 
L 377.162718 458.140011 
L 395.841899 458.606314 
L 421.887517 459.031504 
L 461.613662 459.411795 
L 533.699514 459.745564 
L 556.588087 459.806692 
L 556.588087 459.806692 
" style="fill:none;stroke:#000000;stroke-dasharray:0.9,1.485;stroke-dashoffset:0;stroke-width:0.9;"/>
   </g>
   <g id="line2d_25">
    <path clip-path="url(#pb814973811)" d="M 30.150898 460.174 
L 48.303905 460.063645 
L 76.717306 459.940308 
L 111.970971 459.684436 
L 130.387065 459.34634 
L 141.962895 458.926018 
L 150.118594 458.417521 
L 156.169596 457.828421 
L 161.16825 457.114902 
L 165.114555 456.333223 
L 168.534687 455.440648 
L 171.691732 454.392819 
L 174.848776 453.104266 
L 178.795082 451.207679 
L 183.004475 449.215885 
L 184.846084 448.568362 
L 186.424607 448.216742 
L 188.003129 448.094486 
L 189.581651 448.216742 
L 191.160174 448.568362 
L 193.001783 449.215885 
L 195.632653 450.419508 
L 202.20983 453.56029 
L 205.366874 454.768242 
L 208.523919 455.740337 
L 212.207138 456.619929 
L 216.153443 457.328579 
L 221.152097 457.977725 
L 227.203099 458.517597 
L 235.095711 458.975786 
L 245.88228 459.353372 
L 260.615155 459.639537 
L 290.607079 459.900277 
L 360.06206 460.075005 
L 439.514349 460.127478 
L 556.588087 460.152362 
L 556.588087 460.152362 
" style="fill:none;stroke:#000000;stroke-dasharray:0.9,1.485;stroke-dashoffset:0;stroke-width:0.9;"/>
   </g>
   <g id="line2d_26">
    <path clip-path="url(#pb814973811)" d="M 30.150898 460.174 
L 100.658228 460.064727 
L 109.603188 459.865115 
L 113.549494 459.583278 
L 116.180364 459.200823 
L 120.915931 458.383441 
L 122.231366 458.492172 
L 124.862237 459.042864 
L 127.493107 459.490774 
L 130.650152 459.780185 
L 135.648806 459.977634 
L 144.856853 460.09448 
L 172.74408 460.156149 
L 233.517189 460.170213 
L 556.588087 460.174 
L 556.588087 460.174 
" style="fill:none;stroke:#000000;stroke-dasharray:0.9,1.485;stroke-dashoffset:0;stroke-width:0.9;"/>
   </g>
   <g id="line2d_27">
    <path clip-path="url(#pb814973811)" d="M 30.150898 460.174 
L 52.776385 460.063104 
L 76.980393 459.853755 
L 86.451527 459.569213 
L 91.713268 459.214347 
L 95.1334 458.789697 
L 97.76427 458.244415 
L 99.60588 457.656398 
L 101.184402 456.922863 
L 102.499837 456.057877 
L 103.552186 455.118239 
L 104.604534 453.862684 
L 105.656882 452.170037 
L 106.446143 450.523913 
L 107.498491 447.723391 
L 108.813927 443.330841 
L 109.866275 439.837897 
L 110.392449 438.556917 
L 110.918623 437.853676 
L 111.18171 437.762796 
L 111.444797 437.853676 
L 111.707884 438.122531 
L 112.234058 439.136279 
L 113.023319 441.497546 
L 115.128016 448.491547 
L 116.180364 451.113012 
L 117.232712 453.079923 
L 118.28506 454.536713 
L 119.337409 455.621327 
L 120.652844 456.610733 
L 121.968279 457.32317 
L 123.546801 457.936612 
L 125.651498 458.494877 
L 128.282368 458.945492 
L 131.965587 459.327406 
L 137.490415 459.637914 
L 146.172288 459.86782 
L 162.746772 460.031729 
L 194.843392 460.119905 
L 556.588087 460.171836 
L 556.588087 460.171836 
" style="fill:none;stroke:#000000;stroke-dasharray:0.9,1.485;stroke-dashoffset:0;stroke-width:0.9;"/>
   </g>
   <g id="line2d_28">
    <path clip-path="url(#pb814973811)" d="M 30.150898 460.174 
L 79.348177 460.065268 
L 89.345485 459.854837 
L 93.291791 459.568672 
L 95.659574 459.181889 
L 97.238096 458.704768 
L 98.553532 458.04859 
L 99.60588 457.259878 
L 100.921315 455.922639 
L 101.973663 454.904021 
L 102.499837 454.638954 
L 103.026012 454.638954 
L 103.552186 454.904021 
L 104.341447 455.637556 
L 106.183056 457.482751 
L 107.235404 458.205467 
L 108.55084 458.803221 
L 110.129362 459.239772 
L 112.234058 459.568672 
L 115.391103 459.816429 
L 120.915931 459.994944 
L 133.017935 460.108004 
L 158.537379 460.154526 
L 556.588087 460.173459 
L 556.588087 460.173459 
" style="fill:none;stroke:#000000;stroke-dasharray:0.9,1.485;stroke-dashoffset:0;stroke-width:0.9;"/>
   </g>
   <g id="line2d_29">
    <path clip-path="url(#pb814973811)" d="M 30.150898 460.174 
L 70.14013 460.065809 
L 75.138784 459.862951 
L 77.243481 459.563262 
L 78.295829 459.232739 
L 79.08509 458.797271 
L 79.874351 458.050213 
L 80.400525 457.27773 
L 81.71596 454.864532 
L 81.979047 454.735243 
L 82.242134 454.864532 
L 82.768309 455.71383 
L 83.820657 457.695887 
L 84.609918 458.592249 
L 85.399179 459.112106 
L 86.451527 459.498348 
L 88.03005 459.78289 
L 90.66092 459.976552 
L 95.922661 460.095562 
L 109.603188 460.153985 
L 556.588087 460.174 
L 556.588087 460.174 
" style="fill:none;stroke:#000000;stroke-dasharray:0.9,1.485;stroke-dashoffset:0;stroke-width:0.9;"/>
   </g>
   <g id="line2d_30">
    <path clip-path="url(#pb814973811)" d="M 30.150898 460.174 
L 34.097204 460.085824 
L 39.358945 459.706074 
L 45.936121 458.927641 
L 53.828733 457.735918 
L 60.405909 456.537163 
L 66.983086 455.089028 
L 72.244827 453.700938 
L 77.506568 452.049404 
L 81.452873 450.587204 
L 85.399179 448.869133 
L 88.03005 447.539467 
L 90.66092 446.020466 
L 93.291791 444.266151 
L 95.922661 442.222425 
L 98.553532 439.843848 
L 101.184402 437.129338 
L 106.446143 431.385483 
L 107.761578 430.191056 
L 109.077014 429.236812 
L 110.392449 428.575766 
L 111.707884 428.230637 
L 113.023319 428.184115 
L 114.338755 428.384809 
L 116.969625 429.236812 
L 120.915931 430.676292 
L 123.546801 431.322192 
L 126.177672 431.631077 
L 128.808542 431.6327 
L 131.439413 431.381697 
L 134.070283 430.928377 
L 138.016589 429.963855 
L 141.962895 428.746707 
L 147.224636 426.849039 
L 152.486377 424.723088 
L 159.063553 421.821408 
L 165.64073 418.690904 
L 172.217906 415.338068 
L 178.795082 411.743426 
L 185.372258 407.856667 
L 190.633999 404.484898 
L 195.89574 400.816686 
L 199.842046 397.823043 
L 203.788352 394.570284 
L 207.734658 390.999443 
L 211.680963 387.038574 
L 214.311834 384.136354 
L 216.942704 380.987998 
L 219.573575 377.559429 
L 222.204446 373.814401 
L 224.835316 369.71667 
L 227.466187 365.240272 
L 230.097057 360.374386 
L 232.727928 355.138488 
L 236.674233 346.774249 
L 240.620539 338.344555 
L 243.25141 333.182767 
L 244.566845 330.87776 
L 245.88228 328.819969 
L 247.197715 327.048884 
L 248.513151 325.596421 
L 249.828586 324.482055 
L 251.144021 323.711195 
L 252.459456 323.275727 
L 253.774892 323.153471 
L 255.090327 323.309807 
L 256.405762 323.703081 
L 257.721197 324.285689 
L 260.352068 325.825245 
L 265.613809 329.230013 
L 268.244679 330.620266 
L 270.87555 331.633474 
L 273.50642 332.225819 
L 276.137291 332.39081 
L 278.768161 332.146839 
L 281.399032 331.522578 
L 284.029902 330.549401 
L 286.660773 329.259765 
L 289.291643 327.681801 
L 291.922514 325.841474 
L 294.553384 323.760422 
L 297.184255 321.455415 
L 301.130561 317.61572 
L 305.076867 313.349752 
L 309.023172 308.689429 
L 312.969478 303.655848 
L 316.915784 298.268482 
L 320.86209 292.538151 
L 324.808395 286.476215 
L 328.754701 280.094034 
L 334.016442 271.100665 
L 339.278183 261.577161 
L 344.539924 251.558684 
L 349.801665 241.085805 
L 356.378841 227.445637 
L 364.271453 210.476435 
L 382.687546 170.51234 
L 387.949288 159.735444 
L 391.895593 152.072283 
L 395.841899 144.87326 
L 399.788205 138.235207 
L 402.419075 134.169393 
L 405.049946 130.423284 
L 407.680816 127.023384 
L 410.311687 123.99458 
L 412.942557 121.35905 
L 415.573428 119.138432 
L 418.204298 117.348954 
L 420.835169 116.005223 
L 423.466039 115.11914 
L 424.781475 114.850826 
L 426.09691 114.698277 
L 427.412345 114.662574 
L 428.72778 114.74534 
L 430.043216 114.944411 
L 431.358651 115.26087 
L 433.989521 116.239997 
L 436.620392 117.676232 
L 439.251262 119.558212 
L 441.882133 121.870252 
L 444.513003 124.59504 
L 447.143874 127.713642 
L 449.774744 131.200635 
L 452.405615 135.032216 
L 455.036485 139.183501 
L 458.982791 145.945973 
L 462.929097 153.26671 
L 466.875403 161.051045 
L 472.137144 171.986441 
L 478.71432 186.256279 
L 501.076719 235.442026 
L 507.653896 249.158469 
L 512.915637 259.698426 
L 518.177378 269.808325 
L 523.439119 279.464363 
L 528.70086 288.653016 
L 533.962601 297.37212 
L 539.224342 305.625463 
L 544.486083 313.421699 
L 549.747824 320.776517 
L 555.009565 327.706685 
L 556.325 329.374448 
L 556.325 329.374448 
" style="fill:none;stroke:#ff0000;stroke-linecap:square;stroke-width:0.9;"/>
   </g>
   <g id="line2d_31">
    <path clip-path="url(#pb814973811)" d="M 30.150898 460.174 
L 40.67438 460.056613 
L 81.452873 459.261951 
L 113.023319 458.79673 
L 132.754848 458.310953 
L 148.540071 457.713739 
L 160.378989 457.060266 
L 169.587035 456.358648 
L 177.479647 455.556953 
L 184.056823 454.687099 
L 189.318564 453.811293 
L 194.580305 452.720188 
L 198.526611 451.719422 
L 202.472917 450.519585 
L 206.419222 449.070368 
L 210.365528 447.307397 
L 212.996399 445.918226 
L 215.627269 444.325656 
L 218.25814 442.497771 
L 220.88901 440.399949 
L 223.519881 437.99757 
L 226.150751 435.260341 
L 228.781622 432.169867 
L 231.412492 428.729397 
L 235.358798 423.033146 
L 240.620539 415.239614 
L 243.25141 411.877041 
L 244.566845 410.489493 
L 245.88228 409.360521 
L 247.197715 408.530156 
L 248.513151 408.030855 
L 249.828586 407.882633 
L 251.144021 408.090901 
L 252.459456 408.647543 
L 253.774892 409.530922 
L 255.090327 410.706416 
L 256.405762 412.132913 
L 259.036633 415.54904 
L 262.982938 421.38648 
L 266.929244 427.206069 
L 269.560115 430.780696 
L 272.190985 434.01885 
L 274.821856 436.902137 
L 277.452726 439.439755 
L 280.083597 441.660373 
L 282.714467 443.596449 
L 285.345338 445.282605 
L 287.976208 446.752919 
L 290.607079 448.036063 
L 294.553384 449.668664 
L 298.49969 451.014017 
L 302.445996 452.130548 
L 307.707737 453.341745 
L 312.969478 454.308971 
L 319.546654 455.263215 
L 327.439266 456.136857 
L 336.647313 456.895816 
L 347.170795 457.531978 
L 360.325147 458.099439 
L 377.425805 458.602527 
L 399.788205 459.026095 
L 431.358651 459.385288 
L 481.345191 459.686059 
L 556.325 459.894327 
L 556.325 459.894327 
" style="fill:none;stroke:#ff0000;stroke-dasharray:5.76,1.44,0.9,1.44;stroke-dashoffset:0;stroke-width:0.9;"/>
   </g>
   <g id="line2d_32">
    <path clip-path="url(#pb814973811)" d="M 30.150898 460.174 
L 36.728075 460.069596 
L 65.66765 459.008243 
L 73.560262 458.515434 
L 78.822003 458.002068 
L 82.768309 457.455704 
L 86.714614 456.698367 
L 89.345485 456.025961 
L 91.976355 455.171794 
L 94.607226 454.084475 
L 97.238096 452.710992 
L 99.868967 451.019427 
L 103.815273 448.031194 
L 106.446143 446.142722 
L 107.761578 445.419466 
L 109.077014 444.941803 
L 110.392449 444.763288 
L 111.707884 444.906641 
L 113.023319 445.35347 
L 114.338755 446.052924 
L 116.969625 447.919217 
L 120.915931 450.917187 
L 123.546801 452.626062 
L 126.177672 454.016856 
L 128.808542 455.118239 
L 131.439413 455.983766 
L 134.070283 456.664828 
L 138.016589 457.432443 
L 141.962895 457.984757 
L 147.224636 458.503533 
L 153.801812 458.934673 
L 163.009859 459.308473 
L 176.164212 459.609244 
L 197.211176 459.844559 
L 234.043363 460.010091 
L 322.177525 460.117741 
L 556.325 460.161017 
L 556.325 460.161017 
" style="fill:none;stroke:#ff0000;stroke-dasharray:5.76,1.44,0.9,1.44;stroke-dashoffset:0;stroke-width:0.9;"/>
   </g>
   <g id="line2d_33">
    <path clip-path="url(#pb814973811)" d="M 30.150898 460.174 
L 38.04351 460.041466 
L 44.620686 459.717975 
L 51.197863 459.188381 
L 57.775039 458.446732 
L 64.352215 457.489784 
L 70.929391 456.319158 
L 77.506568 454.939724 
L 84.083744 453.360678 
L 91.976355 451.218498 
L 99.868967 448.830725 
L 107.761578 446.224947 
L 116.969625 442.949468 
L 127.493107 438.951814 
L 139.332025 434.202234 
L 152.486377 428.688284 
L 166.956165 422.386164 
L 180.110517 416.435665 
L 191.949435 410.848146 
L 202.472917 405.633885 
L 211.680963 400.81939 
L 219.573575 396.458756 
L 227.466187 391.837382 
L 234.043363 387.753716 
L 240.620539 383.427162 
L 247.197715 378.826885 
L 253.774892 373.918805 
L 259.036633 369.747505 
L 264.298374 365.338185 
L 269.560115 360.67137 
L 274.821856 355.725964 
L 280.083597 350.48141 
L 285.345338 344.91607 
L 290.607079 339.008306 
L 295.86882 332.73648 
L 301.130561 326.078412 
L 306.392302 319.014087 
L 311.654043 311.52349 
L 316.915784 303.590933 
L 322.177525 295.201811 
L 327.439266 286.347468 
L 332.701007 277.02574 
L 337.962748 267.241496 
L 343.224489 257.011505 
L 348.48623 246.363898 
L 355.063406 232.53656 
L 362.956018 215.359631 
L 382.687546 171.999424 
L 387.949288 161.11596 
L 391.895593 153.37977 
L 395.841899 146.113128 
L 399.788205 139.413406 
L 402.419075 135.308644 
L 405.049946 131.525208 
L 407.680816 128.090147 
L 410.311687 125.027803 
L 412.942557 122.360357 
L 415.573428 120.108904 
L 418.204298 118.290215 
L 420.835169 116.918895 
L 423.466039 116.006305 
L 424.781475 115.724468 
L 426.09691 115.559477 
L 427.412345 115.511873 
L 428.72778 115.582197 
L 430.043216 115.769367 
L 431.358651 116.073924 
L 433.989521 117.031414 
L 436.620392 118.44601 
L 439.251262 120.306893 
L 441.882133 122.599459 
L 444.513003 125.305313 
L 447.143874 128.404982 
L 449.774744 131.874664 
L 452.405615 135.689476 
L 455.036485 139.823991 
L 458.982791 146.563202 
L 462.929097 153.862301 
L 466.875403 161.625539 
L 472.137144 172.534968 
L 478.71432 186.773973 
L 501.076719 235.873708 
L 507.653896 249.569053 
L 512.915637 260.092782 
L 518.177378 270.187534 
L 523.439119 279.829507 
L 528.70086 289.005177 
L 533.962601 297.711299 
L 539.224342 305.9522 
L 544.486083 313.737617 
L 549.747824 321.081615 
L 555.009565 328.001505 
L 556.325 329.667104 
L 556.325 329.667104 
" style="fill:none;stroke:#ff0000;stroke-dasharray:5.76,1.44,0.9,1.44;stroke-dashoffset:0;stroke-width:0.9;"/>
   </g>
   <g id="line2d_34">
    <path clip-path="url(#pb814973811)" d="M 30.150898 460.119306 
L 41.989816 459.94209 
L 49.882427 459.618729 
L 55.144168 459.223219 
L 60.405909 458.604818 
L 64.352215 457.944668 
L 68.298521 457.073718 
L 72.244827 455.954267 
L 76.191132 454.553409 
L 80.137438 452.847988 
L 84.083744 450.829953 
L 88.03005 448.511428 
L 91.976355 445.928622 
L 97.238096 442.184882 
L 107.761578 434.543263 
L 111.707884 431.986869 
L 114.338755 430.471273 
L 116.969625 429.140835 
L 119.600496 428.018435 
L 122.231366 427.119783 
L 124.862237 426.452444 
L 127.493107 426.015253 
L 130.123978 425.798145 
L 132.754848 425.782428 
L 135.385719 425.941475 
L 139.332025 426.432906 
L 147.224636 427.811842 
L 151.170942 428.397033 
L 155.117248 428.719254 
L 157.748118 428.726176 
L 160.378989 428.530881 
L 163.009859 428.109083 
L 165.64073 427.442542 
L 168.2716 426.519035 
L 170.902471 425.332082 
L 173.533341 423.880508 
L 176.164212 422.167871 
L 178.795082 420.20182 
L 181.425953 417.993423 
L 184.056823 415.556515 
L 188.003129 411.508136 
L 191.949435 407.042286 
L 195.89574 402.224229 
L 201.157481 395.369645 
L 207.734658 386.338765 
L 223.519881 364.351915 
L 228.781622 357.455408 
L 232.727928 352.56729 
L 236.674233 347.977009 
L 240.620539 343.725739 
L 244.566845 339.846265 
L 248.513151 336.361776 
L 252.459456 333.284823 
L 256.405762 330.616507 
L 260.352068 328.345942 
L 264.298374 326.450047 
L 268.244679 324.893681 
L 272.190985 323.63013 
L 276.137291 322.601958 
L 281.399032 321.480243 
L 293.237949 319.085712 
L 297.184255 318.022589 
L 301.130561 316.681059 
L 303.761431 315.590159 
L 306.392302 314.314078 
L 309.023172 312.830304 
L 311.654043 311.117892 
L 314.284913 309.157719 
L 316.915784 306.932711 
L 319.546654 304.428051 
L 322.177525 301.63137 
L 324.808395 298.532901 
L 327.439266 295.125622 
L 330.070136 291.405358 
L 332.701007 287.37086 
L 335.331877 283.023861 
L 337.962748 278.369094 
L 341.909054 270.827604 
L 345.855359 262.650259 
L 349.801665 253.890072 
L 353.747971 244.613746 
L 359.009712 231.581237 
L 365.586888 214.536735 
L 381.372111 173.123479 
L 386.633852 160.152723 
L 390.580158 150.9974 
L 394.526464 142.462582 
L 397.157334 137.172198 
L 399.788205 132.237627 
L 402.419075 127.687978 
L 405.049946 123.550417 
L 407.680816 119.849984 
L 410.311687 116.609424 
L 412.942557 113.849034 
L 415.573428 111.586537 
L 418.204298 109.836968 
L 419.519734 109.158474 
L 420.835169 108.612588 
L 422.150604 108.2004 
L 423.466039 107.922816 
L 424.781475 107.780563 
L 426.09691 107.774184 
L 427.412345 107.904042 
L 428.72778 108.170317 
L 430.043216 108.573006 
L 431.358651 109.111929 
L 432.674086 109.786725 
L 433.989521 110.596854 
L 436.620392 112.62008 
L 439.251262 115.173825 
L 441.882133 118.247618 
L 444.513003 121.828405 
L 447.143874 125.900676 
L 449.774744 130.446607 
L 452.405615 135.446211 
L 455.036485 140.877517 
L 457.667356 146.716745 
L 461.613662 156.184505 
L 465.559967 166.421196 
L 469.506273 177.329824 
L 473.452579 188.809453 
L 478.71432 204.825237 
L 485.291496 225.639583 
L 506.33846 293.112181 
L 511.600201 309.131646 
L 516.861942 324.48605 
L 522.123683 339.057121 
L 526.069989 349.415176 
L 530.016295 359.251351 
L 533.962601 368.544449 
L 537.908906 377.280767 
L 541.855212 385.453601 
L 545.801518 393.062668 
L 549.747824 400.113479 
L 553.694129 406.616673 
L 556.325 410.655193 
L 556.325 410.655193 
" style="fill:none;stroke:#008000;stroke-linecap:square;stroke-width:0.9;"/>
   </g>
   <g id="line2d_35">
    <path clip-path="url(#pb814973811)" d="M 30.150898 460.165224 
L 66.983086 460.028795 
L 82.768309 459.757969 
L 93.291791 459.375686 
L 102.499837 458.807561 
L 109.077014 458.205329 
L 115.65419 457.381647 
L 120.915931 456.522072 
L 126.177672 455.445415 
L 131.439413 454.112261 
L 135.385719 452.918845 
L 139.332025 451.53918 
L 143.27833 449.954799 
L 147.224636 448.147543 
L 151.170942 446.100065 
L 155.117248 443.796392 
L 159.063553 441.222548 
L 163.009859 438.367216 
L 166.956165 435.222432 
L 170.902471 431.784277 
L 174.848776 428.053555 
L 178.795082 424.036421 
L 182.741388 419.74494 
L 188.003129 413.629001 
L 193.26487 407.121059 
L 199.842046 398.564492 
L 220.88901 370.668586 
L 224.835316 365.870844 
L 228.781622 361.373249 
L 232.727928 357.241776 
L 236.674233 353.539053 
L 239.305104 351.337511 
L 241.935974 349.367878 
L 244.566845 347.644278 
L 247.197715 346.179209 
L 249.828586 344.983404 
L 252.459456 344.065688 
L 255.090327 343.432879 
L 257.721197 343.089698 
L 260.352068 343.038713 
L 262.982938 343.280305 
L 265.613809 343.812666 
L 268.244679 344.63182 
L 270.87555 345.731671 
L 273.50642 347.10408 
L 276.137291 348.738968 
L 278.768161 350.624433 
L 281.399032 352.7469 
L 284.029902 355.091281 
L 287.976208 358.987699 
L 291.922514 363.286169 
L 295.86882 367.922414 
L 301.130561 374.513638 
L 307.707737 383.184726 
L 323.49296 404.262041 
L 328.754701 410.912196 
L 334.016442 417.203246 
L 337.962748 421.642145 
L 341.909054 425.816311 
L 345.855359 429.71013 
L 349.801665 433.314168 
L 353.747971 436.624668 
L 357.694277 439.642957 
L 361.640582 442.374799 
L 365.586888 444.829699 
L 369.533194 447.020214 
L 373.4795 448.961265 
L 377.425805 450.669496 
L 381.372111 452.162674 
L 385.318417 453.459148 
L 390.580158 454.913676 
L 395.841899 456.094137 
L 401.10364 457.041179 
L 407.680816 457.95355 
L 414.257993 458.624611 
L 422.150604 459.188477 
L 431.358651 459.608967 
L 443.197568 459.909814 
L 460.298226 460.093426 
L 493.184108 460.167898 
L 556.325 460.173986 
L 556.325 460.173986 
" style="fill:none;stroke:#008000;stroke-dasharray:3.33,1.44;stroke-dashoffset:0;stroke-width:0.9;"/>
   </g>
   <g id="line2d_36">
    <path clip-path="url(#pb814973811)" d="M 30.150898 460.128087 
L 43.305251 459.929635 
L 51.197863 459.583006 
L 56.459604 459.161104 
L 61.721345 458.506083 
L 65.66765 457.812262 
L 69.613956 456.90423 
L 73.560262 455.747799 
L 77.506568 454.315676 
L 81.452873 452.592694 
L 85.399179 450.581252 
L 89.345485 448.306194 
L 94.607226 444.95428 
L 106.446143 437.161034 
L 110.392449 434.922648 
L 113.023319 433.644402 
L 115.65419 432.578788 
L 118.28506 431.755976 
L 120.915931 431.199826 
L 123.546801 430.926732 
L 126.177672 430.944822 
L 128.808542 431.253556 
L 131.439413 431.843753 
L 134.070283 432.698043 
L 136.701154 433.791719 
L 139.332025 435.09392 
L 143.27833 437.35951 
L 148.540071 440.756816 
L 159.063553 447.699537 
L 163.009859 450.033822 
L 166.956165 452.114694 
L 170.902471 453.911062 
L 174.848776 455.415315 
L 178.795082 456.638717 
L 182.741388 457.606031 
L 186.687694 458.350173 
L 191.949435 459.058057 
L 197.211176 459.517963 
L 203.788352 459.854767 
L 212.996399 460.069153 
L 228.781622 460.162309 
L 305.076867 460.174 
L 556.325 460.174 
L 556.325 460.174 
" style="fill:none;stroke:#008000;stroke-dasharray:3.33,1.44;stroke-dashoffset:0;stroke-width:0.9;"/>
   </g>
   <g id="line2d_37">
    <path clip-path="url(#pb814973811)" d="M 30.150898 460.173995 
L 161.694424 460.065135 
L 181.425953 459.826381 
L 194.580305 459.456977 
L 205.103787 458.930721 
L 212.996399 458.32665 
L 219.573575 457.632506 
L 226.150751 456.712326 
L 231.412492 455.77335 
L 236.674233 454.615367 
L 241.935974 453.197466 
L 245.88228 451.936044 
L 249.828586 450.481501 
L 253.774892 448.811116 
L 257.721197 446.90073 
L 261.667503 444.724877 
L 265.613809 442.256959 
L 269.560115 439.469475 
L 273.50642 436.3343 
L 277.452726 432.823023 
L 281.399032 428.907343 
L 285.345338 424.559521 
L 289.291643 419.752887 
L 293.237949 414.462393 
L 297.184255 408.665221 
L 301.130561 402.341422 
L 305.076867 395.474579 
L 309.023172 388.052496 
L 312.969478 380.06788 
L 316.915784 371.519016 
L 320.86209 362.410406 
L 324.808395 352.753369 
L 328.754701 342.566565 
L 332.701007 331.87644 
L 337.962748 316.900949 
L 343.224489 301.198158 
L 349.801665 280.749904 
L 359.009712 251.170237 
L 370.848629 213.084096 
L 376.11037 196.753331 
L 381.372111 181.134805 
L 385.318417 170.037281 
L 389.264723 159.582483 
L 393.211029 149.870064 
L 395.841899 143.854665 
L 398.47277 138.238165 
L 401.10364 133.045763 
L 403.734511 128.301036 
L 406.365381 124.025759 
L 408.996252 120.239737 
L 411.627122 116.960653 
L 414.257993 114.203934 
L 416.888863 111.982625 
L 418.204298 111.07615 
L 419.519734 110.307289 
L 420.835169 109.676962 
L 422.150604 109.185922 
L 423.466039 108.834759 
L 424.781475 108.623892 
L 426.09691 108.553575 
L 427.412345 108.623892 
L 428.72778 108.834759 
L 430.043216 109.185922 
L 431.358651 109.676962 
L 432.674086 110.307289 
L 433.989521 111.07615 
L 435.304957 111.982625 
L 437.935827 114.203934 
L 440.566698 116.960653 
L 443.197568 120.239737 
L 445.828439 124.025759 
L 448.459309 128.301036 
L 451.09018 133.045763 
L 453.72105 138.238165 
L 456.351921 143.854665 
L 458.982791 149.870064 
L 462.929097 159.582483 
L 466.875403 170.037281 
L 470.821708 181.134805 
L 476.08345 196.753331 
L 481.345191 213.084096 
L 489.237802 238.379283 
L 503.70759 284.899686 
L 510.284766 305.185293 
L 515.546507 320.717565 
L 520.808248 335.493775 
L 524.754554 346.019561 
L 528.70086 356.032323 
L 532.647165 365.508251 
L 536.593471 374.431188 
L 540.539777 382.79215 
L 544.486083 390.588775 
L 548.432388 397.824712 
L 552.378694 404.508963 
L 556.325 410.655207 
L 556.325 410.655207 
" style="fill:none;stroke:#008000;stroke-dasharray:3.33,1.44;stroke-dashoffset:0;stroke-width:0.9;"/>
   </g>
   <g id="patch_3">
    <path d="M 30.150898 460.174 
L 30.150898 27.4104 
" style="fill:none;stroke:#000000;stroke-linecap:square;stroke-linejoin:miter;stroke-width:0.8;"/>
   </g>
   <g id="patch_4">
    <path d="M 30.150898 460.174 
L 556.325 460.174 
" style="fill:none;stroke:#000000;stroke-linecap:square;stroke-linejoin:miter;stroke-width:0.8;"/>
   </g>
   <g id="text_23">
    <!-- GTR -->
    <g transform="translate(408.996252 76.096305)scale(0.14 -0.14)">
     <defs>
      <path d="M 59.515625 10.40625 
L 59.515625 29.984375 
L 43.40625 29.984375 
L 43.40625 38.09375 
L 69.28125 38.09375 
L 69.28125 6.78125 
Q 63.578125 2.734375 56.6875 0.65625 
Q 49.8125 -1.421875 42 -1.421875 
Q 24.90625 -1.421875 15.25 8.5625 
Q 5.609375 18.5625 5.609375 36.375 
Q 5.609375 54.25 15.25 64.234375 
Q 24.90625 74.21875 42 74.21875 
Q 49.125 74.21875 55.546875 72.453125 
Q 61.96875 70.703125 67.390625 67.28125 
L 67.390625 56.78125 
Q 61.921875 61.421875 55.765625 63.765625 
Q 49.609375 66.109375 42.828125 66.109375 
Q 29.4375 66.109375 22.71875 58.640625 
Q 16.015625 51.171875 16.015625 36.375 
Q 16.015625 21.625 22.71875 14.15625 
Q 29.4375 6.6875 42.828125 6.6875 
Q 48.046875 6.6875 52.140625 7.59375 
Q 56.25 8.5 59.515625 10.40625 
z
" id="DejaVuSans-71"/>
      <path d="M -0.296875 72.90625 
L 61.375 72.90625 
L 61.375 64.59375 
L 35.5 64.59375 
L 35.5 0 
L 25.59375 0 
L 25.59375 64.59375 
L -0.296875 64.59375 
z
" id="DejaVuSans-84"/>
      <path d="M 44.390625 34.1875 
Q 47.5625 33.109375 50.5625 29.59375 
Q 53.5625 26.078125 56.59375 19.921875 
L 66.609375 0 
L 56 0 
L 46.6875 18.703125 
Q 43.0625 26.03125 39.671875 28.421875 
Q 36.28125 30.8125 30.421875 30.8125 
L 19.671875 30.8125 
L 19.671875 0 
L 9.8125 0 
L 9.8125 72.90625 
L 32.078125 72.90625 
Q 44.578125 72.90625 50.734375 67.671875 
Q 56.890625 62.453125 56.890625 51.90625 
Q 56.890625 45.015625 53.6875 40.46875 
Q 50.484375 35.9375 44.390625 34.1875 
z
M 19.671875 64.796875 
L 19.671875 38.921875 
L 32.078125 38.921875 
Q 39.203125 38.921875 42.84375 42.21875 
Q 46.484375 45.515625 46.484375 51.90625 
Q 46.484375 58.296875 42.84375 61.546875 
Q 39.203125 64.796875 32.078125 64.796875 
z
" id="DejaVuSans-82"/>
     </defs>
     <use xlink:href="#DejaVuSans-71"/>
     <use x="73.865234" xlink:href="#DejaVuSans-84"/>
     <use x="134.949219" xlink:href="#DejaVuSans-82"/>
    </g>
   </g>
   <g id="text_24">
    <!-- PR1 -->
    <g transform="translate(240.357452 308.70674)scale(0.14 -0.14)">
     <defs>
      <path d="M 19.671875 64.796875 
L 19.671875 37.40625 
L 32.078125 37.40625 
Q 38.96875 37.40625 42.71875 40.96875 
Q 46.484375 44.53125 46.484375 51.125 
Q 46.484375 57.671875 42.71875 61.234375 
Q 38.96875 64.796875 32.078125 64.796875 
z
M 9.8125 72.90625 
L 32.078125 72.90625 
Q 44.34375 72.90625 50.609375 67.359375 
Q 56.890625 61.8125 56.890625 51.125 
Q 56.890625 40.328125 50.609375 34.8125 
Q 44.34375 29.296875 32.078125 29.296875 
L 19.671875 29.296875 
L 19.671875 0 
L 9.8125 0 
z
" id="DejaVuSans-80"/>
     </defs>
     <use xlink:href="#DejaVuSans-80"/>
     <use x="60.302734" xlink:href="#DejaVuSans-82"/>
     <use x="129.785156" xlink:href="#DejaVuSans-49"/>
    </g>
   </g>
   <g id="text_25">
    <!-- PR2 -->
    <g transform="translate(101.184402 411.488095)scale(0.14 -0.14)">
     <use xlink:href="#DejaVuSans-80"/>
     <use x="60.302734" xlink:href="#DejaVuSans-82"/>
     <use x="129.785156" xlink:href="#DejaVuSans-50"/>
    </g>
   </g>
  </g>
 </g>
 <defs>
  <clipPath id="pb814973811">
   <rect height="432.7636" width="526.174102" x="30.150898" y="27.4104"/>
  </clipPath>
 </defs>
</svg>
